<svg xmlns="http://www.w3.org/2000/svg" viewBox="0 0 1693 1270" width="1693" height="1270">
	<style>
		tspan { white-space:pre }
		.shp0 { fill: #010080 } 
		.shp1 { fill: #ffffff } 
	</style>
	<path id="Rectangle 1" class="shp0" d="M0 0L1693 0L1693 1270L0 1270L0 0Z" />
	<path id="path2388" fill-rule="evenodd" class="shp1" d="M282.82 1127.02C285.89 1126.04 287.96 1122.33 286.34 1120.71C285.58 1119.95 278.59 1119.52 266.54 1119.49L247.93 1119.45L243.47 1122.54C239.2 1125.5 238.41 1126.52 239.52 1127.63C240.31 1128.42 280.18 1127.85 282.82 1127.02ZM375.35 1125.88C377.86 1124.99 381.28 1124.27 382.94 1124.27C386.55 1124.27 387.59 1122.91 386.71 1119.37C385.96 1116.42 382.13 1115.85 376.76 1117.91C372.58 1119.51 353.21 1119.47 347.9 1117.85C344.28 1116.75 341.77 1116.82 333.43 1118.26C322.42 1120.15 319 1122.06 321.73 1124.78C323.02 1126.07 324.12 1126.16 327.51 1125.22C330.52 1124.39 333.96 1124.41 339.83 1125.28C347.55 1126.43 352.62 1126.83 365.29 1127.29C368.31 1127.4 372.84 1126.76 375.35 1125.88ZM660.65 1122.27C667.36 1120.64 667.92 1120.28 668.25 1117.4C668.45 1115.64 667.99 1113.92 667.18 1113.42C666.4 1112.93 655.61 1112.53 643.21 1112.52C625.03 1112.51 618.47 1112.09 609.39 1110.34C603.19 1109.14 595.22 1108.16 591.68 1108.16C588.13 1108.16 581.13 1107.5 576.11 1106.7C566.08 1105.11 548.71 1105.29 542.83 1107.04C540.77 1107.66 537.48 1108.16 535.53 1108.16C533.57 1108.16 529.95 1109.06 527.47 1110.15C524.99 1111.25 522.12 1112.44 521.09 1112.8C519.86 1113.23 519.21 1114.58 519.21 1116.69C519.21 1119.23 519.94 1120.29 522.62 1121.68C526.47 1123.67 532.28 1123.88 536.74 1122.19C538.39 1121.56 541.44 1121.05 543.5 1121.05C545.57 1121.05 548.32 1120.48 549.61 1119.78C550.9 1119.09 556.78 1118.13 562.69 1117.66C571.27 1116.96 576.01 1117.2 586.31 1118.84C593.39 1119.97 603.05 1121.21 607.78 1121.6C612.5 1121.99 619.73 1122.87 623.84 1123.57C633.33 1125.18 651.24 1124.54 660.65 1122.27ZM871.25 1121.56C872.98 1119.83 871.29 1115.61 868.43 1114.52C867 1113.98 858.14 1113.53 848.74 1113.53L831.65 1113.53L830.98 1116.23C830.14 1119.58 831.93 1121.89 835.72 1122.32C842.86 1123.15 870.24 1122.56 871.25 1121.56ZM766.99 1117.42C768.73 1116.34 768.62 1111.93 766.8 1110.43C765.83 1109.62 758.03 1109.14 743.77 1109.02C724.14 1108.84 722 1109 720.01 1110.81C717.24 1113.31 717.19 1116.59 719.91 1117.59C722.65 1118.6 765.32 1118.45 766.99 1117.42ZM1351.2 1110.86C1351.96 1109.95 1352.24 1108.11 1351.86 1106.59C1351.3 1104.38 1349.88 1103.52 1343.65 1101.63C1336.68 1099.52 1335.57 1099.45 1328.9 1100.78C1324.25 1101.7 1313.47 1102.22 1298.53 1102.24C1279.3 1102.25 1274.75 1101.96 1271.69 1100.51C1265.18 1097.4 1252.81 1093.84 1250.99 1094.53C1249.93 1094.94 1249.23 1096.42 1249.23 1098.26C1249.23 1101.99 1253.28 1105.29 1260.07 1107.11C1262.67 1107.8 1265.47 1108.93 1266.31 1109.61C1267.39 1110.49 1277.02 1110.78 1300.12 1110.61C1317.89 1110.48 1335.32 1110.78 1338.87 1111.27C1348.58 1112.63 1349.76 1112.59 1351.2 1110.86ZM970.65 1109.62C971.83 1109.17 972.26 1107.91 972.04 1105.61L971.71 1102.26L955.86 1101.96L940.01 1101.66L938.98 1104.37C937.76 1107.59 938.49 1109.98 940.94 1110.74C943.23 1111.44 968.37 1110.5 970.65 1109.62ZM1038.81 1104.18C1040.88 1103.33 1047.4 1101.9 1053.3 1101.01C1062.23 1099.65 1066.02 1099.59 1075.85 1100.63C1082.34 1101.32 1089.68 1102.33 1092.16 1102.88C1101.24 1104.88 1123.52 1102.71 1133.82 1098.83C1138.33 1097.12 1139.24 1096.31 1139.54 1093.74C1139.89 1090.74 1139.82 1090.69 1135.78 1091.42C1117.7 1094.67 1104.71 1095.13 1070.48 1093.75C1050.12 1092.92 1048.68 1093 1042.6 1095.15C1037.19 1097.07 1033.76 1097.43 1020.46 1097.43C1003.16 1097.43 1001.34 1098.02 1003.74 1102.83C1004.51 1104.39 1006.35 1105.74 1008.24 1106.13C1013.46 1107.21 1034.74 1105.86 1038.81 1104.18ZM1429.58 1100.65C1429.58 1100.06 1428.89 1099.57 1428.04 1099.57C1427.19 1099.57 1426.19 1100.06 1425.83 1100.65C1425.46 1101.24 1426.16 1101.72 1427.37 1101.72C1428.59 1101.72 1429.58 1101.24 1429.58 1100.65ZM372.5 1096.89C377.12 1096 383.24 1095.28 386.1 1095.28C392.39 1095.28 404.3 1092.41 406.41 1090.39C407.63 1089.21 407.69 1088.37 406.7 1086.19C405.68 1083.96 404.71 1083.47 401.27 1083.47C398.97 1083.47 395.46 1084.14 393.47 1084.96C388.91 1086.82 372.1 1088.2 356.06 1088.01C343.38 1087.86 342.12 1088.25 342.09 1092.38C342.06 1095.34 350 1098.45 357.64 1098.48C361.18 1098.49 367.87 1097.78 372.5 1096.89ZM454.07 1095.39C457.51 1094.96 460.7 1094 461.16 1093.25C461.63 1092.5 465.28 1091.48 469.29 1090.99C474.48 1090.34 477.22 1089.42 478.84 1087.78L481.1 1085.49L478.5 1083.35C475.61 1080.98 470.24 1081.21 457.48 1084.24C453.94 1085.08 447.4 1086.12 442.95 1086.56C438.51 1086.99 434.28 1087.71 433.56 1088.16C431.61 1089.36 431.98 1093.94 434.13 1095.19C436.28 1096.45 444.94 1096.53 454.07 1095.39ZM841.81 1090.49C844.76 1089.6 848.98 1088.86 851.17 1088.85C853.37 1088.84 856.99 1087.92 859.22 1086.8C861.46 1085.67 866.67 1084.45 870.82 1084.07C874.96 1083.7 880.27 1082.7 882.62 1081.87C889.76 1079.33 934.66 1080.11 949.51 1083.03C953.51 1083.82 964.83 1081.74 967.62 1079.7C969.31 1078.46 969.32 1078.17 967.7 1075.7L965.95 1073.03L939.85 1072.22C900.9 1071 885.02 1071.3 880.2 1073.32C877.98 1074.26 872.78 1075.69 868.65 1076.5C864.52 1077.32 858.72 1078.48 855.77 1079.08C852.82 1079.69 842.43 1080.96 832.69 1081.9C822.94 1082.85 814.52 1084.07 813.96 1084.62C812.02 1086.51 814.78 1091.45 818.22 1092.26C822.83 1093.35 835.56 1092.39 841.81 1090.49ZM676.48 1084.06C676.48 1079.99 674.54 1079.42 660.08 1079.28C652.77 1079.21 647.7 1078.62 645.07 1077.52C642.89 1076.6 638.43 1075.42 635.17 1074.88C631.91 1074.35 626.11 1073.15 622.27 1072.22C599.87 1066.78 600.41 1066.83 568.59 1066.83C541.44 1066.83 537.63 1067.04 534.78 1068.7C533 1069.73 530.37 1070.58 528.93 1070.58C526.14 1070.59 520.28 1075.43 520.28 1077.73C520.28 1080.23 524.27 1081.49 528.61 1080.35C530.82 1079.77 538.18 1078.23 544.97 1076.93C556.02 1074.83 559.35 1074.65 576.66 1075.29C588.57 1075.74 598.01 1076.62 601.25 1077.59C604.14 1078.46 608.36 1079.18 610.62 1079.18C612.88 1079.18 617.27 1080.14 620.38 1081.32C623.49 1082.5 627.72 1083.48 629.79 1083.5C631.85 1083.51 636.92 1084.46 641.06 1085.6C646.97 1087.22 651.55 1087.62 662.53 1087.45L676.48 1087.23L676.48 1084.06ZM1427.67 1079.78C1429.61 1078.93 1432.52 1077.95 1434.15 1077.61C1437.61 1076.88 1437.94 1075.41 1434.99 1073.83C1433.52 1073.04 1431.35 1073.06 1427.75 1073.88C1424.86 1074.53 1419.68 1074.74 1415.93 1074.34C1409.21 1073.64 1404.89 1074.26 1404.89 1075.92C1404.89 1076.42 1406.46 1077.82 1408.38 1079.05C1412.59 1081.75 1422.34 1082.12 1427.67 1079.78ZM1245.09 1077.78C1254.68 1076.17 1259.87 1073.58 1259.93 1070.36C1259.99 1067.03 1256.12 1065.97 1248.84 1067.32C1245.22 1068 1232.83 1068.65 1221.31 1068.77C1204.79 1068.93 1198.68 1068.59 1192.33 1067.13C1183.44 1065.1 1174.23 1063.29 1166.03 1061.95C1156.55 1060.42 1122.82 1060.73 1119.54 1062.39C1117.95 1063.2 1114.95 1064.17 1112.88 1064.54C1108.11 1065.42 1102.55 1069.71 1103.74 1071.62C1104.76 1073.28 1116.72 1072.48 1122.63 1070.36C1126.23 1069.08 1142.5 1068.58 1155.29 1069.38C1162.12 1069.8 1173.63 1071.83 1184.28 1074.48C1187.82 1075.37 1195.41 1076.69 1201.14 1077.41C1206.88 1078.14 1211.95 1079.12 1212.42 1079.6C1213.59 1080.79 1233.87 1079.66 1245.09 1077.78ZM770.42 1066.2C773.08 1065.58 779.12 1064.68 783.84 1064.19C792.25 1063.32 798.54 1061.57 807.76 1057.56C810.28 1056.46 813.38 1055.56 814.65 1055.56C815.92 1055.56 817.71 1054.9 818.65 1054.1C819.58 1053.3 822.27 1052.11 824.64 1051.45C827 1050.79 832.38 1049.31 836.61 1048.15C840.83 1046.99 845.18 1045.56 846.27 1044.97C848.15 1043.95 853.38 1042.02 865.43 1037.89C868.38 1036.88 873.06 1035.65 875.83 1035.15C878.59 1034.65 881.97 1033.6 883.34 1032.82C886.62 1030.95 930.94 1031.02 934.46 1032.9C935.74 1033.58 940.78 1034.63 945.66 1035.22C950.54 1035.81 956.36 1037.01 958.58 1037.88C960.81 1038.74 965.67 1039.46 969.38 1039.46C975.76 1039.46 984.09 1041.19 1000.16 1045.86C1009.29 1048.51 1033.09 1050.69 1043.78 1049.86C1065.12 1048.19 1068.67 1047.72 1073.7 1045.9C1076.65 1044.83 1081.72 1043.41 1084.97 1042.75C1099.46 1039.81 1103.91 1038.7 1106.1 1037.51C1107.39 1036.81 1109.57 1036.22 1110.94 1036.2C1112.3 1036.18 1115.35 1035.23 1117.72 1034.09C1120.08 1032.95 1122.88 1032 1123.94 1031.98C1125 1031.96 1127.4 1031.15 1129.27 1030.19C1131.13 1029.22 1135.33 1028.08 1138.61 1027.64C1141.88 1027.21 1147.69 1026 1151.53 1024.96C1160.21 1022.61 1183.03 1023.2 1189.6 1025.95C1191.84 1026.88 1195.42 1027.67 1197.56 1027.69C1199.7 1027.72 1203.39 1028.47 1205.75 1029.36C1225.52 1036.81 1226.91 1037.08 1232.66 1034.61C1240.66 1031.18 1242.84 1030.84 1246.13 1032.54C1247.83 1033.42 1249.23 1034.52 1249.23 1034.99C1249.23 1035.45 1251.6 1036.87 1254.51 1038.14C1259.22 1040.2 1260.63 1040.34 1267.66 1039.43C1288.34 1036.78 1296.48 1035.41 1297.76 1034.36C1298.52 1033.73 1301.56 1032.86 1304.51 1032.43C1307.47 1032 1310.83 1030.99 1312 1030.18C1313.16 1029.38 1315.52 1028.72 1317.24 1028.72C1320.37 1028.72 1327.33 1027.11 1331.35 1025.45C1332.53 1024.97 1336.4 1024.25 1339.94 1023.87C1343.48 1023.48 1349.41 1022.47 1353.1 1021.62C1360.97 1019.82 1401.38 1019.55 1409.19 1021.26C1411.84 1021.84 1417.88 1022.94 1422.6 1023.71C1427.33 1024.47 1432.25 1025.67 1433.54 1026.37C1434.83 1027.07 1436.76 1027.65 1437.83 1027.65C1438.9 1027.66 1441.13 1028.36 1442.78 1029.22C1447.11 1031.48 1452.81 1032.37 1453.7 1030.92C1454.82 1029.11 1447.77 1021.55 1444.08 1020.59C1442.3 1020.14 1437.09 1019.85 1432.49 1019.96C1424.5 1020.16 1423.78 1019.97 1416.79 1015.89L1409.46 1011.61L1395.5 1011.72C1387.83 1011.79 1381.13 1011.58 1380.61 1011.27C1380.09 1010.95 1375.8 1011.08 1371.07 1011.56C1360.26 1012.66 1359.22 1011.95 1360.87 1004.61C1361.5 1001.78 1362.73 998.45 1363.59 997.21C1364.46 995.97 1365.17 994.13 1365.17 993.11C1365.17 992.09 1366.3 989.13 1367.69 986.52C1369.08 983.91 1370.53 980.87 1370.91 979.75C1371.3 978.64 1373.53 974.34 1375.88 970.21C1378.22 966.08 1380.61 961.65 1381.19 960.36C1381.76 959.08 1385.76 952.8 1390.07 946.42C1399.2 932.9 1409.17 921.94 1417.13 916.65C1425.68 910.98 1425.82 910.69 1425.84 898.39C1425.84 892.43 1425.67 886.94 1425.46 886.21C1424.97 884.57 1422.69 884.47 1420.17 885.98C1419.15 886.6 1415.17 887.93 1411.33 888.94C1404.4 890.76 1404.33 890.81 1401.09 897.21C1396.21 906.86 1394.53 909.16 1384.04 920.54C1378.74 926.28 1373.93 931.84 1373.35 932.88C1371.34 936.53 1362.66 943.91 1360.44 943.87C1357.19 943.82 1353.44 940.29 1352.7 936.58C1351.66 931.38 1353.97 926.58 1360.04 921.36C1370.85 912.06 1373.46 908.79 1376.07 901.26C1378.04 895.58 1379.82 892.78 1384.23 888.49C1389.11 883.73 1389.86 882.44 1389.86 878.83C1389.86 874.93 1392.06 867.13 1396.34 855.88C1397.35 853.22 1398.47 848 1398.84 844.29C1399.2 840.57 1400.05 836.49 1400.73 835.23C1401.41 833.96 1402.19 828.79 1402.48 823.74C1402.97 814.96 1402.86 814.41 1400.17 811.53C1396.84 807.96 1389.97 807.24 1386.78 810.12C1383.73 812.89 1380.17 812.17 1374.9 807.73C1369.12 802.86 1364 800.05 1360.89 800.05C1357.71 800.05 1351.36 803.54 1346.74 807.81C1340.46 813.62 1334.85 815.62 1324.94 815.6C1319.07 815.59 1314.68 814.94 1311.19 813.56C1307.08 811.95 1305.53 811.79 1303.41 812.75C1300.04 814.29 1299.9 818.03 1303.17 819.26C1308.76 821.38 1313.52 822.62 1318.52 823.28C1322.03 823.74 1325.48 825.17 1328.68 827.48C1334.65 831.81 1344.19 835.04 1353.24 835.8C1361.98 836.54 1364.27 838.61 1365.15 846.57C1366.76 861.23 1362.38 882.38 1355.44 893.45C1354.88 894.34 1353.92 896.25 1353.3 897.71C1352.12 900.45 1345.15 909.52 1343.2 910.84C1342.59 911.26 1341.12 912.35 1339.94 913.27C1333.58 918.22 1330.75 920.18 1324.75 923.81C1321.12 926.01 1317.6 927.81 1316.92 927.81C1316.25 927.81 1313.81 928.77 1311.49 929.95C1309.18 931.13 1306.16 932.1 1304.8 932.1C1303.43 932.1 1301.33 932.78 1300.15 933.61C1298.96 934.45 1295.22 935.64 1291.85 936.26C1288.48 936.89 1284.88 937.84 1283.84 938.39C1282.81 938.94 1277.62 939.74 1272.31 940.17C1266.99 940.59 1260.71 941.57 1258.35 942.35C1255.99 943.12 1248.74 944.06 1242.25 944.45C1235.75 944.84 1224.64 945.77 1217.56 946.52C1210.47 947.27 1196.94 947.96 1187.5 948.05C1162.48 948.28 1138.5 949.44 1135.51 950.55C1134.08 951.08 1116.93 951.97 1097.4 952.53C1077.87 953.08 1059.23 953.76 1055.99 954.04C1035.5 955.78 968.28 955.28 908.91 952.94C902.71 952.7 867.44 952 830.54 951.4C793.64 950.8 762.23 949.87 760.76 949.32C759.28 948.78 756.63 948.33 754.85 948.32C753.08 948.31 737.39 947.77 719.98 947.13C693.13 946.14 687.83 945.67 685.09 944.07L681.85 942.18L681.56 924.93C681.23 905.67 681.91 902.44 686.69 900.63C689.96 899.4 691 897.78 688.56 897.71C687.82 897.69 685.95 895.63 684.39 893.14L681.57 888.62L680.76 710.41C679.88 516.02 679.96 355.09 680.93 343.26C681.83 332.33 685.58 324.47 689.88 324.47C692.27 324.47 695.49 328.16 698.52 334.37L700.99 339.43L700.14 426.16C698.99 543.35 698.32 763.82 699.1 770.8C699.64 775.69 700.03 776.43 702.06 776.41C703.66 776.39 705.58 774.63 708.15 770.82C710.22 767.76 713.05 764.03 714.44 762.53C715.83 761.02 717.89 758.1 719.01 756.04C721.46 751.56 727.87 742.23 730.15 739.84C731.04 738.91 731.77 737.8 731.77 737.39C731.77 736.98 735.4 731.33 739.82 724.83C744.25 718.34 747.88 712.83 747.88 712.58C747.88 712.33 749.45 709.88 751.37 707.13C753.28 704.39 755.34 701.34 755.93 700.37C756.52 699.4 757.42 698.3 757.92 697.93C758.43 697.56 759.88 695.52 761.14 693.41C765.43 686.24 782.33 661.74 783.9 660.44C784.75 659.73 785.45 658.75 785.45 658.27C785.45 657.78 787.02 655.14 788.94 652.4C790.86 649.66 792.92 646.62 793.52 645.63C796.04 641.5 799.05 637.08 802.86 631.94C805.1 628.94 806.92 625.9 806.92 625.2C806.92 624.5 807.65 623.64 808.53 623.3C809.42 622.96 810.14 622.26 810.14 621.73C810.14 621.2 811.93 618.29 814.11 615.25C816.29 612.21 818.83 608.36 819.75 606.7C822.36 601.97 827.48 594.29 831.88 588.53C834.1 585.63 835.91 583.02 835.91 582.73C835.91 582.44 838.62 578.23 841.93 573.37C845.24 568.5 848.21 563.84 848.53 563C848.85 562.17 850.03 560.45 851.16 559.19C856.36 553.36 861.67 546.47 861.67 545.54C861.67 544.98 863.46 541.99 865.64 538.9C867.82 535.81 870.99 531.22 872.69 528.71C874.39 526.2 876.12 524.15 876.54 524.15C876.96 524.15 877.9 522.82 878.62 521.2C881.75 514.18 889.26 503.05 901.66 487.05C905.06 482.67 907.84 478.66 907.84 478.13C907.84 477.61 908.61 476.53 909.56 475.75C910.51 474.96 911.74 473.33 912.3 472.13C914.62 467.14 917.15 462.75 918.1 462.07C918.98 461.44 922.8 456.03 929.54 445.88C930.56 444.35 932.14 441.77 933.06 440.14C933.98 438.52 935.09 437.19 935.53 437.19C935.97 437.19 937.91 434.41 939.84 431.02C943.79 424.09 948.73 416.43 956.75 404.81C959.74 400.48 964.33 393.79 966.95 389.95C969.57 386.12 972.29 382.49 973.01 381.9C973.72 381.31 974.8 379.62 975.42 378.15C976.9 374.59 978.39 372.31 983.52 365.71C985.88 362.67 989.14 358.06 990.76 355.48C992.38 352.89 995.52 348.05 997.74 344.73C999.96 341.4 1003.65 335.85 1005.94 332.38C1008.23 328.92 1010.41 325.84 1010.79 325.54C1011.16 325.25 1014.56 320.42 1018.34 314.81C1022.12 309.2 1026.7 302.51 1028.52 299.95C1030.34 297.39 1032.33 294.49 1032.94 293.51C1033.89 291.98 1040.84 281.61 1045.65 274.55C1046.46 273.37 1048.98 269.5 1051.26 265.96C1053.54 262.42 1056.02 258.88 1056.77 258.1C1057.52 257.32 1058.13 256.07 1058.13 255.31C1058.13 254.56 1059.1 253.07 1060.28 252C1061.46 250.93 1062.43 249.67 1062.43 249.19C1062.43 248.18 1070.98 235.36 1072.72 233.75C1073.36 233.16 1077.5 227.12 1081.91 220.33C1092.2 204.5 1092.85 203.52 1096.75 198.02C1098.54 195.49 1100 193.04 1100 192.58C1100 192.11 1101.93 189.15 1104.3 185.98C1106.66 182.81 1108.59 179.82 1108.59 179.32C1108.59 178.82 1110.95 175.41 1113.84 171.73C1116.72 168.05 1120.38 162.63 1121.97 159.68C1123.56 156.73 1126.59 152.74 1128.71 150.82C1132.52 147.37 1132.54 147.33 1129.83 147.33C1128.32 147.33 1125.7 148.05 1124.01 148.94C1122.32 149.82 1120.2 150.54 1119.3 150.55C1118.39 150.55 1116.7 151.21 1115.54 152.01C1114.37 152.81 1111.66 153.79 1109.5 154.19C1107.35 154.58 1104.99 155.62 1104.27 156.49C1103.55 157.36 1102.02 158.07 1100.88 158.07C1099.73 158.07 1096.05 159.32 1092.69 160.86C1081.48 165.98 1079.82 166.66 1078.57 166.66C1077.34 166.66 1069.33 169.69 1062.96 172.57C1061.19 173.37 1058.54 174.34 1057.06 174.73C1053.16 175.76 1040.6 180.71 1039.35 181.71C1038.76 182.18 1036.46 182.91 1034.23 183.32C1032.01 183.74 1029.93 184.51 1029.6 185.04C1028.86 186.24 1022.98 188.83 1015.19 191.37C1011.94 192.44 1006.87 194.27 1003.92 195.45C989 201.41 986.42 202.36 982.45 203.38C978.21 204.46 971.05 207.35 965.81 210.09C964.33 210.87 961.45 211.86 959.4 212.29C957.35 212.73 954.94 213.48 954.03 213.96C950.12 216.04 939.68 220.33 938.55 220.33C937.88 220.33 935.64 221.24 933.59 222.34C931.53 223.44 928.17 224.71 926.12 225.16C924.07 225.61 921.66 226.36 920.75 226.82C914.87 229.87 910.09 231.9 907.3 232.54C905.53 232.95 902.63 233.95 900.86 234.75C899.09 235.55 894.74 237.25 891.2 238.52C887.65 239.79 882.97 241.77 880.78 242.93C878.6 244.08 876.18 245.03 875.4 245.03C874.62 245.03 872.18 245.99 869.98 247.17C867.78 248.35 865.25 249.32 864.36 249.32C863.47 249.32 860.94 250.29 858.73 251.47C856.53 252.65 854.24 253.62 853.64 253.62C851.98 253.63 840.56 258.42 838.88 259.81C838.07 260.48 835.26 261.37 832.63 261.78C830.01 262.18 826.9 263.17 825.74 263.97C824.57 264.77 822.64 265.43 821.44 265.43C820.25 265.43 817.82 266.4 816.05 267.57C814.28 268.74 812.1 269.72 811.22 269.75C810.33 269.77 807.67 270.72 805.31 271.86C802.95 273 800.53 273.95 799.94 273.97C799.35 273.99 796.94 274.93 794.58 276.06C792.21 277.19 787.87 279.08 784.91 280.26C781.96 281.44 777.04 283.42 773.98 284.65C770.92 285.88 767.51 286.89 766.41 286.89C765.31 286.89 763.87 287.44 763.21 288.1C761.5 289.8 749.91 294.4 747.3 294.4C746.09 294.41 743.21 295.37 740.9 296.56C738.58 297.74 736 298.7 735.16 298.7C734.32 298.7 732.13 299.6 730.29 300.7C728.45 301.8 724.04 303.78 720.5 305.11C716.96 306.43 712.61 308.13 710.84 308.87C701.67 312.7 695.54 314.81 693.58 314.81C692.37 314.81 690.45 315.52 689.3 316.38C686.52 318.49 681.71 318.46 680.89 316.33C680.54 315.39 680.23 308.27 680.23 300.49C680.22 292.72 679.81 285.73 679.33 284.96C677.7 282.4 675.94 286.24 675.43 293.47C675.16 297.23 674.46 303.94 673.87 308.36C673.28 312.79 672.78 318.94 672.76 322.02C672.73 327.11 672.29 328.11 667.9 333.06C665.24 336.05 663.07 338.98 663.07 339.58C663.07 340.82 659.41 346.07 655.71 350.14C652.76 353.38 646.09 362.89 643.67 367.31C642.75 368.99 639.6 373.45 636.68 377.21C633.76 380.97 628.96 387.67 626.01 392.1C623.07 396.53 620.31 400.31 619.89 400.5C619.46 400.69 617.57 403.55 615.68 406.86C613.79 410.16 611.48 413.7 610.55 414.71C609.61 415.72 607.16 419.05 605.09 422.1C603.03 425.15 597.63 432.65 593.11 438.75C588.59 444.86 584.29 450.97 583.57 452.32C582.85 453.67 581.83 455.28 581.3 455.91C580.77 456.54 578.3 459.81 575.81 463.18C573.32 466.55 569.59 471.56 567.52 474.33C561.07 482.95 554.65 492.44 554.64 493.36C554.64 493.85 551.12 498.68 546.82 504.1C542.52 509.52 537.58 516.12 535.83 518.78C534.09 521.44 530.57 526.23 528.01 529.44C525.45 532.65 522.41 536.99 521.27 539.1C516.75 547.42 508.97 558.39 506.12 560.44C505.05 561.21 504.18 562.54 504.18 563.39C504.18 564.24 502.58 566.75 500.63 568.97C498.68 571.18 495.31 575.65 493.14 578.9C490.96 582.15 487.73 586.88 485.95 589.41C484.17 591.94 482.71 594.45 482.71 594.99C482.71 595.53 482.09 596.36 481.34 596.83C480.59 597.3 476.69 602.61 472.68 608.62C468.67 614.63 464.7 620.12 463.85 620.83C463 621.53 462.31 622.73 462.31 623.49C462.31 624.25 460.38 627.32 458.02 630.3C455.65 633.29 453.72 636.01 453.72 636.35C453.72 637.19 444.91 649.14 444.01 649.52C443.62 649.69 440.21 654.68 436.43 660.61C432.66 666.55 427.51 673.98 425 677.14C422.5 680.3 420.44 683.35 420.44 683.9C420.44 684.46 419.73 685.51 418.86 686.23C417.99 686.96 414.7 691.49 411.55 696.3C408.4 701.11 404.89 706.43 403.74 708.13C402.59 709.83 399.96 713.78 397.9 716.91C391.92 725.95 382.8 739.02 379.2 743.69C375.63 748.32 374.21 750.5 371.47 755.5C370.51 757.27 367.12 761.96 363.94 765.91C360.77 769.86 358.18 773.42 358.18 773.81C358.18 774.2 356.32 776.77 354.06 779.51C351.8 782.24 349.68 785.21 349.35 786.1C349.02 786.98 346.28 790.99 343.26 795C340.25 799.01 337.78 802.66 337.78 803.1C337.78 803.55 334.9 807.75 331.38 812.45C318.62 829.46 314.48 835.29 303.76 851.3C298.91 858.55 296.22 862.29 289.2 871.59C285.81 876.08 283.03 880.26 283.03 880.87C283.03 881.48 281.82 883.56 280.34 885.5C277.5 889.22 277.39 890.05 278.33 900.58C278.8 905.91 279.46 907.69 281.77 909.86C284.87 912.76 292.96 915.36 302.35 916.47C308.75 917.23 319.61 920.45 326.58 923.65C328.98 924.76 331.56 925.66 332.32 925.66C333.07 925.66 334.97 926.3 336.54 927.08C349.3 933.46 364.98 941.83 366.51 943.08C368.06 944.35 373.62 947.5 377.33 949.21C381.37 951.08 394.72 962.43 401.12 969.44C407.89 976.86 410.26 979.97 414.63 987.16C422.91 1000.77 422.84 1000.63 426.47 1009.18C427.3 1011.13 428.55 1017.26 429.25 1022.8C430.94 1036.18 429.96 1040.18 424.2 1043.43C421.84 1044.77 418.35 1045.87 416.45 1045.88C414.56 1045.89 410.93 1046.58 408.4 1047.42C405.87 1048.26 400.42 1049.25 396.29 1049.61C392.15 1049.98 381.91 1051.03 373.51 1051.96C356.2 1053.87 313.17 1053.52 306.67 1051.41C304.61 1050.74 297.01 1049.88 289.79 1049.5C278.13 1048.87 276.57 1048.99 275.96 1050.57C274.59 1054.13 278.22 1057.44 284.32 1058.21C287.45 1058.6 292.41 1059.69 295.34 1060.63C303.35 1063.18 379.57 1063.27 388.24 1060.74C391.48 1059.79 397.68 1058.74 402.02 1058.41C406.35 1058.08 410.54 1057.28 411.33 1056.62C412.12 1055.97 416.55 1055.03 421.17 1054.53C425.79 1054.04 431.36 1052.86 433.56 1051.91C435.75 1050.97 439.24 1050.19 441.3 1050.19C443.37 1050.19 447.51 1049.22 450.5 1048.04C453.5 1046.86 456.96 1045.9 458.21 1045.9C459.45 1045.9 461 1045.23 461.66 1044.43C462.31 1043.62 464.78 1042.45 467.14 1041.84C469.5 1041.23 472.89 1040.22 474.66 1039.59C482.6 1036.81 489.65 1035.07 497.38 1033.99C501.97 1033.36 506.71 1032.3 507.91 1031.66C513.44 1028.68 573.97 1028.41 584.16 1031.32C587.11 1032.17 593.15 1033.59 597.58 1034.48C613.57 1037.7 617.52 1038.68 622.47 1040.66C625.24 1041.77 629.34 1042.69 631.59 1042.71C633.85 1042.73 637.62 1043.68 639.98 1044.82C642.35 1045.96 645.59 1046.91 647.19 1046.93C648.79 1046.95 652.55 1047.94 655.55 1049.12C658.55 1050.3 662.37 1051.26 664.05 1051.26C665.72 1051.26 667.66 1051.94 668.34 1052.76C669.02 1053.59 671.38 1054.59 673.57 1054.99C675.76 1055.39 678.67 1056.43 680.02 1057.3C681.38 1058.18 685 1059.18 688.07 1059.52C691.15 1059.87 695.06 1060.86 696.76 1061.72C698.47 1062.58 703.78 1063.72 708.57 1064.24C713.36 1064.77 719.45 1065.63 722.11 1066.15C728.98 1067.5 764.65 1067.53 770.42 1066.2ZM1308.41 1009.1C1305.03 1005.72 1308.97 991.77 1314.29 988.29C1322.76 982.74 1328.16 997.11 1320.28 1004.21C1315.98 1008.08 1309.89 1010.59 1308.41 1009.1ZM1328.78 979.02C1324.59 976.89 1324.38 976.54 1324.38 971.89C1324.4 965.81 1330.31 955.88 1337.38 950.1C1345.45 943.48 1351.24 943.72 1353.19 950.75C1354.27 954.68 1352.62 963.32 1350.36 965.59C1349.65 966.3 1349.07 967.34 1349.07 967.91C1349.07 970.32 1343.5 975.91 1338.55 978.48L1333.19 981.26L1328.78 979.02ZM623.34 942.29C600.2 941.1 579.16 939.26 554.1 936.23C548.79 935.58 533.08 934.42 519.21 933.64C505.33 932.86 491.57 931.74 488.61 931.15C485.66 930.55 476.96 929.75 469.29 929.36C461.61 928.97 452.6 927.98 449.25 927.15C445.91 926.32 438.66 925.34 433.15 924.95C427.64 924.57 421.19 923.58 418.83 922.76C416.47 921.93 409.71 920.97 403.8 920.62C397.9 920.28 391.86 919.39 390.38 918.66C388.91 917.93 382.9 916.98 377.04 916.55C371.18 916.12 364.6 915.14 362.41 914.37C360.22 913.59 355.61 912.61 352.17 912.18C348.72 911.75 344.43 910.8 342.64 910.07C340.85 909.34 336.98 908.4 334.04 907.97C331.09 907.55 327.37 906.52 325.77 905.69C324.17 904.87 321.5 904.19 319.83 904.19C318.17 904.19 315.13 903.29 313.07 902.2C311.01 901.1 307.46 899.86 305.17 899.44C302.88 899.02 300.23 898.22 299.27 897.67C298.31 897.12 296.19 896.2 294.57 895.63C290.12 894.05 290.53 889.19 295.64 882.86C297.86 880.12 300.15 877.08 300.74 876.11C301.33 875.14 303.3 872.24 305.12 869.67C306.93 867.11 311.21 860.9 314.63 855.88C318.04 850.86 321.75 845.75 322.86 844.54C323.98 843.32 324.9 841.81 324.9 841.18C324.9 840.55 325.59 839.46 326.43 838.76C327.27 838.06 329.15 835.23 330.6 832.46C332.05 829.69 335.22 825.25 337.65 822.6C340.08 819.94 342.07 817.33 342.07 816.8C342.07 816.27 343.65 813.86 345.58 811.44C347.51 809.01 349.81 805.63 350.68 803.91C351.56 802.19 353.6 799.36 355.22 797.62C356.85 795.88 358.18 794.29 358.18 794.08C358.18 793.68 362.94 786.28 364.36 784.49C364.82 783.9 367.61 779.65 370.55 775.06C373.49 770.46 378.06 763.79 380.72 760.22C383.38 756.66 387.1 751.49 389 748.72C394.09 741.31 400.32 732.68 402.46 730.08C403.49 728.82 404.34 727.1 404.34 726.25C404.34 725.4 405.18 723.6 406.22 722.25C407.25 720.89 408.82 718.67 409.71 717.31C410.59 715.95 413.02 712.88 415.11 710.48C417.2 708.08 420.32 703.94 422.06 701.29C424.81 697.08 427.86 692.86 431.05 688.87C431.55 688.24 432.57 686.59 433.32 685.18C434.07 683.78 437.64 678.71 441.25 673.91C452.17 659.41 456.93 652.51 462.67 642.86C463.75 641.04 466.04 637.77 467.77 635.59C469.49 633.41 470.93 631.24 470.97 630.76C471.01 630.28 473.18 627 475.79 623.45C483.4 613.11 487 607.83 487 607C487 606.57 487.97 605.39 489.15 604.38C490.33 603.37 491.3 601.87 491.3 601.05C491.3 600.23 491.99 598.99 492.84 598.28C493.68 597.58 495.42 595 496.7 592.54C498.73 588.65 500.6 585.98 505.33 580.22C505.95 579.47 506.96 577.42 507.57 575.66C508.18 573.9 509.11 572.46 509.62 572.46C510.14 572.46 511.27 571.09 512.14 569.42C513 567.75 515.43 564.24 517.54 561.64C519.65 559.03 521.73 556.41 522.17 555.82C522.61 555.23 524.3 552.96 525.92 550.79C527.54 548.62 528.87 546.54 528.87 546.19C528.87 545.31 532.79 539.77 537.73 533.66C539.94 530.92 541.75 528.34 541.75 527.91C541.75 527.49 542.84 525.81 544.17 524.19C545.5 522.56 547.31 520.13 548.2 518.78C549.08 517.44 550.89 515 552.22 513.38C553.55 511.75 554.64 509.92 554.64 509.31C554.64 508.7 555.24 507.56 555.98 506.78C556.72 506 558.77 503.21 560.54 500.59C566.98 491.05 580.64 473.13 582.11 472.3C582.94 471.82 583.63 470.86 583.63 470.15C583.64 468.47 591.72 455.97 596.81 449.75C599 447.07 600.8 444.44 600.8 443.91C600.8 443.37 603.34 439.49 606.44 435.27C609.54 431.05 613.28 425.57 614.76 423.08C616.23 420.6 620.1 415.13 623.34 410.93C631.4 400.51 634.08 396.66 634.08 395.5C634.08 394.96 634.79 393.92 635.65 393.21C637.12 391.99 643.96 382.46 646.47 378.15C647.08 377.09 648.23 375.45 649.02 374.49C649.82 373.54 651.25 371.31 652.2 369.55C653.16 367.79 657.52 361.74 661.9 356.09C668.67 347.36 670.08 346.05 671.34 347.31C673.22 349.19 675.05 366.28 673.83 370.54C672.68 374.53 671.77 414.7 671.12 489.26C670.85 521.14 670.36 561.97 670.04 579.97C669.72 597.98 669.26 686.74 669.03 777.21C668.79 867.68 668.29 942.2 667.91 942.81C667.09 944.14 657.14 944.02 623.34 942.29ZM1339.07 1059.04C1344.39 1057.43 1345.02 1057.47 1352.91 1059.81C1362.53 1062.67 1375.56 1062.54 1378.86 1059.56C1379.89 1058.63 1382.19 1057.53 1383.96 1057.1C1385.73 1056.68 1387.66 1055.96 1388.25 1055.5C1388.84 1055.04 1392.64 1053.42 1396.7 1051.89C1403.12 1049.48 1405.73 1049.12 1416.86 1049.12C1427.25 1049.12 1429.77 1048.81 1430.27 1047.5C1431.51 1044.28 1426.37 1041.81 1416.77 1041C1406.07 1040.1 1394.59 1042.11 1382.35 1047.02C1376.12 1049.51 1362.35 1051.67 1357 1050.98C1354.7 1050.69 1348.48 1049.86 1343.16 1049.13C1332.45 1047.66 1320.92 1048.16 1318.46 1050.2C1316.29 1052 1316.44 1055.92 1318.76 1058.02C1323.36 1062.18 1327.91 1062.41 1339.07 1059.04ZM1224.06 925.75C1227.57 924.62 1231.65 923.41 1233.12 923.06C1238.34 921.82 1241.04 918.45 1241.11 913.08C1241.17 908.7 1240.82 907.96 1237.95 906.36C1236.18 905.37 1233.3 902.52 1231.55 900.04C1228.61 895.87 1228.38 894.87 1228.61 887.29C1228.8 880.87 1229.31 878.59 1230.93 876.86C1232.39 875.3 1233.1 872.77 1233.33 868.22C1233.65 862 1233.76 861.77 1236.78 861.43C1238.5 861.23 1241.79 861.92 1244.11 862.97C1248.17 864.8 1248.45 864.79 1252.26 862.8C1257.16 860.23 1257.78 859.39 1257.8 855.28C1257.83 849.45 1252.4 845.15 1244.96 845.13C1242.29 845.12 1239.61 844.75 1239 844.32C1237.57 843.29 1233.99 837.84 1232.45 834.32C1230.64 830.2 1224.91 827.96 1216.32 828C1210.96 828.03 1208.39 828.54 1206.82 829.88C1204.03 832.28 1198.77 840.04 1198.77 841.77C1198.77 842.5 1197.44 843.57 1195.82 844.14C1192.97 845.14 1188.03 852.05 1188.04 855.02C1188.05 857.66 1192.87 862.31 1197.1 863.74C1203.59 865.94 1204.33 868.09 1200.03 872.27C1195.3 876.87 1191.25 883.32 1191.26 886.25C1191.26 887.56 1192.23 890.07 1193.4 891.84C1194.57 893.61 1195.54 895.85 1195.54 896.81C1195.54 897.77 1196.27 899.16 1197.16 899.89C1199.63 901.94 1199.12 904.08 1194.95 909.16C1191.58 913.27 1191.17 914.42 1191.46 918.93C1191.76 923.57 1192.14 924.22 1195.55 925.93C1200.85 928.57 1215.58 928.48 1224.06 925.75ZM1316.32 908.81C1323.08 905.47 1327.31 901.85 1327.77 899.04C1328.37 895.41 1322.38 887.32 1315.9 883C1305.78 876.25 1299.21 873.95 1288.41 873.38C1277.41 872.81 1273.75 874.15 1275.91 877.96C1276.56 879.1 1277.81 881.72 1278.7 883.79C1279.59 885.86 1280.79 888.27 1281.37 889.16C1281.95 890.04 1284.84 895.09 1287.78 900.36C1290.73 905.64 1294.25 910.58 1295.61 911.34C1299.16 913.33 1309.81 912.03 1316.32 908.81ZM713.17 895.05C715.3 894.16 719.76 893.14 723.07 892.78C726.38 892.42 730.06 891.53 731.24 890.8C732.42 890.08 737.16 889.15 741.77 888.73C746.38 888.32 751.36 887.52 752.84 886.96C754.33 886.39 759.01 885.4 763.25 884.75C767.49 884.09 771.81 883.11 772.85 882.56C773.88 882.01 777.75 881.14 781.43 880.63C785.12 880.12 790.07 878.95 792.43 878.03C794.79 877.12 798.91 876.35 801.59 876.32C804.27 876.3 809.21 875.31 812.57 874.13C815.93 872.95 819.98 871.98 821.56 871.98C823.15 871.98 826.9 871.28 829.91 870.42C832.91 869.57 840.2 867.81 846.11 866.53C852.01 865.24 859.74 863.45 863.28 862.55C866.83 861.64 873.11 860.61 877.24 860.24C881.37 859.88 885.72 859.04 886.9 858.39C888.08 857.73 891.71 856.85 894.95 856.42C898.2 855.99 902.32 855.04 904.11 854.3C905.9 853.56 910.19 852.61 913.63 852.18C917.08 851.75 921.84 850.71 924.2 849.88C926.57 849.04 930.25 848.34 932.39 848.32C934.53 848.29 938.22 847.51 940.58 846.59C942.94 845.66 948.5 844.24 952.93 843.44C971.68 840.01 978.31 838.65 980.84 837.69C982.31 837.13 986.82 836.19 990.86 835.6C994.89 835 998.77 834.04 999.48 833.45C1000.19 832.86 1003.65 831.91 1007.18 831.34C1010.7 830.76 1014.86 829.8 1016.43 829.19C1018 828.59 1022.35 827.78 1026.09 827.4C1029.84 827.01 1034.84 826.05 1037.2 825.25C1039.56 824.46 1044.6 823.5 1048.4 823.13C1052.2 822.75 1056.55 821.82 1058.07 821.05C1059.58 820.29 1063.92 819.32 1067.72 818.91C1071.52 818.49 1075.61 817.46 1076.82 816.62C1078.02 815.77 1080.71 815.07 1082.8 815.06C1084.88 815.04 1088.51 814.52 1090.88 813.89C1093.24 813.26 1098.39 812.34 1102.33 811.84C1106.26 811.35 1110.95 810.18 1112.74 809.25C1114.53 808.33 1117.48 807.57 1119.3 807.57C1121.11 807.57 1125.35 806.6 1128.71 805.42C1132.07 804.24 1136.36 803.27 1138.25 803.27C1140.14 803.27 1144.74 802.31 1148.48 801.14C1152.23 799.97 1157.46 799 1160.12 798.99C1162.78 798.97 1166.31 798.25 1167.98 797.39C1169.65 796.52 1174.87 795.32 1179.59 794.73C1184.31 794.14 1188.74 793.3 1189.43 792.87C1191.23 791.76 1206.45 788.31 1216.13 786.83C1220.66 786.13 1224.73 785.2 1225.17 784.75C1227.28 782.62 1230.96 784.13 1233.86 788.31C1235.52 790.7 1238.59 794.93 1240.68 797.7C1242.76 800.47 1245.85 805.52 1247.53 808.93C1249.2 812.34 1251.01 815.39 1251.53 815.72C1252.05 816.04 1253.2 817.84 1254.07 819.72C1254.95 821.6 1256.62 824.58 1257.79 826.35C1258.95 828.13 1260.77 831.12 1261.81 833C1274.39 855.63 1278.16 860.58 1281.33 858.62C1283.17 857.49 1282.71 853.8 1280.36 850.8C1279.18 849.3 1278.21 847.24 1278.21 846.23C1278.21 845.22 1276.72 842.33 1274.89 839.8C1273.06 837.28 1271.04 833.71 1270.4 831.86C1269.76 830.01 1267.64 826.21 1265.68 823.41C1263.71 820.61 1262.11 817.66 1262.11 816.85C1262.11 816.04 1261.26 814.22 1260.23 812.8C1258.15 809.96 1256.04 806.41 1253.78 801.93C1252.96 800.31 1251.96 798.98 1251.56 798.98C1250.75 798.98 1246.68 791.48 1244.97 786.85C1244.03 784.26 1244.24 783.47 1246.5 781.21C1248.25 779.46 1250.34 778.58 1252.77 778.58C1254.77 778.58 1259.21 777.62 1262.65 776.43C1266.08 775.25 1270.76 774.29 1273.06 774.29C1275.35 774.29 1279.12 773.32 1281.43 772.14C1283.75 770.96 1286.58 769.99 1287.72 769.99C1289.77 769.99 1296.46 763.39 1296.46 761.37C1296.46 759.87 1300.3 760.09 1301.58 761.67C1302.17 762.41 1303.01 765.19 1303.45 767.85C1303.88 770.5 1304.83 773.88 1305.56 775.36C1306.3 776.84 1307.17 780.48 1307.51 783.46C1307.84 786.44 1308.86 790.3 1309.76 792.05C1310.67 793.79 1311.67 796.54 1312 798.14C1312.64 801.31 1316.1 803.79 1318.55 802.85C1320.6 802.07 1320.52 795.79 1318.42 792.79C1317.51 791.49 1316.49 787.88 1316.15 784.77C1315.81 781.66 1314.81 777.96 1313.92 776.55C1311.93 773.37 1311.68 764.3 1313.52 762.08C1315.3 759.94 1314.14 756.42 1310.99 754.35C1309.45 753.34 1308.02 750.81 1307.23 747.68C1306.54 744.91 1305.58 742.16 1305.12 741.56C1304.65 740.96 1303.94 738.3 1303.53 735.64C1302.82 730.97 1301.82 727.36 1297.44 713.63C1296.31 710.09 1295.37 705.5 1295.35 703.43C1295.33 701.37 1294.38 697.74 1293.24 695.38C1292.1 693.02 1291.15 689.15 1291.13 686.78C1291.11 684.41 1290.13 680.66 1288.95 678.46C1287.77 676.26 1286.8 672.74 1286.8 670.64C1286.8 668.54 1285.88 665.03 1284.75 662.85C1282.71 658.89 1281.39 654.49 1278.87 643.31C1278.14 640.07 1277.03 636.2 1276.42 634.73C1275.8 633.25 1274.96 629.43 1274.55 626.24C1274.14 623.05 1273.17 619.18 1272.4 617.65C1271.63 616.12 1270.71 612.28 1270.35 609.11C1269.99 605.95 1269.24 602.81 1268.68 602.14C1268.12 601.46 1267.1 597.79 1266.41 593.98C1265.72 590.16 1264.47 585.72 1263.63 584.1C1262.79 582.48 1262.11 579.42 1262.11 577.29C1262.11 575.16 1261.45 572.12 1260.64 570.53C1259.84 568.93 1258.84 565.7 1258.42 563.33C1258 560.97 1256.97 556.97 1256.13 554.44C1255.28 551.91 1254.59 548.53 1254.59 546.92C1254.58 545.32 1253.88 542.66 1253.02 541.01C1252.16 539.36 1251.13 536.22 1250.73 534.03C1250.34 531.84 1249.42 528.85 1248.69 527.37C1247.97 525.89 1247.06 521.87 1246.67 518.42C1246.28 514.97 1245.32 510.87 1244.52 509.3C1243.73 507.72 1242.75 504.29 1242.35 501.66C1241.95 499.03 1241.16 496.32 1240.59 495.64C1240.03 494.97 1239.26 492.04 1238.88 489.15C1238.5 486.26 1237.54 482.6 1236.75 481.03C1235.96 479.46 1234.98 475.35 1234.59 471.91C1234.19 468.46 1233.26 464.67 1232.53 463.49C1231.81 462.31 1230.88 459.05 1230.49 456.24C1230.09 453.43 1229.08 449.81 1228.23 448.19C1227.39 446.57 1226.69 444.41 1226.69 443.4C1226.68 442.39 1225.92 439.31 1224.99 436.57C1224.06 433.83 1222.87 429.34 1222.36 426.6C1221.28 420.89 1214.49 394.11 1212.15 386.34C1211.29 383.47 1210.58 380.1 1210.58 378.85C1210.58 377.6 1209.66 374.15 1208.53 371.19C1207.41 368.22 1205.98 363.38 1205.37 360.43C1203.4 350.99 1201.19 342.27 1199.96 339.16C1199.3 337.5 1198.77 334.74 1198.77 333.03C1198.77 331.32 1197.8 327.46 1196.62 324.47C1195.44 321.47 1194.47 317.59 1194.47 315.84C1194.47 314.08 1193.51 310.85 1192.33 308.65C1191.15 306.44 1190.18 303.42 1190.19 301.94C1190.19 300.45 1189.47 297.07 1188.58 294.41C1186.7 288.79 1179.91 261.63 1177.84 251.47C1177.05 247.63 1175.4 241.11 1174.16 236.97C1172.92 232.84 1171.38 226.81 1170.74 223.58C1170.11 220.34 1168.9 216.38 1168.07 214.77C1167.24 213.17 1166.55 210.02 1166.54 207.77C1166.53 205.53 1165.56 201.59 1164.39 199.01C1163.22 196.44 1162.27 193.2 1162.27 191.8C1162.27 190.41 1161.48 186.96 1160.51 184.14C1158.57 178.45 1156.41 169.74 1154.33 159.13C1153.58 155.29 1152.4 151.09 1151.71 149.81C1151.02 148.52 1150.46 146.53 1150.46 145.39C1150.46 141.75 1147.96 140.61 1142.91 141.97C1138.73 143.1 1138.48 143.38 1139.22 146.06C1140.17 149.55 1140.14 156.97 1139.15 163.17C1138.4 167.9 1140.03 169.7 1141.33 165.58C1142.16 162.98 1145.36 162.78 1147.38 165.21C1148.19 166.18 1149.39 169.92 1150.05 173.53C1150.71 177.13 1151.76 181.52 1152.39 183.3C1153.02 185.07 1154 188.93 1154.57 191.88C1155.15 194.84 1156.66 200.88 1157.92 205.3C1159.19 209.73 1160.88 216.5 1161.69 220.33C1162.5 224.17 1164.44 231.18 1166 235.9C1167.56 240.62 1169.29 247.54 1169.85 251.26C1170.41 254.98 1171.59 259.43 1172.47 261.14C1173.35 262.84 1174.08 265.5 1174.08 267.03C1174.08 268.57 1174.74 271.13 1175.54 272.72C1176.35 274.32 1177.34 278.28 1177.75 281.53C1178.16 284.77 1179.13 288.41 1179.91 289.6C1180.69 290.79 1181.68 293.94 1182.12 296.58C1182.56 299.22 1183.32 302.16 1183.82 303.11C1184.32 304.06 1185.23 307.99 1185.84 311.85C1186.46 315.7 1187.68 320.24 1188.56 321.93C1189.45 323.62 1190.17 326.5 1190.17 328.33C1190.18 330.15 1191.15 334.46 1192.33 337.89C1193.51 341.32 1194.47 345.21 1194.47 346.53C1194.47 347.85 1195.43 351.03 1196.6 353.61C1197.77 356.18 1198.73 359.52 1198.75 361.02C1198.76 362.53 1199.28 364.27 1199.9 364.89C1200.52 365.52 1201.48 369.15 1202.02 372.98C1202.56 376.8 1203.74 381.34 1204.64 383.06C1205.54 384.79 1206.27 388.75 1206.28 391.88C1206.28 395.43 1207.09 399.13 1208.43 401.76C1209.61 404.08 1210.58 407.47 1210.58 409.29C1210.58 411.11 1211.26 413.92 1212.08 415.52C1212.91 417.12 1213.93 420.84 1214.35 423.79C1214.78 426.73 1215.76 430.59 1216.53 432.36C1218.23 436.23 1221.22 447.51 1222.48 454.85C1222.99 457.77 1224.09 462.36 1224.95 465.05C1226.92 471.28 1228.67 478.15 1230.01 484.96C1230.59 487.92 1231.77 492.15 1232.63 494.38C1233.49 496.61 1234.2 500.12 1234.2 502.19C1234.2 504.26 1235.16 508.7 1236.34 512.06C1237.52 515.42 1238.51 519.39 1238.53 520.89C1238.55 522.39 1239.5 525.54 1240.64 527.91C1241.78 530.27 1242.73 533.55 1242.75 535.21C1242.77 536.86 1243.46 539.52 1244.28 541.11C1245.11 542.71 1246.14 546.86 1246.57 550.34C1247.01 553.81 1248.02 557.92 1248.83 559.46C1249.63 561 1250.29 563.33 1250.29 564.64C1250.3 565.94 1251.27 569.46 1252.45 572.46C1253.63 575.46 1254.61 579.46 1254.63 581.36C1254.65 583.25 1255.36 586.01 1256.2 587.49C1257.05 588.96 1257.76 591.27 1257.78 592.62C1257.8 593.96 1258.78 597.81 1259.96 601.17C1261.14 604.53 1262.11 609.11 1262.11 611.34C1262.11 613.58 1263.07 617.21 1264.26 619.42C1265.44 621.62 1266.4 625.02 1266.4 626.97C1266.4 628.92 1267.37 632.41 1268.55 634.73C1269.73 637.04 1270.7 640.39 1270.7 642.18C1270.7 643.96 1271.38 647.24 1272.22 649.46C1273.06 651.69 1274.06 655.44 1274.45 657.81C1274.83 660.17 1275.76 663.07 1276.52 664.25C1277.27 665.43 1278.23 669.01 1278.64 672.2C1279.06 675.4 1280.1 679.01 1280.96 680.23C1281.81 681.44 1282.51 683.52 1282.51 684.84C1282.51 686.17 1283.47 689.7 1284.65 692.7C1285.83 695.69 1286.8 699.7 1286.81 701.59C1286.81 703.49 1287.57 706.49 1288.5 708.26C1289.42 710.03 1290.45 713.9 1290.79 716.85C1291.12 719.8 1292.15 723.67 1293.06 725.44C1293.98 727.21 1295.08 731.08 1295.51 734.03C1295.94 736.98 1296.63 741.45 1297.05 743.96C1297.78 748.32 1297.7 748.52 1295.12 748.52C1293.64 748.52 1291.83 747.8 1291.09 746.91C1290.36 746.03 1289.26 745.3 1288.66 745.3C1287.14 745.3 1276.98 738.46 1269.75 732.57C1263.71 727.66 1249.99 713.67 1244.32 706.65C1242.65 704.59 1239.08 700.44 1236.4 697.45C1233.71 694.45 1229.27 689.38 1226.52 686.17C1223.77 682.97 1220.48 679.14 1219.19 677.67C1214.58 672.36 1204.14 658.06 1204.14 657.05C1204.14 656.48 1202.45 653.96 1200.38 651.44C1198.31 648.91 1196.62 646.47 1196.62 646C1196.62 645.53 1194.81 642.51 1192.6 639.29C1185.07 628.34 1180.54 621.31 1179.52 618.99C1178.96 617.72 1177.99 616.37 1177.37 615.98C1176.74 615.59 1174.9 612.53 1173.28 609.17C1171.66 605.81 1168.06 599.37 1165.29 594.86C1162.52 590.36 1159.49 585.04 1158.56 583.06C1157.63 581.07 1156.15 578.23 1155.28 576.75C1152.55 572.15 1147.24 559.98 1147.24 558.36C1147.24 557.51 1146.27 554.91 1145.09 552.6C1143.91 550.28 1142.94 547.88 1142.94 547.26C1142.94 546.63 1141.98 544.32 1140.8 542.12C1139.62 539.92 1138.65 537.17 1138.65 536.03C1138.65 534.88 1138.18 533.65 1137.61 533.29C1137.03 532.94 1136.04 530.61 1135.41 528.13C1134.77 525.65 1133.58 522.16 1132.76 520.39C1130.83 516.21 1128.02 507.57 1126.84 502.14C1126.32 499.78 1125.14 495.73 1124.22 493.15C1123.3 490.57 1122.55 487.28 1122.55 485.85C1122.55 484.42 1121.87 481.94 1121.05 480.35C1120.23 478.75 1119.2 474.07 1118.77 469.93C1118.34 465.8 1117.32 461.12 1116.51 459.52C1115.7 457.93 1115.03 453.68 1115.03 450.09C1115.03 446.5 1114.28 441.77 1113.36 439.57C1112.44 437.38 1111.43 431.47 1111.11 426.46C1110.8 421.44 1109.86 413.85 1109.03 409.59C1108.2 405.34 1107.52 396.4 1107.53 389.73C1107.54 383.06 1106.72 368.11 1105.72 356.51C1104.15 338.5 1104.07 333.32 1105.18 321.08C1105.89 313.2 1106.96 296.37 1107.56 283.67C1108.22 269.64 1109.22 258.91 1110.12 256.3C1110.94 253.94 1111.88 249.36 1112.22 246.13C1112.56 242.9 1113.55 238.07 1114.42 235.39C1115.29 232.72 1116.78 228.12 1117.74 225.16C1118.69 222.21 1119.96 217.41 1120.56 214.49C1121.16 211.57 1122.33 208.2 1123.17 207C1124.01 205.8 1124.69 203.94 1124.69 202.85C1124.69 200.89 1127.26 194.1 1131.41 185.09C1132.8 182.09 1133.18 180.08 1132.51 179.41C1131.28 178.18 1125.24 185.68 1114.71 201.52C1112.47 204.89 1110.17 208.21 1109.6 208.89C1106.57 212.52 1101.13 220.44 1098.44 225.16C1096.75 228.12 1093.51 232.77 1091.25 235.51C1088.98 238.25 1087.12 240.95 1087.12 241.52C1087.12 242.08 1086.15 243.42 1084.97 244.49C1083.79 245.56 1082.83 247.01 1082.83 247.71C1082.83 248.41 1081.86 249.86 1080.68 250.93C1079.5 252 1078.53 253.45 1078.53 254.15C1078.53 254.85 1077.56 256.3 1076.38 257.37C1075.2 258.44 1074.24 259.75 1074.24 260.28C1074.24 260.81 1071.56 264.86 1068.28 269.29C1065.01 273.72 1061.79 278.52 1061.13 279.97C1060.48 281.42 1059.58 282.6 1059.15 282.6C1058.72 282.6 1058.08 283.72 1057.74 285.09C1057.4 286.46 1055.41 289.82 1053.33 292.54C1051.25 295.27 1049.54 297.75 1049.54 298.06C1049.54 298.37 1048.08 300.7 1046.29 303.23C1040.95 310.76 1037.36 315.93 1034.52 320.17C1033.04 322.38 1030.38 326.25 1028.61 328.77C1026.84 331.3 1024.9 334.14 1024.31 335.09C1023.71 336.04 1020.82 340.44 1017.88 344.87C1011.37 354.65 1010.96 355.3 1008.04 360.55C1006.76 362.85 1004.23 366.38 1002.4 368.41C1000.58 370.43 999.09 372.65 999.09 373.34C999.09 374.03 998.12 375.47 996.94 376.54C995.76 377.6 994.79 378.97 994.79 379.56C994.79 380.16 994.05 381.41 993.14 382.35C991.69 383.85 988.19 388.87 982.98 396.93C982.1 398.3 978.6 403.53 975.2 408.54C971.81 413.56 969.03 418.15 969.03 418.75C969.03 419.35 968.65 420 968.2 420.19C967.74 420.39 964.86 424.42 961.78 429.14C958.71 433.86 954.62 439.61 952.68 441.9C950.75 444.2 948.98 446.61 948.76 447.27C948.53 447.93 947.61 449.31 946.71 450.35C944.98 452.33 943.17 455.27 940.93 459.74C940.18 461.21 937.99 464.4 936.05 466.82C934.11 469.25 932.53 471.69 932.53 472.25C932.53 472.81 931.44 474.77 930.11 476.6C927.12 480.73 925.85 482.61 921.93 488.72C915.08 499.4 913.03 502.41 908.39 508.58C905.73 512.13 903.09 515.99 902.52 517.17C901.95 518.35 899.54 521.98 897.17 525.22C890.48 534.4 882.07 546.81 882.07 547.51C882.07 548.54 872.37 562.56 870.71 563.95C869.87 564.64 869.19 565.61 869.19 566.11C869.19 566.61 867.73 569.09 865.95 571.62C854.03 588.57 845.01 602.02 843.79 604.67C843.37 605.55 840.59 609.81 837.59 614.14C834.6 618.46 831.66 622.81 831.07 623.8C828.15 628.68 799.42 671.51 795.3 677.13C792.7 680.67 790.17 684.62 789.68 685.91C788.74 688.36 778.59 704.07 774.79 708.97C773.57 710.54 772.57 712.29 772.57 712.86C772.57 713.44 771.79 714.55 770.85 715.33C769.9 716.12 768.69 717.75 768.16 718.96C766.9 721.86 765.04 724.76 762.1 728.47C760.77 730.14 759.69 732.09 759.69 732.8C759.69 733.51 758.84 734.85 757.81 735.77C756.77 736.7 755.34 738.37 754.61 739.5C753.89 740.62 751.11 744.78 748.44 748.74C745.77 752.7 743.58 756.29 743.58 756.71C743.58 757.13 742.78 758.36 741.8 759.45C740.82 760.53 739.49 762.31 738.85 763.41C738.2 764.5 736.26 767.52 734.52 770.11C732.78 772.7 727.82 780.2 723.48 786.78C719.15 793.36 714.41 800.02 712.95 801.6C711.49 803.17 710.3 805.08 710.3 805.85C710.3 806.61 709.34 808.11 708.15 809.18C706.97 810.25 706.01 811.55 706.01 812.07C706.01 812.59 705.08 814.33 703.94 815.93C700.34 821 699.39 834.33 700.72 860.96C701.88 884 701.85 884.79 699.66 889.72C698.43 892.52 697.42 895.22 697.42 895.74C697.42 897.29 709.02 896.79 713.17 895.05ZM719.49 882.81C718.3 880.89 720.31 878.31 726.06 874.37C729.27 872.17 733.07 869.74 734.5 868.98C735.93 868.21 739.64 865.92 742.73 863.88C745.83 861.84 749.01 860.17 749.8 860.17C750.58 860.17 755.33 858.24 760.35 855.88C765.37 853.52 769.87 851.58 770.35 851.58C771.26 851.58 779.36 848.31 784.91 845.69C790.5 843.07 796.55 840.7 801.78 839.11C804.56 838.26 807.12 837.1 807.48 836.53C807.83 835.95 809.33 835.48 810.8 835.48C812.27 835.48 815.02 834.66 816.91 833.67C822.1 830.92 833.95 826.91 836.98 826.86C838.46 826.84 841.6 825.89 843.96 824.74C846.32 823.6 849.12 822.65 850.19 822.63C851.25 822.61 853.42 821.92 855.02 821.1C856.61 820.28 860.81 819.12 864.36 818.53C867.9 817.94 872.25 816.94 874.02 816.29C875.79 815.65 880.62 814.22 884.75 813.1C888.89 811.99 894.44 810.49 897.1 809.78C899.76 809.06 904.35 807.97 907.3 807.36C910.25 806.75 914.6 805.59 916.96 804.78C919.32 803.97 923.67 803.01 926.62 802.65C929.58 802.29 933.92 801.35 936.28 800.56C938.65 799.76 943.7 798.81 947.51 798.43C951.32 798.06 956.09 797.06 958.11 796.22C960.13 795.37 962.94 794.68 964.36 794.68C965.77 794.68 969.68 793.72 973.04 792.54C976.4 791.36 981.49 790.39 984.34 790.39C987.2 790.39 990.99 789.63 992.78 788.71C994.57 787.79 999.49 786.78 1003.73 786.47C1007.97 786.15 1014.21 784.98 1017.61 783.85C1021.06 782.71 1026.77 781.8 1030.54 781.8C1034.25 781.8 1039.92 781.12 1043.15 780.28C1046.37 779.44 1052.63 778.41 1057.06 777.98C1061.49 777.56 1066.32 776.76 1067.8 776.2C1069.27 775.65 1074.34 774.73 1079.07 774.17C1083.79 773.61 1090.31 772.68 1093.56 772.11C1096.81 771.54 1106.47 770.62 1115.03 770.08C1123.59 769.53 1135.19 768.35 1140.8 767.45C1161.04 764.22 1239.03 764.16 1247.4 767.38C1248.61 767.84 1249.22 768.98 1249.01 770.4C1248.76 772.18 1247.63 772.86 1243.86 773.51C1241.2 773.98 1236.85 775.03 1234.2 775.85C1231.54 776.67 1226.95 777.66 1224 778.05C1221.05 778.44 1216.94 779.28 1214.87 779.92C1210.8 781.18 1200.65 783.42 1191.25 785.14C1188.01 785.74 1182.69 786.99 1179.44 787.93C1176.2 788.87 1170.4 790.24 1166.56 790.97C1148.8 794.38 1140.97 796.07 1136.5 797.47C1133.85 798.31 1129.88 798.99 1127.68 798.98C1125.49 798.98 1121.63 799.66 1119.1 800.49C1116.56 801.33 1111.35 802.35 1107.52 802.76C1103.68 803.18 1099.62 804 1098.51 804.59C1097.39 805.18 1093.14 806.08 1089.06 806.59C1084.98 807.1 1080.59 808.26 1079.31 809.16C1078.03 810.05 1074.93 810.79 1072.42 810.79C1069.92 810.79 1065.8 811.47 1063.27 812.29C1060.74 813.12 1055.86 814.13 1052.42 814.53C1048.98 814.93 1044.64 815.88 1042.76 816.64C1040.88 817.4 1036.69 818.36 1033.44 818.77C1030.19 819.18 1025.36 820.16 1022.71 820.94C1020.05 821.73 1014.98 822.86 1011.43 823.45C1007.89 824.05 1003.06 825.05 1000.7 825.69C998.34 826.32 993.92 826.85 990.88 826.87C987.73 826.88 983.36 827.8 980.69 829.01C978.11 830.18 974.3 831.15 972.21 831.16C970.12 831.17 965.67 832.15 962.31 833.33C958.95 834.51 954.26 835.48 951.9 835.48C949.54 835.48 945.78 836.16 943.55 837C941.33 837.84 937.09 838.81 934.14 839.17C931.19 839.52 926.84 840.5 924.48 841.35C922.11 842.2 917.86 842.92 915.02 842.95C912.19 842.97 907.84 843.9 905.36 845C902.88 846.1 898.15 847.31 894.85 847.67C891.54 848.04 886.77 849.07 884.25 849.96C881.72 850.85 878.14 851.58 876.3 851.58C874.45 851.58 869.56 852.55 865.43 853.73C861.3 854.91 856.37 855.88 854.47 855.88C852.57 855.88 848.85 856.61 846.2 857.51C841.08 859.25 829.07 861.74 817.75 863.41C813.96 863.97 808.88 865.13 806.47 865.98C804.06 866.84 799.58 867.83 796.52 868.18C793.45 868.53 789.24 869.53 787.16 870.4C785.08 871.27 781.77 871.98 779.81 871.98C777.85 871.98 773.5 872.95 770.14 874.13C766.78 875.31 762.59 876.27 760.82 876.27C759.06 876.27 755.54 876.96 753.01 877.79C750.48 878.62 745.28 879.65 741.46 880.07C737.63 880.49 732.62 881.5 730.32 882.31C725.52 884.01 720.37 884.24 719.49 882.81ZM1260.42 892.84C1261.35 891.91 1262.11 889.51 1262.11 887.51C1262.11 883.15 1259.91 881.64 1253.59 881.64C1251.18 881.64 1247.42 880.68 1245.21 879.5C1238.18 875.73 1235.62 877.26 1236.97 884.43C1237.75 888.56 1242.89 893.03 1247.69 893.74C1254.65 894.77 1258.78 894.48 1260.42 892.84ZM1340.48 881.05C1340.48 878.37 1339.77 874.8 1338.9 873.12C1338.03 871.44 1336.85 867.48 1336.26 864.32C1334.49 854.73 1331.46 844.62 1329.45 841.58C1327.29 838.31 1324.45 837.77 1324.22 840.58C1323.85 845.25 1324.59 851.36 1325.94 854.8C1327.37 858.47 1329.84 867.71 1331.93 877.27C1333.11 882.66 1335.59 885.94 1338.5 885.94C1340.13 885.94 1340.48 885.08 1340.48 881.05ZM1136.5 173.57C1136.5 172.01 1136.04 171.11 1135.43 171.49C1134.84 171.85 1134.36 173.09 1134.36 174.23C1134.36 175.38 1134.84 176.32 1135.43 176.32C1136.02 176.32 1136.5 175.08 1136.5 173.57Z" />
</svg>