<?xml version="1.0" encoding="UTF-8" standalone="no"?>
<svg
   xmlns:dc="http://purl.org/dc/elements/1.1/"
   xmlns:cc="http://creativecommons.org/ns#"
   xmlns:rdf="http://www.w3.org/1999/02/22-rdf-syntax-ns#"
   xmlns:svg="http://www.w3.org/2000/svg"
   xmlns="http://www.w3.org/2000/svg"
   xmlns:sodipodi="http://sodipodi.sourceforge.net/DTD/sodipodi-0.dtd"
   xmlns:inkscape="http://www.inkscape.org/namespaces/inkscape"
   width="215.545pt"
   version="1.1"
   height="212.828pt"
   viewBox="0 0 215.545 212.828"
   id="svg29"
   sodipodi:docname="Parti Amanah Negara Logo.svg"
   inkscape:version="0.92.2 (5c3e80d, 2017-08-06)">
  <metadata
     id="metadata33">
    <rdf:RDF>
      <cc:Work
         rdf:about="">
        <dc:format>image/svg+xml</dc:format>
        <dc:type
           rdf:resource="http://purl.org/dc/dcmitype/StillImage" />
        <dc:title>Logo of Parti Amanah Negara</dc:title>
      </cc:Work>
    </rdf:RDF>
  </metadata>
  <sodipodi:namedview
     pagecolor="#ffffff"
     bordercolor="#666666"
     borderopacity="1"
     objecttolerance="10"
     gridtolerance="10"
     guidetolerance="10"
     inkscape:pageopacity="0"
     inkscape:pageshadow="2"
     inkscape:window-width="1600"
     inkscape:window-height="838"
     id="namedview31"
     showgrid="false"
     inkscape:zoom="0.83165748"
     inkscape:cx="143.69667"
     inkscape:cy="141.88534"
     inkscape:window-x="-8"
     inkscape:window-y="-8"
     inkscape:window-maximized="1"
     inkscape:current-layer="svg29" />
  <title
     id="title2">Logo of Parti Amanah Negara</title>
  <defs
     id="defs7">
    <clipPath
       id="Clip0">
      <path
         d="M0 0 L209.607 0 L209.607 41.289 L0 41.289 L0 0 Z"
         transform="translate(2.5088, 171.539)"
         id="path4" />
    </clipPath>
  </defs>
  <g
     id="svg7487">
    <g
       id="Group1"
       clip-path="url(#Clip0)">
      <path
         style="fill:#1d1d1b; fill-rule:nonzero;stroke:none;"
         d="M11.7969 28.6894 L9.0479 38.5976 L0 38.5976 L11.7969 0 L23.25 0 L35.2188 38.5976 L25.8272 38.5976 L22.8491 28.6894 L11.7969 28.6894 Z M21.5894 22.1621 L19.1841 13.9726 C18.4971 11.6816 17.8096 8.8183 17.2368 6.5273 L17.1226 6.5273 C16.5498 8.8183 15.9771 11.7402 15.3472 13.9726 L13.0567 22.1621 L21.5894 22.1621 Z"
         transform="translate(2.5088, 173.602)"
         id="path9" />
      <path
         style="fill:#1d1d1b; fill-rule:nonzero;stroke:none;"
         d="M0.229 9.5625 C0.229 6.0703 0.1148 3.0918 0 0.6289 L7.3301 0.6289 L7.731 4.4082 L7.9029 4.4082 C9.1055 2.6328 11.5679 0 16.378 0 C19.9859 0 22.8492 1.832 24.0518 4.7519 L24.1665 4.7519 C25.1973 3.3203 26.4571 2.1758 27.774 1.373 C29.3204 0.457 31.0381 0 33.1001 0 C38.483 0 42.5489 3.7793 42.5489 12.1406 L42.5489 28.6328 L34.0733 28.6328 L34.0733 13.4004 C34.0733 9.334 32.7564 6.9863 29.9502 6.9863 C27.9458 6.9863 26.5142 8.3594 25.9414 10.0215 C25.7124 10.6504 25.5982 11.5664 25.5982 12.2539 L25.5982 28.6328 L17.1226 28.6328 L17.1226 12.9414 C17.1226 9.3906 15.8628 6.9863 13.1138 6.9863 C10.8804 6.9863 9.5635 8.7031 9.0479 10.1348 C8.7618 10.8223 8.7046 11.625 8.7046 12.3105 L8.7046 28.6328 L0.229 28.6328 L0.229 9.5625 Z"
         transform="translate(42.0249, 183.566)"
         id="path11" />
      <path
         style="fill:#1d1d1b; fill-rule:nonzero;stroke:none;"
         d="M17.7524 28.6328 L17.2378 25.8262 L17.0659 25.8262 C15.2329 28.0605 12.3696 29.2617 9.0483 29.2617 C3.3789 29.2617 0 25.1387 0 20.6719 C0 13.4004 6.5283 9.9062 16.435 9.9629 L16.435 9.5625 C16.435 8.0742 15.6343 5.9551 11.3388 5.9551 C8.4756 5.9551 5.4404 6.9277 3.6079 8.0742 L2.0044 2.4609 C3.9516 1.373 7.7881 0 12.8843 0 C22.2192 0 25.1968 5.4961 25.1968 12.082 L25.1968 21.8184 C25.1968 24.5098 25.312 27.0859 25.5981 28.6328 L17.7524 28.6328 Z M16.7221 15.4043 C12.1401 15.3457 8.5898 16.4355 8.5898 19.8125 C8.5898 22.0469 10.0791 23.1348 12.0259 23.1348 C14.2026 23.1348 15.978 21.7031 16.5503 19.9277 C16.6645 19.4707 16.7221 18.9551 16.7221 18.4394 L16.7221 15.4043 Z"
         transform="translate(89.6734, 183.566)"
         id="path13" />
      <path
         style="fill:#1d1d1b; fill-rule:nonzero;stroke:none;"
         d="M0.2295 9.5625 C0.2295 6.0703 0.1142 3.0918 0 0.6289 L7.5595 0.6289 L7.9599 4.4668 L8.1318 4.4668 C9.2773 2.6914 12.1406 0 16.7783 0 C22.5058 0 26.8007 3.7793 26.8007 12.0254 L26.8007 28.6328 L18.0966 28.6328 L18.0966 13.1133 C18.0966 9.5059 16.8369 7.043 13.6865 7.043 C11.2812 7.043 9.8496 8.7031 9.2773 10.3066 C9.0478 10.8223 8.9336 11.6816 8.9336 12.4824 L8.9336 28.6328 L0.2295 28.6328 L0.2295 9.5625 Z"
         transform="translate(121.516, 183.566)"
         id="path15" />
      <path
         style="fill:#1d1d1b; fill-rule:nonzero;stroke:none;"
         d="M17.7529 28.6328 L17.2373 25.8262 L17.0654 25.8262 C15.2334 28.0605 12.3701 29.2617 9.0478 29.2617 C3.3789 29.2617 0 25.1387 0 20.6719 C0 13.4004 6.5283 9.9062 16.4355 9.9629 L16.4355 9.5625 C16.4355 8.0742 15.6338 5.9551 11.3389 5.9551 C8.4756 5.9551 5.4404 6.9277 3.6084 8.0742 L2.0049 2.4609 C3.9521 1.373 7.7881 0 12.8848 0 C22.2197 0 25.1973 5.4961 25.1973 12.082 L25.1973 21.8184 C25.1973 24.5098 25.3115 27.0859 25.5986 28.6328 L17.7529 28.6328 Z M16.7217 15.4043 C12.1406 15.3457 8.5898 16.4355 8.5898 19.8125 C8.5898 22.0469 10.0791 23.1348 12.0264 23.1348 C14.2021 23.1348 15.9775 21.7031 16.5498 19.9277 C16.665 19.4707 16.7217 18.9551 16.7217 18.4394 L16.7217 15.4043 Z"
         transform="translate(153.473, 183.566)"
         id="path17" />
      <path
         style="fill:#1d1d1b; fill-rule:nonzero;stroke:none;"
         d="M0 0 L8.7051 0 L8.7051 15.9785 L8.8193 15.9785 C9.7363 14.7753 10.8808 13.8593 12.2558 13.1152 C13.5156 12.4277 15.1758 12.0273 16.7793 12.0273 C22.334 12.0273 26.5723 15.8632 26.5723 24.2812 L26.5723 40.6601 L17.8672 40.6601 L17.8672 25.2558 C17.8672 21.5898 16.6074 19.0703 13.3437 19.0703 C11.0527 19.0703 9.6211 20.5585 8.9912 22.1054 C8.7617 22.6777 8.7051 23.4218 8.7051 24.0527 L8.7051 40.6601 L0 40.6601 L0 0 Z"
         transform="translate(185.544, 171.539)"
         id="path19" />
    </g>
    <path
       style="fill:#f7921f; fill-rule:nonzero;stroke:none;"
       d="M143.966 84.3437 L100.662 21.0058 C100.662 21.0058 52.9981 0 0 26.1757 L28.9224 57.6836 C28.9224 57.6836 73.6797 30.0537 143.966 84.3437 Z"
       transform="translate(71.5791, 90.9678)"
       id="path22" />
    <path
       style="fill:#f7921f; fill-rule:nonzero;stroke:none;"
       d="M165.456 59.461 L137.664 17.2891 C137.664 17.2891 63.6617 0 0 137.018 C0 137.018 56.7139 23.752 165.456 59.461 Z"
       transform="translate(0, 38.1318)"
       id="path24" />
    <path
       style="fill:#f7921f; fill-rule:nonzero;stroke:none;"
       d="M72.8721 42.6562 L44.919 0 L0 75.457 C0 75.457 28.1148 47.665 72.8721 42.6562 Z"
       transform="translate(57.5215, 0)"
       id="path26" />
  </g>
</svg>
