<svg xmlns="http://www.w3.org/2000/svg" viewBox="0 0 216 216" width="216" height="216">
	<style>
		tspan { white-space:pre }
		.shp0 { fill: #e20010 } 
		.shp1 { fill: #ffffff } 
	</style>
	<path id="Latar" class="shp0" d="M0 0L216 0L216 216L0 216L0 0Z" />
	<path id="Lencana" fill-rule="evenodd" class="shp1" d="M173.01 122.55C164.15 125.7 151.55 125.88 139.38 124.9C149.79 130.5 159.81 137.2 165.3 144.38C180.09 163.68 177.82 181.34 165.33 190.48C152.85 199.62 134.88 196.79 120.09 177.49C114.24 169.84 110.34 157.52 107.77 145.44C105.21 157.52 101.31 169.84 95.45 177.49C80.66 196.79 62.69 199.62 50.21 190.48C37.73 181.34 35.46 163.68 50.24 144.38C55.74 137.2 65.76 130.5 76.17 124.9C63.99 125.88 51.4 125.7 42.53 122.55C19.36 114.29 11.37 98.3 16.7 83.97C22.04 69.64 38.67 62.39 61.85 70.64C70.93 73.88 80.95 81.96 89.79 90.6C84.23 79.16 79.54 66.6 79.54 56.77C79.54 32.65 92.18 19.85 107.78 19.85C122.29 19.85 134.25 29.13 135.84 50.09C135.96 51.66 134.59 58.34 125.57 70.61C127.52 65.32 127.41 60.09 127.41 55.75C127.41 38.99 118.63 30.09 107.78 30.09C96.94 30.09 88.15 38.99 88.15 55.75C88.15 72.51 107.95 101.53 108.25 101.06C108.25 101.06 118.69 86.25 123.21 80.32C123.23 80.3 123.23 80.28 123.25 80.26C141.87 57.28 146.03 36.08 139.64 10.05C139.64 10.05 161.36 45.55 125.89 90.35L125.89 90.36C125.85 90.43 125.82 90.5 125.78 90.57C134.62 81.95 144.62 73.87 153.7 70.64C176.88 62.39 193.51 69.64 198.84 83.97C204.18 98.3 196.19 114.29 173.01 122.55L173.01 122.55ZM44.5 114.28C60.61 120.02 95.45 111.99 95.45 111.99C95.45 111.99 74.03 83.94 57.92 78.21C41.82 72.48 30.26 77.51 26.55 87.46C22.84 97.43 28.39 108.55 44.5 114.28ZM87.93 173.25C98.21 159.84 100.45 124.91 100.45 124.91C100.45 124.91 66.79 136.83 56.52 150.24C46.24 163.66 47.82 175.93 56.49 182.29C65.17 188.64 77.66 186.67 87.93 173.25ZM159.03 150.24C148.76 136.83 115.1 124.91 115.1 124.91C115.1 124.91 117.34 159.84 127.61 173.25C137.89 186.67 150.38 188.64 159.06 182.29C167.73 175.93 169.31 163.66 159.03 150.24L159.03 150.24ZM120.09 111.99C120.09 111.99 154.94 120.02 171.05 114.28C187.16 108.55 192.71 97.43 189 87.46C185.29 77.51 173.73 72.48 157.62 78.21C141.51 83.94 120.09 111.99 120.09 111.99Z" />
</svg>