<?xml version="1.0" encoding="UTF-8" standalone="no"?>
<!-- Created with Inkscape (http://www.inkscape.org/) -->

<svg
   xmlns:dc="http://purl.org/dc/elements/1.1/"
   xmlns:cc="http://creativecommons.org/ns#"
   xmlns:rdf="http://www.w3.org/1999/02/22-rdf-syntax-ns#"
   xmlns:svg="http://www.w3.org/2000/svg"
   xmlns="http://www.w3.org/2000/svg"
   xmlns:sodipodi="http://sodipodi.sourceforge.net/DTD/sodipodi-0.dtd"
   xmlns:inkscape="http://www.inkscape.org/namespaces/inkscape"
   width="853.33331"
   height="426.66666"
   id="svg2"
   version="1.1"
   inkscape:version="0.92.2 (5c3e80d, 2017-08-06)"
   sodipodi:docname="Flag of the Communist Party of Malaya.svg">
  <defs
     id="defs4" />
  <sodipodi:namedview
     id="base"
     pagecolor="#ffffff"
     bordercolor="#666666"
     borderopacity="1.0"
     inkscape:pageopacity="0.0"
     inkscape:pageshadow="2"
     inkscape:zoom="0.9899495"
     inkscape:cx="642.42159"
     inkscape:cy="151.12165"
     inkscape:document-units="px"
     inkscape:current-layer="layer1"
     showgrid="false"
     inkscape:window-width="1600"
     inkscape:window-height="838"
     inkscape:window-x="-8"
     inkscape:window-y="-8"
     inkscape:window-maximized="1"
     fit-margin-top="0"
     fit-margin-left="0"
     fit-margin-right="0"
     fit-margin-bottom="0" />
  <metadata
     id="metadata7">
    <rdf:RDF>
      <cc:Work
         rdf:about="">
        <dc:format>image/svg+xml</dc:format>
        <dc:type
           rdf:resource="http://purl.org/dc/dcmitype/StillImage" />
        <dc:title></dc:title>
      </cc:Work>
    </rdf:RDF>
  </metadata>
  <g
     inkscape:label="Layer 1"
     inkscape:groupmode="layer"
     id="layer1"
     transform="translate(33.52381,-320.99586)">
    <g
       id="g22">
      <rect
         y="320.99588"
         x="-33.523811"
         height="426.66666"
         width="853.33331"
         id="rect2985"
         style="fill:#cc0000;fill-opacity:1;stroke:none;stroke-width:1.06666672" />
      <g
         id="g154"
         transform="matrix(1.3595812,0,0,1.443166,-17.564931,361.71063)">
        <path
           inkscape:connector-curvature="0"
           d="m 92.238391,7.4457401 c 17.073669,0.112992 33.061469,13.6802469 35.174789,30.7695369 1.77157,9.10827 -1.2986,18.141442 -5.95236,25.857824 2.09533,2.157972 4.20668,4.302984 6.34576,6.421036 -2.95161,2.972416 -5.9018,5.945742 -8.87401,8.89723 -2.11713,-2.157566 -4.25252,-4.293756 -6.42034,-6.397064 -8.65899,5.45197 -19.366113,7.913946 -29.443459,5.55954 -7.477484,-1.340314 -13.805064,-5.880344 -19.562238,-10.58535 -4.174496,3.62059 -8.381138,7.203756 -12.552946,10.827654 -2.063194,-2.451182 -4.148504,-4.879864 -6.196958,-7.340794 5.977962,-5.388472 11.937474,-10.831234 18.347226,-15.70698 6.92405,6.813926 16.14578,11.304328 25.943982,11.559906 5.06268,0.671206 9.934274,-1.30649 14.470213,-3.283364 -8.006151,-8.114802 -16.298753,-15.94496 -24.202379,-24.163542 -2.40895,2.333162 -4.799238,4.68491 -7.202118,7.024084 -3.306798,-3.434902 -6.707934,-6.775494 -10.02413,-10.199968 6.288728,-5.32407 11.445928,-11.898232 17.760526,-17.148916 3.972444,-0.43091 8.353892,-0.05413 11.683076,-2.840134 1.910096,1.83566 3.793796,3.699268 5.655544,5.58631 -3.000378,2.848588 -6.056246,5.639864 -8.958846,8.589172 8.013414,8.129434 16.059657,16.228406 24.227577,24.203542 6.5654,-12.397442 2.63833,-28.168604 -6.72789,-38.023954 -3.66562,-4.257775 -8.684503,-6.881559 -13.491019,-9.6057689 z m 0,0"
           id="path16"
           style="fill:#ffd700;stroke-width:0.2" />
      </g>
    </g>
  </g>
</svg>
