<?xml version="1.0" encoding="UTF-8" standalone="no"?>
<svg
   xmlns:dc="http://purl.org/dc/elements/1.1/"
   xmlns:cc="http://creativecommons.org/ns#"
   xmlns:rdf="http://www.w3.org/1999/02/22-rdf-syntax-ns#"
   xmlns:svg="http://www.w3.org/2000/svg"
   xmlns="http://www.w3.org/2000/svg"
   xmlns:sodipodi="http://sodipodi.sourceforge.net/DTD/sodipodi-0.dtd"
   xmlns:inkscape="http://www.inkscape.org/namespaces/inkscape"
   version="1.1"
   height="569.70551"
   width="250"
   id="svg2"
   inkscape:version="0.48.4 r9939"
   sodipodi:docname="Democratic_Action_Party_Logo.svg">
  <metadata
     id="metadata54">
    <rdf:RDF>
      <cc:Work
         rdf:about="">
        <dc:format>image/svg+xml</dc:format>
        <dc:type
           rdf:resource="http://purl.org/dc/dcmitype/StillImage" />
      </cc:Work>
    </rdf:RDF>
  </metadata>
  <defs
     id="defs52" />
  <sodipodi:namedview
     pagecolor="#ffffff"
     bordercolor="#666666"
     borderopacity="1"
     objecttolerance="10"
     gridtolerance="10"
     guidetolerance="10"
     inkscape:pageopacity="0"
     inkscape:pageshadow="2"
     inkscape:window-width="1600"
     inkscape:window-height="877"
     id="namedview50"
     showgrid="false"
     fit-margin-top="0"
     fit-margin-left="0"
     fit-margin-right="0"
     fit-margin-bottom="0"
     inkscape:zoom="1.9922574"
     inkscape:cx="75"
     inkscape:cy="692.74291"
     inkscape:window-x="-8"
     inkscape:window-y="-8"
     inkscape:window-maximized="1"
     inkscape:current-layer="g4" />
  <g
     transform="translate(-221.016,-223.1326)"
     id="g4">
    <g
       id="g3027"
       transform="matrix(1.6666667,0,0,1.6666667,-147.34401,-146.24541)">
      <path
         id="path6"
         d="m 318.468,484.1298 v 29.6715 l 46.524,19.2738 -46.524,-48.945 z"
         inkscape:connector-curvature="0"
         style="fill:#e21118" />
      <path
         id="path8"
         d="m 274.878,483.7398 0.093,29.805 -47.064,19.5699 46.971,-49.374 z"
         inkscape:connector-curvature="0"
         style="fill:#e21118" />
      <g
         transform="matrix(3,0,0,3,-442.032,-1126.9002)"
         id="g10"
         style="fill:#155fa9">
        <path
           id="path12"
           d="m 242.73,554.26 -2.3918,-0.002 v -5.6816 l 2.3918,-0.002 v 5.6854 z"
           inkscape:connector-curvature="0" />
        <path
           id="path14"
           d="m 246.01,554.26 -2.415,-0.002 v -5.6835 l 2.415,0.002 v 5.6835 z"
           inkscape:connector-curvature="0" />
        <path
           id="path16"
           d="m 249,554.26 h -2.3609 v -5.6835 L 249,548.5745 v 5.6854 z"
           inkscape:connector-curvature="0" />
        <path
           id="path18"
           d="m 252.23,554.26 h -2.4112 l -0.002,-5.6854 2.4131,0.002 v 5.6835 z"
           inkscape:connector-curvature="0" />
      </g>
      <g
         transform="matrix(3,0,0,3,-442.032,-1126.9002)"
         id="g20"
         style="fill:#e21118">
        <path
           id="path22"
           d="m 242.73,558.34 h -2.4034 v -3.1504 h 2.4034 v 3.1504 z"
           inkscape:connector-curvature="0" />
        <path
           id="path24"
           d="m 246.01,558.34 h -2.4015 v -3.1523 l 2.4034,0.002 -0.002,3.1504 z"
           inkscape:connector-curvature="0" />
        <path
           id="path26"
           d="m 249.03,558.34 h -2.4131 v -3.1523 l 2.4092,0.002 0.004,3.1504 z"
           inkscape:connector-curvature="0" />
        <path
           id="path28"
           d="m 252.23,558.35 -2.4112,-0.0116 v -3.1504 h 2.4112 v 3.162 z"
           inkscape:connector-curvature="0" />
        <path
           id="path30"
           d="m 242.72,561.27 h -2.3899 l 0.004,-2.0009 2.3841,0.004 0.002,1.9971 z"
           inkscape:connector-curvature="0" />
        <path
           id="path32"
           d="m 246,561.27 h -2.4034 l 0.008,-2.0009 2.3938,0.004 0.002,1.9971 z"
           inkscape:connector-curvature="0" />
        <path
           id="path34"
           d="m 249.08,561.27 h -2.3357 l 0.004,-2.0009 h 2.328 l 0.004,2.0009 z"
           inkscape:connector-curvature="0" />
        <path
           id="path36"
           d="m 252.17,561.27 h -2.3551 l 0.002,-2.0009 2.3492,0.004 0.004,1.9971 z"
           inkscape:connector-curvature="0" />
        <path
           id="path38"
           d="m 242.73,563.45 h -2.4034 l -0.002,-1.3759 h 2.4054 v 1.3759 z"
           inkscape:connector-curvature="0" />
        <path
           id="path40"
           d="m 246,563.44 -2.3938,0.002 -0.008,-1.3798 2.4015,0.004 v 1.374 z"
           inkscape:connector-curvature="0" />
        <path
           id="path42"
           d="m 249.05,563.45 -2.4054,-0.002 0.004,-1.3817 2.4054,0.004 -0.004,1.3798 z"
           inkscape:connector-curvature="0" />
        <path
           id="path44"
           d="m 252.23,563.45 -2.4131,-0.002 0.002,-1.3739 2.4112,-0.008 v 1.3836 z"
           inkscape:connector-curvature="0" />
      </g>
      <path
         id="path46"
         d="m 295.998,323.1198 c -41.34,0 -74.976,33.648 -74.982,74.982 0.006,35.424 32.046,75.036 74.988,75.024 43.494,0 75.012,-31.557 75.012,-75.012 0,-41.346 -33.672,-74.994 -75.018,-74.994 m 55.767,74.982 c -0.012,32.841 -22.9719,55.779 -55.761,55.779 -31.401,0 -55.743,-29.979 -55.743,-55.779 -0.018,-30.717 25.0212,-55.749 55.743,-55.767 30.723,0.024 55.749,25.056 55.761,55.767"
         inkscape:connector-curvature="0"
         style="fill:#155fa9" />
      <path
         id="path48"
         d="m 296.418,221.6298 18.0723,101.187 v 191.997 l -35.298,-0.012 v -192.096 l 17.2245,-101.079 z"
         inkscape:connector-curvature="0"
         style="fill:#e21118" />
    </g>
  </g>
</svg>
