<?xml version="1.0" encoding="UTF-8" standalone="no"?>
<!-- Created with Inkscape (http://www.inkscape.org/) -->

<svg
   xmlns:dc="http://purl.org/dc/elements/1.1/"
   xmlns:cc="http://creativecommons.org/ns#"
   xmlns:rdf="http://www.w3.org/1999/02/22-rdf-syntax-ns#"
   xmlns:svg="http://www.w3.org/2000/svg"
   xmlns="http://www.w3.org/2000/svg"
   xmlns:sodipodi="http://sodipodi.sourceforge.net/DTD/sodipodi-0.dtd"
   xmlns:inkscape="http://www.inkscape.org/namespaces/inkscape"
   version="1.1"
   id="svg307"
   width="800"
   height="800"
   viewBox="0 0 800 800"
   sodipodi:docname="Parti Gerakan Rakyat Malaysia Logo.svg"
   inkscape:version="0.92.2 (5c3e80d, 2017-08-06)">
  <metadata
     id="metadata313">
    <rdf:RDF>
      <cc:Work
         rdf:about="">
        <dc:format>image/svg+xml</dc:format>
        <dc:type
           rdf:resource="http://purl.org/dc/dcmitype/StillImage" />
        <dc:title></dc:title>
      </cc:Work>
    </rdf:RDF>
  </metadata>
  <defs
     id="defs311" />
  <sodipodi:namedview
     pagecolor="#ffffff"
     bordercolor="#666666"
     borderopacity="1"
     objecttolerance="10"
     gridtolerance="10"
     guidetolerance="10"
     inkscape:pageopacity="0"
     inkscape:pageshadow="2"
     inkscape:window-width="1366"
     inkscape:window-height="705"
     id="namedview309"
     showgrid="false"
     inkscape:zoom="0.59"
     inkscape:cx="440.38851"
     inkscape:cy="377.50569"
     inkscape:window-x="-8"
     inkscape:window-y="-8"
     inkscape:window-maximized="1"
     inkscape:current-layer="svg307" />
  <g
     id="g1850">
    <rect
       y="0"
       x="0"
       height="800"
       width="800"
       id="rect1374"
       style="fill:#ec313a;fill-opacity:1;stroke:none;stroke-width:5;stroke-miterlimit:4;stroke-dasharray:none;stroke-opacity:1" />
    <g
       style="stroke-width:0.38808927"
       id="g1289"
       transform="matrix(2.5501998,0,0,2.6035296,-565.8669,41.717757)">
      <path
         sodipodi:type="star"
         style="fill:#ffffff;fill-opacity:1;stroke:none;stroke-width:2.96876931;stroke-miterlimit:4;stroke-dasharray:none;stroke-opacity:1"
         id="path754"
         sodipodi:sides="3"
         sodipodi:cx="379.59772"
         sodipodi:cy="249.03059"
         sodipodi:r1="238.82268"
         sodipodi:r2="119.41134"
         sodipodi:arg1="-1.5707963"
         sodipodi:arg2="-0.52359878"
         inkscape:flatsided="false"
         inkscape:rounded="0"
         inkscape:randomized="0"
         d="m 379.59772,10.207916 103.41325,179.117004 103.41325,179.11702 -206.8265,-10e-6 -206.82651,0 103.41325,-179.11701 z"
         inkscape:transform-center-y="-38.756312"
         transform="matrix(0.65814787,0,0,0.64912281,129.24255,7.961468)" />
      <path
         transform="matrix(0.57205178,0,0,0.57894737,161.92443,25.437299)"
         inkscape:transform-center-y="-34.566441"
         d="m 379.59772,10.207916 103.41325,179.117004 103.41325,179.11702 -206.8265,-10e-6 -206.82651,0 103.41325,-179.11701 z"
         inkscape:randomized="0"
         inkscape:rounded="0"
         inkscape:flatsided="false"
         sodipodi:arg2="-0.52359878"
         sodipodi:arg1="-1.5707963"
         sodipodi:r2="119.41134"
         sodipodi:r1="238.82268"
         sodipodi:cy="249.03059"
         sodipodi:cx="379.59772"
         sodipodi:sides="3"
         id="path1033"
         style="fill:#16a959;fill-opacity:1;stroke:none;stroke-width:3.37182021;stroke-miterlimit:4;stroke-dasharray:none;stroke-opacity:1"
         sodipodi:type="star"
         inkscape:transform-center-x="-1.0442968e-006" />
      <g
         transform="matrix(0.63815953,0,0,0.66842406,318.79952,92.264638)"
         id="g305"
         style="stroke-width:0.59421134">
        <path
           inkscape:connector-curvature="0"
           id="path164"
           d="m 93.41531,185.76468 c -0.666526,-0.36931 -2.601817,-1.34771 -4.300649,-2.17424 -1.698832,-0.82652 -3.435557,-1.91541 -3.859387,-2.41974 -0.423829,-0.50434 -0.949695,-6.13951 -1.168588,-12.5226 -0.333267,-9.71827 -0.647738,-11.94748 -1.933728,-13.70778 -0.952235,-1.30345 -1.710561,-4.07907 -1.995854,-7.30523 -0.271402,-3.06907 -1.291822,-6.92712 -2.48796,-9.40659 -1.115315,-2.31194 -2.027846,-4.75065 -2.027846,-5.41936 0,-0.66869 -0.278225,-1.21582 -0.618278,-1.21582 -0.340052,0 -1.263902,-1.8178 -2.052998,-4.03955 -0.789096,-2.22175 -1.783329,-4.03954 -2.209406,-4.03954 -0.426077,0 -0.774685,-0.51938 -0.774685,-1.15416 0,-0.63479 -0.608137,-1.76229 -1.351415,-2.50557 -1.116222,-1.11622 -2.34651,-1.26401 -7.069209,-0.84915 -6.130448,0.53852 -7.336842,0.14981 -8.861194,-2.85515 -0.697014,-1.37402 -1.54538,-1.86057 -2.956597,-1.69563 -5.668603,0.66251 -10.773813,0.44954 -11.077703,-0.46213 -0.37074,-1.11222 -5.52421,-1.3502 -6.18224,-0.28549 -0.23643,0.38256 -2.73284,0.88042 -5.54757,1.10636 -4.12165,0.33084 -5.58037,0.84026 -7.49493,2.61741 -3.08624,2.86475 -6.42283,4.56966 -7.86213,4.01735 -0.96221,-0.36924 -2.1216696,-4.14771 -3.3978296,-11.07295 -0.14656,-0.79536 0.45377,-1.80774 1.35936,-2.29241 1.6151496,-0.86439 1.6148496,-0.87288 -0.0729,-2.055 -0.93209,-0.65287 -1.69471,-1.48428 -1.69471,-1.84758 0,-0.98823 5.2413296,-6.519014 6.1778296,-6.519014 1.07114,0 4.32499,-3.49105 4.32499,-4.640269 0,-0.495297 2.09047,-1.333366 4.64548,-1.862385 3.25984,-0.674944 5.31028,-1.655957 6.87426,-3.28892 3.22788,-3.370236 6.46026,-3.127013 12.23889,0.920928 l 4.63667,3.247999 1.364575,-1.685186 c 1.572975,-1.942538 2.859249,-1.591679 9.019789,2.460375 1.999576,1.315204 4.544491,2.764635 5.655367,3.22095 3.818959,1.568718 6.86982,3.470018 8.299788,5.172432 1.783183,2.12292 5.434676,9.81584 5.434676,11.4497 0,0.6673 0.545339,1.42255 1.211864,1.67831 0.666526,0.25578 1.215218,0.88059 1.219317,1.38849 0.0041,0.5079 1.630279,2.74125 3.613734,4.963 3.695256,4.13921 4.919291,3.63387 2.543347,-1.05001 -1.740391,-3.43096 -4.368219,-11.54297 -4.959618,-15.31016 -0.296468,-1.88849 -0.870636,-3.43361 -1.275929,-3.43361 -0.405293,0 -0.748459,-0.81801 -0.76259,-1.817804 -0.01413,-0.999786 -0.559471,-2.523512 -1.211864,-3.386052 -0.652395,-0.862541 -1.186171,-2.241093 -1.186171,-3.06344 0,-2.610316 -2.659782,-4.586649 -6.706025,-4.982888 -2.09207,-0.20487 -4.668114,-1.052383 -5.724539,-1.883368 -1.056426,-0.830984 -3.508884,-1.988981 -5.449907,-2.573326 -6.43369,-1.936862 -7.767159,-2.589874 -10.254534,-5.021746 -2.34574,-2.293396 -2.62149,-2.364685 -5.64394,-1.459136 -3.74983,1.123478 -7.66195,0.142798 -10.69218,-2.680288 -1.62702,-1.5158 -2.66506,-1.745958 -6.89371,-1.528496 -3.75024,0.192861 -5.90105,-0.164365 -8.71915,-1.448154 -5.28186,-2.406165 -4.99071,-3.438587 2.70339,-9.58646 1.83055,-1.462681 1.90733,-1.77325 0.90253,-3.650732 -1.34183,-2.507237 -0.677,-4.584783 1.46717,-4.584783 0.87643,0 1.80247,-0.338115 2.05787,-0.751367 0.2554,-0.413251 2.45812,-1.000468 4.89492,-1.304927 4.74965,-0.593429 8.47053,0.850368 8.47053,3.286783 0,0.656282 0.36356,1.193239 0.80791,1.193239 0.44435,0 0.80791,-1.242723 0.80791,-2.761607 0,-6.88582 2.89478,-6.650225 10.409165,0.847163 3.934884,3.925984 5.706717,5.146083 7.473164,5.146083 1.931168,0 2.315414,-0.335184 2.315414,-2.019774 0,-1.529769 0.422504,-2.019774 1.741538,-2.019774 0.957845,0 2.933164,0.908898 4.389597,2.019774 1.456433,1.110876 2.880066,2.019774 3.163629,2.019774 0.909444,0 2.593816,2.041931 3.162573,3.833925 0.303529,0.956334 1.351282,1.988167 2.32834,2.292962 0.977059,0.304794 2.043573,0.95962 2.370031,1.455168 0.334118,0.507173 0.598969,5.02e-4 0.605933,-1.159173 0.0068,-1.133094 -0.414038,-2.486579 -0.935205,-3.007746 -0.724829,-0.724829 -0.724829,-1.436455 0,-3.02728 1.158078,-2.541708 1.246953,-8.186566 0.139666,-8.870907 -1.493135,-0.922808 -0.825506,-3.586813 1.237682,-4.938667 1.858239,-1.217565 1.932234,-1.465583 0.80791,-2.707946 -0.680725,-0.752193 -1.237682,-1.793446 -1.237682,-2.313896 0,-0.520449 -0.363559,-0.946271 -0.80791,-0.946271 -0.449158,0 -0.807909,-2.160199 -0.807909,-4.864779 0,-4.405085 0.190857,-4.951738 2.019774,-5.785049 1.779838,-0.810948 2.019774,-1.422456 2.019774,-5.147654 0,-4.315301 0.665655,-5.203921 3.903647,-5.211196 0.852721,-0.0019 1.910281,-1.411486 2.87922,-3.837572 1.461927,-3.660455 4.949168,-8.2780448 6.251656,-8.2780448 0.951879,0 6.355308,8.4856638 6.355308,9.9805148 0,0.846815 0.670686,1.33022 1.845581,1.33022 2.847681,0 4.773171,4.02283 4.968611,10.380735 0.0909,2.955427 0.63943,6.251753 1.21907,7.32517 0.73902,1.368578 0.88668,3.420263 0.49425,6.867232 -0.30781,2.70356 -0.51183,7.334052 -0.45339,10.28998 0.0601,3.039836 -0.2667,5.604907 -0.75231,5.905026 -0.47219,0.291834 -0.85854,2.784291 -0.85854,5.538792 0,5.225466 -2.42082,11.328741 -5.759138,14.519737 -1.087188,1.039206 -1.521933,2.628265 -1.547228,5.655367 -0.01931,2.31553 -0.335525,5.763009 -0.702607,7.661072 -0.745603,3.855215 0.308121,5.595881 1.127939,1.863265 0.286889,-1.30622 1.043593,-2.808148 1.681559,-3.337612 0.637966,-0.529463 1.159932,-1.350897 1.159932,-1.825423 0,-0.474518 1.648783,-4.184994 3.663953,-8.245497 2.01517,-4.060504 3.85435,-8.444904 4.08707,-9.743113 0.23271,-1.298208 0.94707,-3.416024 1.58746,-4.706256 0.64039,-1.290233 1.16434,-2.75585 1.16434,-3.25693 0,-0.501078 2.20993,-3.081026 4.91095,-5.733218 4.76825,-4.682046 4.94692,-4.775215 6.14875,-3.206349 1.20093,1.56769 1.39034,1.465414 6.35911,-3.433615 5.54317,-5.465379 8.44226,-6.437922 10.07832,-3.380919 0.88633,1.656136 0.9138,1.652626 3.70055,-0.472935 2.66462,-2.032399 2.90859,-2.075277 4.79083,-0.841982 1.09079,0.714707 1.98324,1.654647 1.98324,2.088754 0,1.262434 1.8539,0.883107 4.03955,-0.826534 1.44252,-1.128354 3.30128,-1.585025 6.50367,-1.597855 6.4935,-0.02602 7.83253,2.018656 5.09709,7.783165 -1.29169,2.722018 -1.27727,2.82911 0.56036,4.161646 2.66555,1.932909 2.67318,1.940804 4.2086,4.355063 2.09141,3.288477 0.74205,5.139423 -4.90328,6.72594 -1.02525,0.288125 -2.18422,1.365879 -2.57549,2.395008 -0.905,2.380313 -5.72469,3.317822 -10.47745,2.038036 -2.55269,-0.687368 -3.6644,-0.67883 -4.5242,0.03475 -0.62695,0.520322 -1.61495,0.76375 -2.19556,0.540952 -0.5806,-0.222799 -2.46794,0.281866 -4.19409,1.121478 -1.72615,0.839609 -4.22648,1.526564 -5.55628,1.526564 -1.32981,0 -3.02801,0.552201 -3.77378,1.227113 -0.85199,0.771043 -4.09769,1.480105 -8.73294,1.90782 -6.93529,0.63995 -9.83213,1.673261 -9.83213,3.507147 0,0.433875 -0.51015,1.934487 -1.13366,3.334692 -1.10717,2.486341 -4.11044,10.843851 -6.06171,16.868501 -0.53652,1.65656 -1.27107,4.74681 -1.63233,6.86723 -0.36125,2.12041 -0.93188,4.58241 -1.26805,5.47111 -0.33617,0.8887 1.07073,-0.89211 3.12645,-3.95736 2.05571,-3.06524 3.73766,-5.85253 3.73766,-6.19397 0,-0.34143 0.30922,-0.74198 0.68716,-0.8901 0.96398,-0.37779 4.6054,-6.324478 5.35945,-8.752352 0.87446,-2.815533 9.42983,-11.004195 13.09852,-12.537074 5.73126,-2.394674 19.29646,-2.895588 20.92187,-0.772569 0.68263,0.891604 2.1012,1.040108 6.24191,0.653442 5.9778,-0.558215 7.82104,0.258209 7.82104,3.464165 0,1.684803 0.37644,1.92085 3.06342,1.92085 2.55232,0 3.64439,0.591963 6.54552,3.547999 2.56237,2.610865 3.34904,3.967232 2.97833,5.135227 -0.38073,1.199585 0.18002,2.055783 2.29601,3.505682 4.19304,2.87311 4.93151,6.67383 1.59232,8.19527 -1.93317,0.8808 -2.07575,1.27782 -1.73445,4.82967 0.50097,5.21377 -0.43784,5.9107 -6.21921,4.61689 -2.46532,-0.55171 -4.4824,-1.29235 -4.4824,-1.64586 0,-0.3535 -1.36334,-0.86439 -3.02966,-1.1353 -1.66631,-0.27091 -4.4115,-1.18782 -6.10041,-2.03757 -2.48286,-1.24921 -3.36548,-1.36094 -4.61018,-0.58361 -1.22885,0.76743 -2.34128,0.67305 -5.51402,-0.46786 -2.74263,-0.98625 -5.92412,-1.37764 -10.26445,-1.26276 l -6.28989,0.16648 -3.59783,-3.80791 c -2.02209,-2.14016 -4.07384,-3.62525 -4.68469,-3.39084 -1.26553,0.48562 -5.76059,6.44114 -7.07955,9.37969 -0.49861,1.11088 -1.11261,2.20155 -1.36443,2.42373 -3.31938,2.92853 -11.38805,36.51158 -11.30682,47.06073 0.009,1.22197 -0.34646,2.22176 -0.79081,2.22176 -0.49147,0 -0.80791,3.61605 -0.80791,9.23232 0,9.01154 -0.0509,9.27236 -2.128723,10.90678 -2.240196,1.76214 -3.940514,2.02158 -5.950367,0.90796 z M 84.765736,78.706576 c -0.797113,-1.090341 -1.91963,-2.174354 -2.494482,-2.408919 -1.543045,-0.629627 -0.683829,5.319355 1.603037,11.099 l 1.865877,4.715671 0.237432,-5.711654 c 0.186394,-4.483869 -0.07411,-6.137809 -1.211864,-7.694098 z"
           style="fill:#000000;fill-opacity:1;stroke:none;stroke-width:2.97105718;stroke-miterlimit:4;stroke-dasharray:none;stroke-opacity:1" />
        <g
           id="g238"
           style="stroke-width:0.59421134">
          <path
             style="fill:#ffdd55;fill-opacity:1;stroke:none;stroke-width:2.97105718;stroke-miterlimit:4;stroke-dasharray:none;stroke-opacity:1"
             d="M 90.558709,96.181148 V 79.119577 L 88.602241,77.1316 C 87.526184,76.038212 86.641573,74.860058 86.636439,74.513479 86.631305,74.1669 85.431382,72.682776 83.969942,71.215425 82.223859,69.462277 81.312296,68.269257 81.311367,67.735977 81.310589,67.289631 81.069841,66.8323 80.77637,66.719685 80.474312,66.603774 80.242788,66.073826 80.242788,65.49834 c 0,-0.652526 -0.254784,-1.152947 -0.711443,-1.397343 -1.012076,-0.541647 -0.923588,-2.166735 0.174134,-3.197991 0.804002,-0.755321 0.943262,-0.781817 1.511816,-0.287645 0.344432,0.299371 1.066445,0.648898 1.604473,0.776726 0.538029,0.127828 0.978234,0.455102 0.978234,0.727276 0,0.568058 2.663026,4.063828 3.625066,4.758645 0.353975,0.255653 0.643591,0.852883 0.643591,1.327178 0,0.647262 0.243998,0.920326 0.978234,1.09477 0.538029,0.127828 1.218346,0.436149 1.511816,0.685157 1.002798,0.850871 2.042091,0.73699 3.176418,-0.348056 0.600731,-0.574633 1.097321,-1.375006 1.103533,-1.778607 0.0062,-0.403602 0.549483,-1.269155 1.207267,-1.923452 0.657785,-0.654297 1.288999,-1.654764 1.402698,-2.223259 0.173534,-0.867667 0.379499,-1.033628 1.282783,-1.033628 h 1.076057 v 2.422061 c 0,1.57894 -0.181802,2.662425 -0.522269,3.112562 -0.287248,0.379776 -0.52736,1.191339 -0.533582,1.803474 -0.0086,0.843398 -0.447821,1.570647 -1.813489,3.002536 -0.991197,1.039259 -2.012599,2.37928 -2.269782,2.977823 -0.257183,0.598544 -0.965333,1.587459 -1.573665,2.19759 l -1.106058,1.10933 -0.09244,16.849783 c -0.08626,15.72228 -0.134099,16.8578 -0.714956,16.96961 -0.585882,0.11279 -0.622512,-0.88412 -0.622512,-16.941732 z"
             id="path22"
             inkscape:connector-curvature="0" />
          <path
             style="fill:#ffdd55;fill-opacity:1;stroke:none;stroke-width:2.97105718;stroke-miterlimit:4;stroke-dasharray:none;stroke-opacity:1"
             d="m 94.160231,132.86066 -1.111472,-0.9753 v -7.90684 c 0,-7.15705 0.05897,-7.93984 0.621807,-8.25483 0.5421,-0.30337 0.638067,-1.06941 0.748652,-5.97601 0.09783,-4.34067 0.240386,-5.69309 0.623218,-5.91249 0.648913,-1.1483 1.037596,-2.39692 1.907557,-3.2823 0.776151,-0.777334 1.41645,-1.748695 1.422886,-2.158575 3.216061,-7.124734 7.433601,-14.987854 10.683341,-21.28322 0,-0.344022 0.32015,-1.032498 0.71144,-1.529947 0.45754,-0.581659 0.71145,-1.443085 0.71145,-2.413671 0,-0.907565 0.21271,-1.685755 0.53358,-1.952052 0.29347,-0.243559 0.5371,-0.943476 0.54139,-1.555372 0.004,-0.611896 0.32445,-1.810337 0.71145,-2.663201 0.38699,-0.852864 0.70363,-1.841897 0.70363,-2.19785 0,-0.355953 0.21899,-0.866181 0.48665,-1.133839 0.26766,-0.267658 0.58755,-0.799335 0.71087,-1.181503 0.3518,-1.090259 3.35574,-4.074206 4.1015,-4.074206 0.93936,0 1.0038,0.390753 0.77376,4.692024 -0.19982,3.736199 -0.2236,3.820759 -1.35947,4.833969 -0.64462,0.575004 -1.1561,1.379126 -1.1561,1.817556 0,0.749001 0.0993,0.775072 2.09305,0.549505 1.76377,-0.199548 2.20239,-0.132374 2.78806,0.426988 0.38225,0.365084 0.99307,0.836243 1.35738,1.047019 0.36431,0.210776 0.99056,0.823547 1.39167,1.361712 0.7202,0.966286 0.72069,0.984788 0.0388,1.484308 -0.51513,0.37736 -1.89287,0.505825 -5.42475,0.505825 h -4.73425 l -2.13433,2.134329 c -2.40702,4.701817 -8.87142,15.062038 -8.89303,20.300042 -0.46815,3.442059 -2.37504,6.422149 -2.66895,9.235179 -0.14014,1.39541 -0.460834,2.6283 -0.745019,2.86415 -0.401526,0.33324 -0.498968,2.00278 -0.498968,8.54913 0,7.74978 -0.03369,8.15606 -0.711443,8.57933 -0.391294,0.24436 -0.711443,0.82075 -0.711443,1.28086 0,0.46011 -0.320149,1.24356 -0.711443,1.74101 -0.391293,0.49745 -0.711443,1.42353 -0.711443,2.05795 0,1.80006 -0.757939,2.1592 -2.09002,0.99032 z"
             id="path36"
             inkscape:connector-curvature="0"
             sodipodi:nodetypes="ccscscccccscccsscsscsscsssscccccscscscc" />
          <path
             style="fill:#ffdd55;fill-opacity:1;stroke:none;stroke-width:2.97105718;stroke-miterlimit:4;stroke-dasharray:none;stroke-opacity:1"
             d="m 96.911816,159.65161 c -0.51655,-0.45508 -1.290345,-1.61056 -1.719546,-2.56774 -1.114842,-6.47745 -2.080586,-13.09789 1.283663,-20.09967 0.550352,-0.82362 0.776605,-1.81657 1.197204,-2.62823 3.892533,-9.64366 9.096733,-20.37489 14.762443,-28.05276 0.29347,-0.11262 0.53358,-0.50085 0.53358,-0.86275 0.5159,-1.86662 2.79286,-2.70459 2.93045,-4.17904 -0.0995,-0.52043 0.054,-1.15975 0.36297,-1.511817 0.29445,-0.335527 0.64053,-0.955761 0.76907,-1.378298 0.43,-0.82508 0.98571,-1.519523 1.27333,-2.323602 0,-0.981532 8.91039,-9.891979 9.89191,-9.891979 1.55645,0 1.96518,2.70378 0.77973,5.15796 -0.37802,0.782587 -0.69273,1.7536 -0.69937,2.157806 -0.0112,0.68449 -2.21706,3.000154 -2.85784,3.000154 -0.31733,0 -2.26288,1.621119 -4.30264,3.585146 -0.72712,0.70013 -1.92147,1.50111 -2.6541,1.77995 -1.04905,0.39927 -1.43487,0.80399 -1.81604,1.90494 -0.26619,0.76888 -0.72229,1.66129 -1.01356,1.98314 -2.02347,3.12053 -3.63123,6.37115 -5.33182,9.24434 -1.9033,3.58994 -3.63533,7.52796 -4.6801,11.29052 -0.10451,0.73567 -0.39857,1.81781 -0.65345,2.40475 -2.24573,8.7502 -3.95951,17.95882 -4.65215,26.05035 -0.22019,3.47975 -0.349773,4.05042 -1.104607,4.86447 -1.033716,1.11482 -1.113008,1.11731 -2.299127,0.0724 z"
             id="path38"
             inkscape:connector-curvature="0"
             sodipodi:nodetypes="ccccccccccsccscsccccccccc" />
          <path
             style="fill:#ffdd55;fill-opacity:1;stroke:none;stroke-width:2.97105718;stroke-miterlimit:4;stroke-dasharray:none;stroke-opacity:1"
             d="m 85.467446,150.31156 c -0.134507,-0.13451 -0.244558,-0.54946 -0.244558,-0.92212 0,-0.37266 -0.240112,-0.91768 -0.533582,-1.21115 -0.387464,-0.38746 -0.533582,-1.33172 -0.533582,-3.44814 0,-2.23495 -0.165893,-3.22408 -0.711443,-4.24196 -0.391294,-0.73007 -0.711443,-1.61255 -0.711443,-1.96107 -1.160077,-1.49542 -1.428911,-3.31444 -2.116694,-4.98997 -0.381594,-0.72353 -0.780762,-1.55562 -0.887039,-1.84909 -0.106277,-0.29347 -0.330698,-0.77369 -0.498712,-1.06716 -0.168015,-0.29347 -0.672885,-1.33396 -1.121933,-2.31219 -0.449049,-0.97823 -0.954062,-2.01872 -1.122251,-2.31219 -0.168189,-0.29347 -0.481811,-0.93377 -0.696937,-1.42288 -0.215126,-0.48912 -0.534495,-1.12942 -0.70971,-1.42289 -0.175215,-0.29347 -0.478169,-0.93377 -0.673231,-1.42289 -0.195062,-0.48911 -0.515991,-1.12941 -0.713175,-1.42288 -0.197185,-0.29347 -0.548599,-0.93377 -0.780921,-1.42289 -0.232323,-0.48911 -0.951497,-1.55654 -1.598165,-2.37205 -0.646667,-0.81552 -1.17576,-1.73031 -1.17576,-2.03289 0,-1.34201 -3.394877,-1.5746 -5.14818,-0.35271 -0.482529,0.33628 -1.824066,0.489 -4.29558,0.489 -3.331915,0 -3.652286,-0.0621 -4.39457,-0.85226 -0.536134,-0.57069 -0.762285,-1.18768 -0.68452,-1.86754 l 0.116134,-1.01528 3.467615,-0.1018 c 1.984129,-0.0583 3.77089,0.0605 4.176514,0.27758 0.533923,0.28575 0.973095,0.24277 1.779275,-0.17412 1.271321,-0.65742 1.425689,-1.88203 0.358934,-2.84743 -0.391293,-0.35412 -0.711443,-0.99962 -0.711443,-1.43446 0,-0.43484 -0.229822,-0.98135 -0.510716,-1.21447 -0.280895,-0.23313 -0.616138,-0.90384 -0.744986,-1.49048 -0.128848,-0.58664 -0.459287,-1.15297 -0.734308,-1.25851 -0.486875,-0.18683 -0.705874,-1.92568 -0.294358,-2.3372 0.308135,-0.308133 3.810046,1.57249 4.386251,2.35554 0.275625,0.37457 0.795868,0.93339 1.156095,1.24182 0.360227,0.30844 0.654958,0.82378 0.654958,1.14521 0,0.32143 0.320149,0.99142 0.711443,1.48887 0.391293,0.49745 0.711442,1.21456 0.711442,1.59359 0,0.37902 0.32015,0.97886 0.711443,1.33298 0.468727,0.42419 0.711443,1.09561 0.711443,1.96804 0,0.72831 0.229823,1.51493 0.510717,1.74805 0.280894,0.23313 0.60844,0.86879 0.727879,1.4126 0.119439,0.5438 0.770028,1.52459 1.445751,2.17953 0.675724,0.65493 1.228588,1.39125 1.228588,1.63626 0,0.24501 0.41259,0.89393 0.916865,1.44204 0.504276,0.54811 2.225078,2.40472 3.824005,4.1258 1.598927,1.72108 3.067215,3.49698 3.262862,3.94644 0.195647,0.44947 0.878562,1.41094 1.51759,2.13661 l 1.161869,1.3194 -0.0947,9.46711 c -0.08984,8.98035 -0.245177,10.32419 -1.095172,9.4742 z"
             id="path40"
             inkscape:connector-curvature="0"
             sodipodi:nodetypes="cscssccscsscsccccscscccccccscsccccscscscccssscscccc" />
          <path
             style="fill:#ffdd55;fill-opacity:1;stroke:none;stroke-width:2.97105718;stroke-miterlimit:4;stroke-dasharray:none;stroke-opacity:1"
             d="m 85.666552,110.2846 c -0.225778,-0.26832 -0.230231,-0.29999 -0.230231,-1.63695 v -1.36333 l -0.289024,-0.27587 c -0.158963,-0.15172 -0.459103,-0.43086 -0.666978,-0.62031 l -0.377954,-0.34445 -0.0039,-2.38935 c -0.0045,-2.80359 -0.04231,-3.08872 -0.454675,-3.4328 -0.856207,-0.714433 -0.8505,-0.705077 -0.918678,-1.505951 0.03324,-0.639869 -0.142205,-0.816314 -0.577261,-1.230139 -1.681014,-3.335241 -4.168595,-8.1019 -4.82642,-11.748627 -0.06114,-0.101899 -0.319677,-0.319948 -0.574527,-0.484555 -0.292482,-0.188912 -0.529514,-0.428946 -0.642732,-0.650873 -0.09865,-0.193373 -0.296503,-0.434996 -0.439667,-0.536939 -0.246199,-0.175308 -0.374464,-0.185349 -2.367722,-0.185349 h -2.107422 l -0.563483,-0.591901 -0.563484,-0.591901 -2.088423,-0.09731 c -2.042027,-0.09515 -2.093704,-0.102249 -2.326148,-0.319636 -0.130749,-0.122279 -0.294784,-0.332 -0.364522,-0.466046 -0.199977,-0.384384 -0.481703,-0.511119 -1.271595,-0.572031 -0.770583,-0.05942 -1.163689,-0.246059 -1.163689,-0.552486 0,-0.16249 0.328128,-0.50076 0.721943,-0.744256 0.128054,-0.07917 0.346759,-0.324045 0.48601,-0.544153 0.139251,-0.220109 0.402924,-0.484357 0.585941,-0.587218 0.183017,-0.102861 0.424527,-0.306958 0.53669,-0.453548 0.112162,-0.14659 0.313474,-0.399821 0.44736,-0.562735 l 0.243429,-0.296208 3.371627,-0.04021 c 3.661478,-0.04367 3.633798,-0.03979 3.972565,-0.556815 0.17804,-0.271723 0.260497,-1.314552 0.1768,-2.235966 l -0.06389,-0.703311 -0.51527,-0.489117 c -0.283398,-0.269015 -0.560086,-0.576528 -0.614861,-0.683364 -0.06004,-0.1171 -0.09959,-0.708143 -0.09959,-1.488181 v -1.293933 l 0.257501,-0.288193 c 0.241175,-0.269922 0.272002,-0.280433 0.486217,-0.165789 0.125793,0.06732 0.331234,0.277321 0.456534,0.466661 0.125299,0.189341 0.430162,0.489627 0.677472,0.667301 0.24731,0.177675 0.548127,0.479034 0.66848,0.669686 0.120354,0.190653 0.399376,0.473905 0.620048,0.62945 0.220674,0.155544 0.516135,0.469563 0.656583,0.69782 0.140448,0.228256 0.360741,0.489051 0.48954,0.579544 0.128799,0.09049 0.344241,0.251824 0.478758,0.358513 l 0.244578,0.193981 0.108648,4.019538 c 0.06883,2.546586 0.144614,4.088625 0.206797,4.208071 2.859692,4.882883 5.99453,10.986712 8.116198,16.412569 0.143658,0.149901 0.309591,0.272545 0.368741,0.272545 0.05915,0 0.225232,0.134039 0.369073,0.297864 l 0.261528,0.297864 0.05574,1.925254 c 0.03454,1.19286 0.09546,2.00144 0.160149,2.12549 0.05742,0.11013 0.318986,0.40186 0.581247,0.64829 0.673272,0.63264 0.662131,0.68262 -0.361576,1.62208 l -0.317679,0.29154 v 2.03605 2.03604 l -0.273632,0.27363 c -0.342404,0.3424 -0.453061,0.34241 -0.741162,2e-5 z"
             id="path48"
             inkscape:connector-curvature="0"
             sodipodi:nodetypes="csccccccccccccscccscscsccscccscccccscccccccccsccccscccccccccccc" />
          <path
             style="fill:#ffdd55;fill-opacity:1;stroke:none;stroke-width:2.97105718;stroke-miterlimit:4;stroke-dasharray:none;stroke-opacity:1"
             d="m 63.406862,74.567987 c -0.108382,-0.02098 -0.29847,-0.158664 -0.422419,-0.305969 -0.199322,-0.23688 -0.225362,-0.348511 -0.225362,-0.966114 0,-0.677231 -0.0091,-0.707194 -0.302829,-0.993643 -0.166556,-0.162446 -0.446687,-0.409349 -0.622512,-0.548674 -0.175826,-0.139324 -0.319684,-0.3314 -0.319684,-0.426835 0,-0.265846 0.215324,-0.623443 0.569011,-0.944983 0.176161,-0.160149 0.320293,-0.328615 0.320293,-0.374369 0,-0.04575 -0.15652,-0.228007 -0.347822,-0.405007 -0.630522,-0.58338 -0.685068,-1.060744 -0.174012,-1.522873 0.153481,-0.138788 0.506944,-0.482449 0.785473,-0.763691 l 0.506417,-0.51135 2.17172,5.86e-4 c 1.918419,5.18e-4 2.198213,0.01867 2.398869,0.155628 0.330069,0.22529 1.286657,1.189399 1.405404,1.416454 0.0698,0.133459 0.101588,1.056325 0.101588,2.949028 v 2.754782 l -0.256518,0.215846 c -0.242872,0.204363 -0.338672,0.218962 -1.80084,0.274425 -1.634157,0.06199 -3.457848,0.06042 -3.786777,-0.0032 z"
             id="path50"
             inkscape:connector-curvature="0" />
          <path
             style="fill:#ffdd55;fill-opacity:1;stroke:none;stroke-width:2.97105718;stroke-miterlimit:4;stroke-dasharray:none;stroke-opacity:1"
             d="m 58.53489,78.550115 c -0.79179,-0.05788 -0.994996,-0.142526 -1.511816,-0.62973 -0.319313,-0.301014 -0.42854,-0.345269 -1.067165,-0.432378 -0.391293,-0.05337 -1.311722,-0.138227 -2.045398,-0.188566 l -1.333955,-0.09153 -0.266791,-0.324765 c -0.146735,-0.17862 -0.417389,-0.468437 -0.601453,-0.644038 -0.184064,-0.1756 -0.512089,-0.499357 -0.728944,-0.719459 -0.518863,-0.526634 -0.751434,-0.75194 -1.198668,-1.161226 -0.362451,-0.331697 -0.368166,-0.345775 -0.239431,-0.589758 0.156202,-0.29604 1.249844,-1.378346 1.567936,-1.551683 0.173641,-0.09462 0.949336,-0.127114 3.542271,-0.14838 l 3.319944,-0.02723 0.304061,0.231919 c 0.167233,0.127555 0.364098,0.348019 0.437478,0.489919 0.07338,0.141901 0.305084,0.37611 0.514897,0.520466 0.483252,0.332486 0.664056,0.697 0.734128,1.480063 l 0.05571,0.622512 0.627567,0.587779 c 0.563479,0.527757 0.621264,0.612882 0.565866,0.833608 -0.07823,0.311678 -1.14755,1.428763 -1.583294,1.654012 -0.18147,0.09381 -0.341545,0.163788 -0.355721,0.155513 -0.01418,-0.0083 -0.345925,-0.03845 -0.737218,-0.06705 z"
             id="path52"
             inkscape:connector-curvature="0" />
          <path
             style="fill:#ffdd55;fill-opacity:1;stroke:none;stroke-width:2.97105718;stroke-miterlimit:4;stroke-dasharray:none;stroke-opacity:1"
             d="m 53.296041,68.093924 c -0.289047,-0.06517 -0.612425,-0.164984 -0.718618,-0.221816 -0.299972,-0.160541 -0.489933,-0.562123 -0.49048,-1.036885 -8.6e-4,-0.74739 -0.141645,-1.072542 -0.61012,-1.409108 -0.232224,-0.166836 -0.471847,-0.396056 -0.532495,-0.509378 -0.06065,-0.113322 -0.118394,-0.545317 -0.128324,-0.959988 -0.01686,-0.704132 -5.85e-4,-0.779722 0.246334,-1.144012 l 0.26439,-0.390063 2.314591,0.0597 c 3.288919,0.08484 3.047195,0.03328 3.878026,0.827057 0.994202,0.949854 1.06001,1.119163 1.06001,2.727165 0,1.382804 -0.05201,1.613011 -0.444781,1.968649 -0.183139,0.165826 -0.333213,0.178633 -2.254596,0.192405 -1.441117,0.01033 -2.215998,-0.02078 -2.583937,-0.10373 z"
             id="path54"
             inkscape:connector-curvature="0" />
          <path
             style="fill:#ffdd55;fill-opacity:1;stroke:none;stroke-width:2.97105718;stroke-miterlimit:4;stroke-dasharray:none;stroke-opacity:1"
             d="m 61.709848,63.696166 -0.284722,-0.284722 v -1.395401 c 0,-1.347182 0.0078,-1.40687 0.225532,-1.727301 0.253219,-0.372645 0.373125,-0.395276 1.247719,-0.235498 0.553311,0.101083 0.833315,0.288994 1.115239,0.748437 0.09004,0.146735 0.433784,0.446875 0.763876,0.666977 0.524532,0.349753 0.60933,0.445017 0.672859,0.755908 0.03998,0.195647 0.06108,0.555252 0.0469,0.799123 -0.02419,0.415825 -0.04792,0.455466 -0.381513,0.637377 -0.303116,0.165288 -0.560205,0.20328 -1.738444,0.256898 l -1.382722,0.06292 z"
             id="path56"
             inkscape:connector-curvature="0" />
          <path
             style="fill:#ffdd55;fill-opacity:1;stroke:none;stroke-width:2.97105718;stroke-miterlimit:4;stroke-dasharray:none;stroke-opacity:1"
             d="m 45.122405,70.594236 c -0.327652,-0.06497 -0.978493,-0.500897 -1.446315,-0.968718 -0.677826,-0.677826 -0.850584,-1.051345 -0.850584,-1.839044 0,-0.8166 0.154587,-1.124189 0.889118,-1.769115 0.780703,-0.685466 1.070997,-0.780656 2.380714,-0.780656 1.281122,0 1.533549,0.07839 1.788909,0.555534 0.163522,0.305545 0.494708,0.730007 0.735968,0.943249 0.24126,0.213243 0.505566,0.75948 0.587347,1.213861 0.295426,1.641415 -1.918194,3.074599 -4.085157,2.644889 z"
             id="path58"
             inkscape:connector-curvature="0" />
          <path
             style="fill:#ffdd55;fill-opacity:1;stroke:none;stroke-width:2.97105718;stroke-miterlimit:4;stroke-dasharray:none;stroke-opacity:1"
             d="m 36.17298,64.051446 c -1.237885,-0.0514 -2.398081,-0.215762 -2.578214,-0.365259 -0.60669,-0.503508 -0.349215,-1.404244 0.719299,-2.516353 1.038956,-1.081346 1.061763,-1.090202 3.038751,-1.179982 1.850916,-0.08405 2.039469,-0.04526 2.663299,0.547992 0.369248,0.351148 1.01093,0.720546 1.42596,0.820886 1.148634,0.2777 1.181854,0.617272 0.160324,1.638802 -1.071927,1.071926 -1.763283,1.206127 -5.429419,1.053914 z"
             id="path60"
             inkscape:connector-curvature="0" />
          <path
             style="fill:#ffdd55;fill-opacity:1;stroke:none;stroke-width:2.97105718;stroke-miterlimit:4;stroke-dasharray:none;stroke-opacity:1"
             d="m 43.745195,59.011261 -2.191777,-2.200914 0.0701,-1.634965 0.07009,-1.634965 0.805697,-0.07794 c 0.720922,-0.06974 1.049465,0.166526 3.122484,2.245476 2.175067,2.18129 2.32391,2.397544 2.433227,3.53522 0.140113,1.45819 -0.201036,1.969002 -1.315012,1.969002 -0.674844,0 -1.152903,-0.35133 -2.994809,-2.200913 z"
             id="path62"
             inkscape:connector-curvature="0" />
          <path
             style="fill:#ffdd55;fill-opacity:1;stroke:none;stroke-width:2.97105718;stroke-miterlimit:4;stroke-dasharray:none;stroke-opacity:1"
             d="m 28.865424,60.020544 c -0.276686,-0.06993 -0.823023,-0.396367 -1.214081,-0.725421 -0.391058,-0.329053 -0.933093,-0.598279 -1.204522,-0.598279 -0.271429,0 -0.965843,-0.44059 -1.543142,-0.979088 -0.870775,-0.812251 -0.996739,-1.042824 -0.739218,-1.353119 0.17073,-0.205716 0.656629,-0.443271 1.079777,-0.527901 0.423149,-0.08463 1.058419,-0.381245 1.411712,-0.659146 0.527475,-0.414912 1.020146,-0.505274 2.754846,-0.505274 2.075032,0 2.127956,0.01546 2.984474,0.871981 1.318389,1.318389 1.159605,3.152547 -0.272918,3.152547 -0.297671,0 -0.896547,0.33957 -1.330835,0.754599 -0.788029,0.753083 -0.977093,0.808946 -1.926093,0.569101 z"
             id="path64"
             inkscape:connector-curvature="0" />
          <path
             style="fill:#ffdd55;fill-opacity:1;stroke:none;stroke-width:2.97105718;stroke-miterlimit:4;stroke-dasharray:none;stroke-opacity:1"
             d="m 18.866986,67.576524 c -0.2421,-0.271114 -0.440182,-0.700106 -0.440182,-0.953316 0,-0.563489 2.21212,-2.64417 2.811205,-2.64417 0.237934,0 1.117622,-0.570076 1.954863,-1.266835 l 1.522257,-1.266835 1.522257,1.266835 c 0.837241,0.696759 1.676642,1.266835 1.865335,1.266835 0.188692,0 0.861955,0.483227 1.496139,1.073838 1.226066,1.141827 1.498121,2.099653 0.768388,2.705276 -0.318303,0.264169 -0.483844,0.226085 -0.95946,-0.220734 -0.674733,-0.633878 -1.831233,-0.703531 -2.445853,-0.147308 -0.33268,0.301071 -1.276162,0.426115 -4.044334,0.536013 -3.368278,0.133723 -3.639955,0.110275 -4.050615,-0.349599 z"
             id="path66"
             inkscape:connector-curvature="0" />
          <path
             style="fill:#ffdd55;fill-opacity:1;stroke:none;stroke-width:2.97105718;stroke-miterlimit:4;stroke-dasharray:none;stroke-opacity:1"
             d="m 37.565175,72.021785 c -0.96621,-0.105539 -1.723129,-0.326667 -1.887464,-0.551409 -0.150898,-0.206365 -0.5569,-0.461664 -0.902227,-0.56733 -0.967635,-0.296085 -1.508232,-0.895363 -1.508232,-1.67195 0,-0.977704 0.606846,-1.22753 2.981767,-1.22753 h 2.008708 l 1.402393,1.572081 c 0.771317,0.864645 1.402903,1.717121 1.403525,1.894392 0.002,0.576637 -1.337106,0.787832 -3.49847,0.551746 z"
             id="path68"
             inkscape:connector-curvature="0" />
          <path
             style="fill:#ffdd55;fill-opacity:1;stroke:none;stroke-width:2.97105718;stroke-miterlimit:4;stroke-dasharray:none;stroke-opacity:1"
             d="M 90.307502,64.544987 C 89.80456,64.0262 89.310205,63.262169 89.208936,62.847139 89.107667,62.43211 88.795816,61.781332 88.515933,61.400968 l -0.508878,-0.691573 0.67603,-0.705623 c 0.371816,-0.388092 0.676029,-0.972459 0.676029,-1.298592 0,-0.326134 0.268163,-1.055674 0.595917,-1.621201 0.327754,-0.565527 0.673864,-1.563245 0.769132,-2.21715 0.09527,-0.653906 0.289646,-1.260877 0.431949,-1.348826 0.362287,-0.223905 1.965744,1.39143 2.140769,2.156628 0.07959,0.347957 0.421839,1.04528 0.760555,1.549606 0.505017,0.751937 0.622344,1.256548 0.651944,2.803953 0.03159,1.651625 -0.0457,2.007867 -0.619657,2.856038 -0.360664,0.532974 -0.733357,1.230204 -0.828207,1.549401 -0.160153,0.538964 -1.005877,1.054607 -1.729698,1.054607 -0.170432,0 -0.721374,-0.424462 -1.224316,-0.943249 z"
             id="path70"
             inkscape:connector-curvature="0" />
          <path
             style="fill:#ffdd55;fill-opacity:1;stroke:none;stroke-width:2.97105718;stroke-miterlimit:4;stroke-dasharray:none;stroke-opacity:1"
             d="m 98.290756,57.869005 c -0.542721,-0.542721 -0.882585,-1.126989 -0.882585,-1.517272 0,-0.349078 -0.282975,-0.970983 -0.628833,-1.382012 -0.345858,-0.411029 -0.628832,-0.819651 -0.628832,-0.908049 0,-0.382793 1.732343,-1.845578 2.504424,-2.114726 0.464741,-0.16201 1.003304,-0.520597 1.196807,-0.796861 0.193503,-0.276263 0.511203,-0.502297 0.706013,-0.502297 0.70551,0 0.94139,1.023187 0.81948,3.554819 l -0.11864,2.463731 -1.04262,1.042626 -1.042629,1.042626 z"
             id="path72"
             inkscape:connector-curvature="0" />
          <path
             style="fill:#ffdd55;fill-opacity:1;stroke:none;stroke-width:2.97105718;stroke-miterlimit:4;stroke-dasharray:none;stroke-opacity:1"
             d="m 83.095581,57.399592 c -0.843694,-0.713489 -1.53399,-1.367403 -1.53399,-1.453142 0,-0.08574 -0.33957,-0.527669 -0.754599,-0.982068 -0.457161,-0.500527 -0.754599,-1.100217 -0.754599,-1.521409 0,-0.419334 -0.253624,-0.933496 -0.639106,-1.295638 -0.577008,-0.542071 -0.631997,-0.760179 -0.565949,-2.24476 l 0.07316,-1.644351 0.888221,-0.07479 c 0.685628,-0.05773 1.025515,0.07136 1.49016,0.565949 0.385401,0.41024 0.873165,0.640736 1.355898,0.640736 0.599191,0 1.109072,0.358651 2.483932,1.747203 l 1.729975,1.747204 -0.171453,2.591741 c -0.0943,1.425457 -0.283546,2.733228 -0.420547,2.906157 -0.533182,0.673007 -1.620221,0.337154 -3.181099,-0.982836 z"
             id="path74"
             inkscape:connector-curvature="0" />
          <path
             style="fill:#ffdd55;fill-opacity:1;stroke:none;stroke-width:2.97105718;stroke-miterlimit:4;stroke-dasharray:none;stroke-opacity:1"
             d="m 88.393248,50.335907 c -0.160489,-0.160489 -0.291799,-0.94569 -0.291799,-1.744891 0,-1.272404 0.07819,-1.504328 0.628833,-1.86512 0.466159,-0.305439 0.628832,-0.632716 0.628832,-1.265127 0,-0.590186 0.18858,-1.017068 0.6119,-1.38514 0.355275,-0.308908 0.680925,-0.940599 0.776485,-1.506217 0.09052,-0.535797 0.277708,-1.044089 0.415967,-1.129538 0.439203,-0.271443 1.952009,1.439664 2.122257,2.400445 0.08737,0.493044 0.414187,1.179418 0.726269,1.525275 0.460624,0.510478 0.592487,1.020107 0.700606,2.707723 0.116987,1.826051 0.07813,2.108353 -0.31947,2.321143 -0.336708,0.180201 -0.622845,0.108382 -1.117073,-0.280378 -0.982503,-0.772837 -2.530265,-0.912085 -3.36723,-0.30294 -1.084452,0.789266 -1.208221,0.832121 -1.515577,0.524765 z"
             id="path76"
             inkscape:connector-curvature="0" />
          <path
             style="fill:#ffdd55;fill-opacity:1;stroke:none;stroke-width:2.97105718;stroke-miterlimit:4;stroke-dasharray:none;stroke-opacity:1"
             d="m 97.751116,46.567673 c -0.105023,-0.169931 -0.271659,-0.903702 -0.370301,-1.630603 -0.09864,-0.7269 -0.415816,-1.622254 -0.70483,-1.989676 -0.726895,-0.924097 -0.684357,-2.225258 0.103353,-3.161398 0.345858,-0.411029 0.628833,-1.032439 0.628833,-1.380912 0,-0.348474 0.23742,-0.967015 0.527601,-1.374536 0.290181,-0.407522 0.608988,-1.047539 0.708459,-1.422261 0.155307,-0.585065 0.329889,-0.692258 1.235813,-0.75879 1.032316,-0.07581 1.065246,-0.05346 1.534526,1.041305 0.26376,0.615331 0.60212,1.194527 0.75191,1.287104 0.17253,0.106627 0.27235,1.350135 0.27235,3.392688 v 3.224367 l -1.57208,1.374517 c -1.635709,1.430147 -2.778836,1.943146 -3.115634,1.398195 z"
             id="path78"
             inkscape:connector-curvature="0" />
          <path
             style="fill:#ffdd55;fill-opacity:1;stroke:none;stroke-width:2.97105718;stroke-miterlimit:4;stroke-dasharray:none;stroke-opacity:1"
             d="m 83.840486,45.883419 c -0.440235,-0.430343 -0.925199,-1.147366 -1.077698,-1.593382 -0.320982,-0.938787 -1.035203,-1.966361 -2.01868,-2.904344 -0.408477,-0.389581 -0.691715,-0.927816 -0.691715,-1.314459 0,-0.373166 -0.270433,-0.908799 -0.628833,-1.245498 -0.598181,-0.561962 -0.628832,-0.728116 -0.628832,-3.408742 0,-3.336222 0.236835,-3.785841 1.454481,-2.761259 0.415894,0.349951 0.929228,0.636275 1.140743,0.636275 0.211516,0 0.712135,0.275624 1.112488,0.612499 0.400352,0.336874 1.059878,0.694292 1.465613,0.794262 1.006189,0.247918 2.624198,1.894226 2.624198,2.670096 0,0.338018 0.282975,0.88042 0.628833,1.205336 0.539841,0.507155 0.628832,0.811835 0.628832,2.152948 0,1.388773 -0.06981,1.607928 -0.628832,1.974217 -0.45881,0.300624 -0.628833,0.634688 -0.628833,1.235545 0,0.625055 -0.235132,1.05312 -0.975669,1.776234 l -0.975668,0.952715 z"
             id="path80"
             inkscape:connector-curvature="0" />
          <path
             style="fill:#ffdd55;fill-opacity:1;stroke:none;stroke-width:2.97105718;stroke-miterlimit:4;stroke-dasharray:none;stroke-opacity:1"
             d="m 90.270381,36.522681 c -1.192913,-1.278408 -2.168932,-2.436106 -2.168932,-2.572663 0,-0.136557 0.248159,-0.512439 0.551464,-0.835292 0.446425,-0.475198 0.578407,-0.992753 0.692912,-2.717196 0.135838,-2.045708 0.17862,-2.167361 1.078753,-3.067494 l 0.937306,-0.937305 0.875737,0.848798 c 0.62521,0.605977 0.921556,1.154338 1.0359,1.916836 0.10067,0.671319 0.384445,1.263049 0.763974,1.593046 0.566636,0.492683 0.603813,0.689716 0.603813,3.200165 v 2.675157 l -0.927891,1.036618 c -0.51034,0.57014 -1.005789,1.069713 -1.100998,1.110163 -0.09521,0.04045 -1.149126,-0.972426 -2.342038,-2.250833 z"
             id="path82"
             inkscape:connector-curvature="0" />
          <path
             style="fill:#ffdd55;fill-opacity:1;stroke:none;stroke-width:2.97105718;stroke-miterlimit:4;stroke-dasharray:none;stroke-opacity:1"
             d="m 83.070789,30.273613 c -0.452926,-0.452925 -0.503066,-0.838443 -0.503066,-3.867962 0,-3.723528 0.138484,-4.091093 1.422255,-3.774962 0.393676,0.09694 1.140237,0.597856 1.659024,1.113138 l 0.943249,0.936876 v 2.15887 c 0,2.056083 -0.03717,2.201203 -0.780656,3.047989 -0.90811,1.03428 -1.94634,1.180518 -2.740806,0.386051 z"
             id="path84"
             inkscape:connector-curvature="0" />
          <path
             style="fill:#ffdd55;fill-opacity:1;stroke:none;stroke-width:2.97105718;stroke-miterlimit:4;stroke-dasharray:none;stroke-opacity:1"
             d="m 88.415865,22.336301 c -1.822424,-1.889536 -2.053599,-2.84162 -0.943248,-3.884739 0.364098,-0.342053 0.628832,-0.871521 0.628832,-1.257665 0,-0.386145 0.264734,-0.915613 0.628833,-1.257665 0.377123,-0.354289 0.628832,-0.869549 0.628832,-1.287248 0,-0.776949 0.78704,-1.479616 1.657284,-1.479616 0.807338,0 2.273147,2.017214 2.483082,3.417164 0.09418,0.628058 0.393184,1.518086 0.664446,1.977841 l 0.493204,0.835919 -0.636744,0.756727 c -0.350209,0.4162 -0.636744,0.985573 -0.636744,1.265274 0,0.279701 -0.431042,0.970798 -0.957871,1.535771 -1.413585,1.515933 -2.042134,1.418472 -4.009906,-0.621763 z"
             id="path86"
             inkscape:connector-curvature="0" />
          <path
             style="fill:#ffdd55;fill-opacity:1;stroke:none;stroke-width:2.97105718;stroke-miterlimit:4;stroke-dasharray:none;stroke-opacity:1"
             d="m 97.725252,31.719928 c -0.136171,-0.172929 -0.320394,-0.872093 -0.409386,-1.553698 -0.08899,-0.681605 -0.3488,-1.445911 -0.577352,-1.698458 -0.228552,-0.252547 -0.556522,-1.209352 -0.728823,-2.126232 -0.383715,-2.041903 -0.04767,-3.375513 0.918703,-3.645885 1.002983,-0.280616 2.372204,-0.238788 2.693267,0.08228 0.318354,0.318354 0.448999,8.077181 0.149162,8.858543 -0.185209,0.482647 -1.683111,0.543759 -2.045571,0.08346 z"
             id="path88"
             inkscape:connector-curvature="0" />
          <path
             style="fill:#ffdd55;fill-opacity:1;stroke:none;stroke-width:2.97105718;stroke-miterlimit:4;stroke-dasharray:none;stroke-opacity:1"
             d="m 54.403341,107.28642 c -0.428083,-0.39099 -0.898677,-1.15503 -1.045766,-1.69785 -0.147089,-0.54282 -0.490567,-1.22872 -0.763285,-1.52421 -0.356095,-0.38583 -0.473365,-0.8112 -0.416073,-1.5092 l 0.07978,-0.97194 3.486915,-0.0702 c 3.784306,-0.0761 4.184842,0.0376 4.184842,1.18902 0,0.40006 0.25885,0.92313 0.628833,1.27071 0.47581,0.447 0.626602,0.84022 0.619666,1.61592 -0.0079,0.87842 -0.139675,1.12419 -0.92087,1.71689 -0.824371,0.62546 -1.111137,0.69172 -2.993705,0.69172 -1.933609,0 -2.137478,-0.0507 -2.860334,-0.7109 z"
             id="path90"
             inkscape:connector-curvature="0" />
          <path
             style="fill:#ffdd55;fill-opacity:1;stroke:none;stroke-width:2.97105718;stroke-miterlimit:4;stroke-dasharray:none;stroke-opacity:1"
             d="m 51.005192,97.245672 c -0.689041,-0.05312 -1.33815,-0.230798 -1.442463,-0.394844 -0.423472,-0.665962 -0.165778,-1.584652 0.701024,-2.499179 1.27287,-1.342952 2.006081,-1.280522 3.676867,0.313072 0.817365,0.7796 1.631958,1.315373 2.146734,1.411946 0.981779,0.184183 1.231659,0.487765 0.814857,0.989981 -0.302614,0.364627 -2.589033,0.43404 -5.897019,0.179024 z"
             id="path92"
             inkscape:connector-curvature="0" />
          <path
             style="fill:#ffdd55;fill-opacity:1;stroke:none;stroke-width:2.97105718;stroke-miterlimit:4;stroke-dasharray:none;stroke-opacity:1"
             d="m 40.283035,101.04745 c -0.249504,-0.30063 -0.112181,-0.54575 0.76289,-1.36174 0.586941,-0.547314 1.320919,-0.995116 1.631061,-0.995116 0.310142,0 0.829736,-0.282975 1.154652,-0.628833 0.421731,-0.448912 0.854523,-0.628832 1.512635,-0.628832 0.779829,0 1.169498,0.232 2.52892,1.505662 2.2272,2.086699 2.073274,2.199599 -3.211272,2.355379 -3.367768,0.0993 -4.127396,0.0565 -4.378886,-0.24652 z"
             id="path94"
             inkscape:connector-curvature="0" />
          <path
             style="fill:#ffdd55;fill-opacity:1;stroke:none;stroke-width:2.97105718;stroke-miterlimit:4;stroke-dasharray:none;stroke-opacity:1"
             d="m 40.18441,94.365497 c -0.276687,-0.156899 -0.574521,-0.393071 -0.661855,-0.524828 -0.08733,-0.131757 -1.367455,-0.271471 -2.844715,-0.310475 -3.378846,-0.08921 -3.793369,-0.351753 -3.568032,-2.259824 0.182743,-1.547398 0.600529,-1.886498 2.324251,-1.886498 1.011485,0 1.480605,0.136676 2.027072,0.590576 0.391058,0.324817 1.000302,0.661025 1.353877,0.74713 0.353574,0.08611 1.408596,0.863008 2.344494,1.726453 1.547613,1.427803 1.661518,1.599231 1.258444,1.893967 -0.542004,0.396323 -1.557237,0.407004 -2.233536,0.0235 z"
             id="path96"
             inkscape:connector-curvature="0" />
          <path
             style="fill:#ffdd55;fill-opacity:1;stroke:none;stroke-width:2.97105718;stroke-miterlimit:4;stroke-dasharray:none;stroke-opacity:1"
             d="m 43.698956,110.16578 c -0.272882,-0.19078 -1.128932,-0.47803 -1.902332,-0.63834 -1.918839,-0.39772 -3.065491,-1.53792 -2.949926,-2.9333 0.104694,-1.26412 0.287417,-1.30743 5.647387,-1.33861 l 4.309676,-0.0251 0.891225,0.98648 c 0.567991,0.6287 0.84591,1.15326 0.766282,1.44632 -0.21454,0.78958 -1.386615,1.43715 -2.930719,1.61921 -0.972194,0.11463 -1.666764,0.35399 -2.037269,0.70206 -0.655748,0.61604 -1.10719,0.66164 -1.794324,0.18126 z"
             id="path98"
             inkscape:connector-curvature="0" />
          <path
             style="fill:#ffdd55;fill-opacity:1;stroke:none;stroke-width:2.97105718;stroke-miterlimit:4;stroke-dasharray:none;stroke-opacity:1"
             d="m 23.004705,110.21081 c -0.166012,-0.16602 -0.30184,-0.85847 -0.30184,-1.53879 0,-1.11501 0.102659,-1.33943 1.041325,-2.27638 l 1.041326,-1.03942 1.98628,0.0277 c 1.688429,0.0235 2.076197,0.11216 2.585908,0.59101 0.416202,0.391 1.067735,0.61851 2.129886,0.74375 1.196407,0.14107 1.694654,0.33794 2.283792,0.90237 1.452943,1.392 1.144507,1.55133 -3.31375,1.7117 -2.519896,0.0906 -3.032044,0.18163 -3.618267,0.64275 -0.514804,0.40495 -1.033608,0.53716 -2.107851,0.53716 -0.783733,0 -1.560798,-0.13583 -1.726809,-0.30184 z"
             id="path100"
             inkscape:connector-curvature="0" />
          <path
             style="fill:#ffdd55;fill-opacity:1;stroke:none;stroke-width:2.97105718;stroke-miterlimit:4;stroke-dasharray:none;stroke-opacity:1"
             d="m 31.876899,103.35957 c -0.454254,-0.42099 -1.095371,-0.6674 -2.045197,-0.78608 -1.992545,-0.24895 -2.003512,-0.65215 -0.06495,-2.38779 0.887702,-0.794782 1.90124,-1.739293 2.252307,-2.098915 0.611973,-0.626884 0.754032,-0.653856 3.443734,-0.653856 3.013077,0 3.599518,0.23406 2.604724,1.039596 -1.024215,0.829358 -1.706064,2.107535 -1.833879,3.437725 -0.172055,1.79061 -0.466007,2.06254 -2.229626,2.06254 -1.204556,0 -1.583233,-0.10917 -2.127113,-0.61322 z"
             id="path102"
             inkscape:connector-curvature="0" />
          <path
             style="fill:#ffdd55;fill-opacity:1;stroke:none;stroke-width:2.97105718;stroke-miterlimit:4;stroke-dasharray:none;stroke-opacity:1"
             d="m 23.080165,98.390835 c -0.276687,-0.156454 -0.593583,-0.435987 -0.704215,-0.621184 -0.110632,-0.185197 -0.456865,-0.336722 -0.769407,-0.336722 -0.312542,0 -0.787974,-0.162232 -1.056517,-0.360516 -0.471038,-0.347802 -0.454171,-0.395588 0.478248,-1.354971 l 0.966506,-0.994455 2.676942,-0.182461 c 2.033596,-0.13861 2.820325,-0.295245 3.273554,-0.651756 0.670993,-0.527803 1.063318,-0.408293 2.020986,0.615634 0.732499,0.78318 0.57708,1.297546 -0.454397,1.503842 -0.450515,0.0901 -1.336578,0.689725 -2.096766,1.418936 -1.226306,1.176335 -1.402736,1.262385 -2.574203,1.255503 -0.691716,-0.0041 -1.484045,-0.135397 -1.760731,-0.29185 z"
             id="path104"
             inkscape:connector-curvature="0" />
          <path
             style="fill:#ffdd55;fill-opacity:1;stroke:none;stroke-width:2.97105718;stroke-miterlimit:4;stroke-dasharray:none;stroke-opacity:1"
             d="m 15.866997,104.06227 c -1.174069,-0.20811 -1.30119,-0.66417 -0.474929,-1.70389 0.407169,-0.51235 1.161178,-1.26602 1.675574,-1.67481 0.785067,-0.62389 1.080387,-0.717429 1.838929,-0.58244 0.497015,0.0885 1.130044,0.35836 1.40673,0.59979 0.276687,0.24144 0.842003,0.51953 1.256258,0.61798 1.098439,0.26105 1.403157,0.59976 1.225413,1.36212 -0.282552,1.21189 -0.611272,1.34477 -3.525852,1.42525 -1.500848,0.0414 -3.031803,0.0216 -3.402123,-0.044 z"
             id="path106"
             inkscape:connector-curvature="0" />
          <path
             style="fill:#ffdd55;fill-opacity:1;stroke:none;stroke-width:2.97105718;stroke-miterlimit:4;stroke-dasharray:none;stroke-opacity:1"
             d="m 13.527312,115.55205 c -0.08253,-0.13354 -0.174102,-1.41052 -0.203495,-2.83773 l -0.05344,-2.59493 0.934864,-0.93527 c 0.886631,-0.88702 1.018994,-0.93527 2.565465,-0.93527 1.514796,0 1.685013,0.0581 2.396784,0.81748 1.209323,1.29029 1.058869,1.97577 -0.842944,3.8405 -0.9445,0.92609 -1.922707,1.64841 -2.363482,1.74522 -0.413614,0.0908 -0.95109,0.38514 -1.194391,0.65398 -0.478877,0.52915 -1.000393,0.63268 -1.239361,0.24602 z"
             id="path108"
             inkscape:connector-curvature="0" />
          <path
             style="fill:#ffdd55;fill-opacity:1;stroke:none;stroke-width:2.97105718;stroke-miterlimit:4;stroke-dasharray:none;stroke-opacity:1"
             d="m 132.42157,90.339698 c -0.16602,-0.166012 -0.30184,-0.93537 -0.30184,-1.709683 0,-1.298192 0.0743,-1.480388 0.95385,-2.339257 0.68391,-0.667822 1.17402,-0.931414 1.7318,-0.931414 0.55225,0 0.89749,-0.182438 1.18998,-0.628833 0.41089,-0.627099 0.42304,-0.628832 4.41018,-0.628832 2.19899,0 4.1772,0.0687 4.39603,0.152678 0.26408,0.101334 0.39787,0.467121 0.39787,1.08773 0,0.836809 -0.17641,1.091652 -1.67907,2.425535 -0.92348,0.819766 -1.9609,1.801756 -2.30537,2.1822 l -0.62631,0.691715 h -3.93264 c -2.72335,0 -4.02546,-0.09282 -4.23448,-0.301839 z"
             id="path110"
             inkscape:connector-curvature="0" />
          <path
             style="fill:#ffdd55;fill-opacity:1;stroke:none;stroke-width:2.97105718;stroke-miterlimit:4;stroke-dasharray:none;stroke-opacity:1"
             d="m 133.82863,97.083104 c -0.9761,-0.971514 -1.63169,-1.8225 -1.55601,-2.019738 0.0719,-0.187467 0.47231,-0.409152 0.88972,-0.492633 0.41741,-0.08348 1.04798,-0.379158 1.40127,-0.657059 0.57211,-0.450021 1.01822,-0.505273 4.07959,-0.505273 3.54134,0 4.04091,0.129523 4.04091,1.047686 0,0.244204 0.33957,0.830755 0.7546,1.303448 0.8277,0.942697 1.02621,2.269943 0.37678,2.519153 -0.2078,0.07974 -2.16032,0.221105 -4.33894,0.314144 l -3.96113,0.169161 z"
             id="path112"
             inkscape:connector-curvature="0" />
          <path
             style="fill:#ffdd55;fill-opacity:1;stroke:none;stroke-width:2.97105718;stroke-miterlimit:4;stroke-dasharray:none;stroke-opacity:1"
             d="m 133.55648,105.56275 c -1.08504,-0.0983 -1.34666,-0.25752 -2.64109,-1.60734 -3.1404,-3.27477 -3.10532,-3.22585 -3.02277,-4.214998 0.061,-0.730836 0.22726,-0.992258 0.80706,-1.268876 0.62407,-0.297738 0.89838,-0.296384 1.8865,0.0093 0.93085,0.287975 1.24194,0.538361 1.59587,1.28446 0.27383,0.577254 0.79555,1.110614 1.38343,1.414304 0.5191,0.26815 1.08626,0.72334 1.26036,1.01153 0.23755,0.39322 0.57192,0.52398 1.3399,0.52398 0.79569,0 1.18691,0.16357 1.75859,0.73525 0.76411,0.76411 0.87988,1.1623 0.50841,1.74874 -0.23604,0.37265 -2.72668,0.55838 -4.87626,0.36364 z"
             id="path114"
             inkscape:connector-curvature="0" />
          <path
             style="fill:#ffdd55;fill-opacity:1;stroke:none;stroke-width:2.97105718;stroke-miterlimit:4;stroke-dasharray:none;stroke-opacity:1"
             d="m 148.14295,107.40547 c -0.30467,-0.32552 -1.0067,-0.67425 -1.56007,-0.77497 -0.55338,-0.10072 -1.23252,-0.38548 -1.5092,-0.63281 -0.27669,-0.24732 -0.83383,-0.52818 -1.23809,-0.62412 -0.98673,-0.23418 -2.40914,-1.81462 -2.40914,-2.6768 0,-0.97026 0.38663,-1.16198 2.61887,-1.29866 1.86084,-0.11394 2.03231,-0.17327 2.6411,-0.91389 0.42235,-0.513805 0.87671,-0.791233 1.29343,-0.789762 0.85761,0.003 2.19418,1.408002 2.53459,2.664312 0.14682,0.54185 0.50516,1.243 0.7963,1.55811 0.34325,0.37149 0.58939,1.07895 0.70012,2.01226 0.21088,1.77747 -0.0656,2.06818 -1.96661,2.06818 -1.0901,0 -1.45313,-0.11301 -1.9013,-0.59185 z"
             id="path116"
             inkscape:connector-curvature="0" />
          <path
             style="fill:#ffdd55;fill-opacity:1;stroke:none;stroke-width:2.97105718;stroke-miterlimit:4;stroke-dasharray:none;stroke-opacity:1"
             d="m 148.06665,94.286804 -2.99297,-2.919856 1.05927,-0.991538 c 1.47075,-1.376696 2.09816,-1.322897 3.87853,0.332576 2.11111,1.963003 2.52415,2.271055 3.48832,2.601608 1.03874,0.356122 1.22483,0.880996 0.53969,1.522245 -0.27211,0.254682 -0.59629,0.859224 -0.7204,1.343425 -0.20614,0.804264 -0.31355,0.886893 -1.24256,0.955881 -0.99009,0.07352 -1.09587,-0.0015 -4.00988,-2.844341 z"
             id="path118"
             inkscape:connector-curvature="0" />
          <path
             style="fill:#ffdd55;fill-opacity:1;stroke:none;stroke-width:2.97105718;stroke-miterlimit:4;stroke-dasharray:none;stroke-opacity:1"
             d="m 155.32365,90.518068 c -0.44962,-0.195421 -0.81748,-0.469603 -0.81748,-0.609292 0,-0.139689 -0.42447,-0.370483 -0.94325,-0.512874 -0.51879,-0.142391 -1.37653,-0.671551 -1.90608,-1.17591 -1.38295,-1.317143 -1.02496,-1.536067 2.86037,-1.749191 3.83536,-0.210383 4.01348,-0.114704 4.01348,2.155867 0,0.808862 -0.0687,1.649701 -0.15267,1.868531 -0.19469,0.50733 -1.9102,0.520175 -3.05437,0.02287 z"
             id="path120"
             inkscape:connector-curvature="0" />
          <path
             style="fill:#ffdd55;fill-opacity:1;stroke:none;stroke-width:2.97105718;stroke-miterlimit:4;stroke-dasharray:none;stroke-opacity:1"
             d="m 166.6046,96.001249 c -0.33218,-0.06736 -1.27188,-0.678308 -2.0882,-1.357661 -0.81633,-0.679353 -1.6831,-1.235187 -1.92616,-1.235187 -0.24306,0 -0.65738,-0.157537 -0.9207,-0.350081 -0.42387,-0.309945 -0.43693,-0.400487 -0.11386,-0.789759 0.32533,-0.392 0.72759,-0.424471 3.70952,-0.299446 l 3.34461,0.140232 0.95757,0.963943 c 1.05443,1.061448 1.46716,2.141343 0.97158,2.542109 -0.36773,0.297383 -3.06576,0.561984 -3.93436,0.38585 z"
             id="path122"
             inkscape:connector-curvature="0" />
          <path
             style="fill:#ffdd55;fill-opacity:1;stroke:none;stroke-width:2.97105718;stroke-miterlimit:4;stroke-dasharray:none;stroke-opacity:1"
             d="m 160.98396,101.21673 c -0.51833,-0.10058 -1.14087,-0.35715 -1.38343,-0.57016 -0.24255,-0.213 -0.72398,-0.46974 -1.06984,-0.57054 -0.65718,-0.191529 -2.26379,-1.577282 -2.26379,-1.952594 0,-0.119317 0.36786,-0.675788 0.81748,-1.236601 l 0.81748,-1.019661 1.49835,0.134911 c 1.23527,0.111223 1.58123,0.248681 1.97036,0.782877 0.34532,0.474042 0.69886,0.647967 1.31714,0.647967 0.57531,0 0.96409,0.169851 1.21777,0.532036 0.20496,0.29262 0.71458,0.739975 1.1325,0.994123 0.41791,0.254149 0.95778,0.764189 1.19971,1.133422 0.42165,0.64352 0.42023,0.68571 -0.0344,1.01814 -0.5113,0.37388 -3.52375,0.4351 -5.21932,0.10608 z"
             id="path124"
             inkscape:connector-curvature="0" />
          <path
             style="fill:#ffdd55;fill-opacity:1;stroke:none;stroke-width:2.97105718;stroke-miterlimit:4;stroke-dasharray:none;stroke-opacity:1"
             d="m 157.05233,107.00792 c -1.83557,-1.79751 -2.29463,-2.3913 -2.29463,-2.96809 0,-0.39656 0.13583,-0.85686 0.30184,-1.02287 0.51672,-0.51672 1.68855,-0.35135 2.31723,0.32699 0.32053,0.34586 0.83192,0.62884 1.13642,0.62884 0.90809,0 1.47489,0.44888 1.6648,1.31845 0.0985,0.45077 0.39062,1.08952 0.64928,1.41945 0.53384,0.68094 0.61741,1.79348 0.16845,2.24245 -0.75985,0.75985 -1.60858,0.34118 -3.94339,-1.94522 z"
             id="path126"
             inkscape:connector-curvature="0" />
          <path
             style="fill:#ffdd55;fill-opacity:1;stroke:none;stroke-width:2.97105718;stroke-miterlimit:4;stroke-dasharray:none;stroke-opacity:1"
             d="m 170.39862,112.65068 c -0.41103,-0.34586 -0.95737,-0.62926 -1.21408,-0.62978 -0.25672,-5.1e-4 -0.86292,-0.24909 -1.34712,-0.5524 -0.48421,-0.3033 -1.21419,-0.72734 -1.62218,-0.94231 -0.42313,-0.22293 -0.81823,-0.68511 -0.9197,-1.07582 -0.0978,-0.37674 -0.41486,-0.98625 -0.7045,-1.35447 -0.61259,-0.77879 -0.69272,-2.16293 -0.15122,-2.61234 0.54884,-0.4555 3.05305,-0.0946 3.67767,0.53004 0.26964,0.26963 0.80801,0.55379 1.1964,0.63147 0.39348,0.0787 1.44803,0.84751 2.3817,1.73637 1.66,1.58033 1.67555,1.60766 1.67555,2.94476 0,0.7423 -0.13583,1.48546 -0.30184,1.65147 -0.51625,0.51626 -1.86476,0.35115 -2.67068,-0.32699 z"
             id="path128"
             inkscape:connector-curvature="0" />
          <path
             style="fill:#ffdd55;fill-opacity:1;stroke:none;stroke-width:2.97105718;stroke-miterlimit:4;stroke-dasharray:none;stroke-opacity:1"
             d="m 171.81151,104.53874 c -0.36603,-0.38045 -1.07038,-1.07606 -1.56521,-1.54581 -1.58155,-1.50138 -1.08858,-3.128515 0.94785,-3.128515 1.10008,0 1.26024,0.09443 2.91083,1.716225 2.67356,2.62691 2.65119,3.64981 -0.0798,3.64981 -1.35987,0 -1.6291,-0.0841 -2.21368,-0.69171 z"
             id="path130"
             inkscape:connector-curvature="0" />
          <path
             style="fill:#ffdd55;fill-opacity:1;stroke:none;stroke-width:2.97105718;stroke-miterlimit:4;stroke-dasharray:none;stroke-opacity:1"
             d="m 125.6214,70.248213 -1.57161,-1.528348 0.98698,-0.986982 c 1.15536,-1.155365 2.10768,-1.285767 3.1874,-0.436457 0.53029,0.417125 1.17342,0.58532 2.65413,0.694122 1.74604,0.128298 2.01202,0.217036 2.49646,0.832906 0.29822,0.379121 0.6971,0.68931 0.88641,0.68931 0.51468,0 0.70946,0.476023 0.36474,0.891384 -0.2331,0.28087 -0.96223,0.366281 -3.12683,0.366281 -2.5034,0 -2.87437,0.05693 -3.27811,0.503066 -0.2504,0.276686 -0.58413,0.503066 -0.74162,0.503066 -0.15748,0 -0.99356,-0.687756 -1.85795,-1.528348 z"
             id="path132"
             inkscape:connector-curvature="0" />
          <path
             style="fill:#ffdd55;fill-opacity:1;stroke:none;stroke-width:2.97105718;stroke-miterlimit:4;stroke-dasharray:none;stroke-opacity:1"
             d="m 122.83806,63.883459 c -0.19018,-0.229155 -0.23069,-0.848865 -0.1192,-1.823615 0.14049,-1.22826 0.31849,-1.632192 1.05871,-2.40252 l 0.88981,-0.926017 0.95931,0.959309 c 1.32334,1.323338 1.28611,2.049264 -0.177,3.451173 -1.17322,1.12414 -2.0804,1.381767 -2.61163,0.74167 z"
             id="path134"
             inkscape:connector-curvature="0" />
          <path
             style="fill:#ffdd55;fill-opacity:1;stroke:none;stroke-width:2.97105718;stroke-miterlimit:4;stroke-dasharray:none;stroke-opacity:1"
             d="m 131.74243,64.733637 c -0.41503,-0.274864 -0.93514,-0.500497 -1.1558,-0.501409 -0.22066,-9.06e-4 -0.58853,-0.208652 -0.81748,-0.461646 -0.78347,-0.865719 -0.50661,-1.580031 1.30846,-3.37589 l 1.71601,-1.697848 h 2.02182 c 2.50723,0 2.72228,0.188474 2.48814,2.180612 -0.15581,1.325769 -0.26647,1.513504 -1.70264,2.888585 -1.72193,1.648692 -2.52573,1.850261 -3.85851,0.967596 z"
             id="path136"
             inkscape:connector-curvature="0" />
          <path
             style="fill:#ffdd55;fill-opacity:1;stroke:none;stroke-width:2.97105718;stroke-miterlimit:4;stroke-dasharray:none;stroke-opacity:1"
             d="m 128.30579,57.011833 c -0.2153,-0.259877 -0.30383,-0.867087 -0.24599,-1.687171 0.0851,-1.205858 0.19135,-1.380995 1.80798,-2.979026 1.1534,-1.14014 1.9144,-1.697848 2.31671,-1.697848 0.33018,0 0.85185,-0.290672 1.16213,-0.647524 0.9134,-1.050502 1.28844,-0.465012 1.28844,2.011448 0,2.231356 -0.20215,2.660604 -1.25298,2.660604 -0.43294,0 -1.0753,0.406323 -1.92774,1.219381 -1.42125,1.355581 -2.60469,1.776605 -3.14855,1.120136 z"
             id="path138"
             inkscape:connector-curvature="0" />
          <path
             style="fill:#ffdd55;fill-opacity:1;stroke:none;stroke-width:2.97105718;stroke-miterlimit:4;stroke-dasharray:none;stroke-opacity:1"
             d="m 138.82727,54.504627 c -0.0922,-0.09223 -0.16768,-0.589293 -0.16768,-1.104587 0,-0.867436 0.0793,-0.968608 1.06891,-1.364595 0.58791,-0.235233 1.65297,-0.926662 2.3668,-1.536509 1.56947,-1.34084 2.71209,-1.51115 3.11037,-0.463606 0.53305,1.402029 0.25543,1.885423 -2.12265,3.695932 -1.09155,0.831034 -1.40278,0.941054 -2.66206,0.941054 -0.7843,0 -1.50146,-0.07546 -1.59369,-0.167689 z"
             id="path140"
             inkscape:connector-curvature="0" />
          <path
             style="fill:#ffdd55;fill-opacity:1;stroke:none;stroke-width:2.97105718;stroke-miterlimit:4;stroke-dasharray:none;stroke-opacity:1"
             d="m 151.68306,56.064786 c -0.90095,-0.341873 -2.45909,-1.687489 -2.45909,-2.123676 0,-0.189414 1.20971,-1.346453 3.91153,-3.741213 l 0.93099,-0.825191 2.92382,0.07059 2.92382,0.07059 -0.0245,1.107231 c -0.0172,0.775943 -0.16695,1.21137 -0.50052,1.455285 -0.2618,0.19143 -0.59053,0.756271 -0.73052,1.255201 -0.13998,0.498931 -0.4241,0.985964 -0.63137,1.082298 -0.20727,0.09633 -0.71642,0.361213 -1.13145,0.588622 -2.43183,1.332482 -3.7752,1.605723 -5.21267,1.06026 z"
             id="path142"
             inkscape:connector-curvature="0" />
          <path
             style="fill:#ffdd55;fill-opacity:1;stroke:none;stroke-width:2.97105718;stroke-miterlimit:4;stroke-dasharray:none;stroke-opacity:1"
             d="m 143.69025,63.350205 c -0.46879,-0.345858 -1.04287,-0.628832 -1.27574,-0.628832 -0.65397,0 -0.99133,-0.582068 -1.15928,-2.000166 -0.15215,-1.284681 -0.14192,-1.309609 0.9398,-2.288549 1.23797,-1.120345 2.16587,-1.376318 4.10907,-1.133533 0.96187,0.120178 1.51579,0.345287 1.92717,0.783186 0.31753,0.337993 0.82671,0.614533 1.13152,0.614533 0.67754,0 1.06834,0.439204 1.26479,1.42144 0.12806,0.640281 0.005,0.87491 -0.87959,1.673875 -0.5657,0.511067 -1.26654,0.929214 -1.55745,0.929214 -0.2909,0 -0.86521,0.282974 -1.27624,0.628832 -0.45948,0.38663 -1.06015,0.628833 -1.55952,0.628833 -0.47137,0 -1.16987,-0.263884 -1.66453,-0.628833 z"
             id="path144"
             inkscape:connector-curvature="0" />
          <path
             style="fill:#ffdd55;fill-opacity:1;stroke:none;stroke-width:2.97105718;stroke-miterlimit:4;stroke-dasharray:none;stroke-opacity:1"
             d="m 138.37362,68.31375 c -1.07324,-1.101647 -1.4445,-2.328747 -0.85307,-2.819591 0.27736,-0.230192 0.80779,-0.276962 1.80794,-0.159415 1.19733,0.140724 1.56487,0.315818 2.38551,1.136463 1.66635,1.666347 1.25007,2.792703 -1.02957,2.785791 -1.27852,-0.0039 -1.473,-0.08326 -2.31081,-0.943248 z"
             id="path146"
             inkscape:connector-curvature="0" />
          <path
             style="fill:#ffdd55;fill-opacity:1;stroke:none;stroke-width:2.97105718;stroke-miterlimit:4;stroke-dasharray:none;stroke-opacity:1"
             d="m 151.86507,68.037948 c -1.10675,-0.08808 -2.15375,-0.251721 -2.32668,-0.363643 -0.17293,-0.111922 -0.31442,-0.588616 -0.31442,-1.05932 0,-0.793144 0.0778,-0.876774 1.06216,-1.141835 0.58418,-0.157304 1.3852,-0.557832 1.78003,-0.89006 0.93921,-0.790293 1.74844,-0.763639 2.66145,0.08766 1.66038,1.548151 1.95536,1.760282 2.85983,2.056637 0.99703,0.326678 1.07156,0.432442 0.70872,1.005757 -0.26488,0.418518 -3.23406,0.559242 -6.43109,0.304801 z"
             id="path148"
             inkscape:connector-curvature="0" />
          <path
             style="fill:#ffdd55;fill-opacity:1;stroke:none;stroke-width:2.97105718;stroke-miterlimit:4;stroke-dasharray:none;stroke-opacity:1"
             d="m 158.47648,63.217103 c -0.45438,-0.419063 -1.05651,-0.985013 -1.33806,-1.257665 -0.28156,-0.272652 -0.69348,-0.495731 -0.91539,-0.495731 -0.22191,0 -0.64795,-0.198082 -0.94677,-0.440182 l -0.5433,-0.440183 1.00392,-0.980054 c 0.97842,-0.955168 1.05175,-0.980715 2.88803,-1.006132 1.70927,-0.02366 1.94988,0.03565 2.5928,0.639124 0.38977,0.365862 1.08704,0.745028 1.54949,0.842592 0.92349,0.194833 1.54875,1.242098 1.54875,2.594047 0,0.976205 -0.79498,1.306119 -3.14732,1.306119 -1.72781,0 -1.92717,-0.05643 -2.69215,-0.761935 z"
             id="path150"
             inkscape:connector-curvature="0" />
          <path
             style="fill:#ffdd55;fill-opacity:1;stroke:none;stroke-width:2.97105718;stroke-miterlimit:4;stroke-dasharray:none;stroke-opacity:1"
             d="m 93.288,180.57526 c -0.299404,-0.45694 -0.641226,-0.6395 -1.197413,-0.6395 -0.573292,0 -1.044618,-0.26623 -1.788761,-1.01037 l -1.010368,-1.01037 0.04941,-31.86035 c 0.03114,-20.07598 0.139958,-32.02953 0.294211,-32.31775 0.134638,-0.25158 0.406957,-0.45741 0.605152,-0.45741 0.305739,0 0.371113,1.55579 0.431333,10.26496 l 0.07098,10.26497 0.7262,0.86277 0.7262,0.86277 -0.176854,4.0243 c -0.153418,3.49101 -0.248536,4.14029 -0.717763,4.89952 -0.515642,0.83432 -0.538698,1.13884 -0.493584,6.51889 0.04341,5.17716 0.08725,5.68723 0.530355,6.17054 0.265668,0.28977 0.558016,0.88186 0.649664,1.31576 0.113832,0.53893 0.960384,1.59779 2.671633,3.34165 l 2.505,2.55273 -0.06626,8.35465 -0.06626,8.35464 -1.661925,0.0736 c -1.541403,0.0682 -1.692313,0.0272 -2.080946,-0.56595 z"
             id="path152"
             inkscape:connector-curvature="0" />
        </g>
      </g>
    </g>
  </g>
</svg>
