<svg xmlns="http://www.w3.org/2000/svg" width="600" height="600">
<circle cx="300" cy="300" r="300" fill="#102a7e"/>
<path d="m 300,500 -20.47193,-110.30663 -66.30481,90.5004 29.41568,-108.26526 -99.00522,52.76946 73.47716,-84.78065 -112.09644,4.58689 102.98557,-44.50418 -102.98557,-44.50418 112.09643,4.58688 -73.47716,-84.78064 99.00523,52.76945 -29.41568,-108.26526 66.30481,90.50039 L 300,100 l 20.47192,110.30667 66.3048,-90.50039 -29.41566,108.26526 99.00522,-52.76946 -73.47717,84.78064 112.09645,-4.58689 -102.98557,44.5042 102.98557,44.50417 -112.09645,-4.58688 73.47717,84.78065 -99.00522,-52.76946 29.41568,108.26526 -66.30482,-90.5004 z" fill="#fad209"/>
</svg>
