<?xml version="1.0" encoding="UTF-8" standalone="no"?>
<svg
   xmlns:dc="http://purl.org/dc/elements/1.1/"
   xmlns:cc="http://creativecommons.org/ns#"
   xmlns:rdf="http://www.w3.org/1999/02/22-rdf-syntax-ns#"
   xmlns:svg="http://www.w3.org/2000/svg"
   xmlns="http://www.w3.org/2000/svg"
   xmlns:sodipodi="http://sodipodi.sourceforge.net/DTD/sodipodi-0.dtd"
   xmlns:inkscape="http://www.inkscape.org/namespaces/inkscape"
   width="288pt"
   version="1.1"
   height="288.001pt"
   viewBox="0 0 288 288.001"
   id="svg9"
   sodipodi:docname="Malaysian Indian Congress Logo.svg"
   inkscape:version="0.92.2 (5c3e80d, 2017-08-06)">
  <metadata
     id="metadata13">
    <rdf:RDF>
      <cc:Work
         rdf:about="">
        <dc:format>image/svg+xml</dc:format>
        <dc:type
           rdf:resource="http://purl.org/dc/dcmitype/StillImage" />
        <dc:title>Logo of the Malaysian Indian Congress</dc:title>
      </cc:Work>
    </rdf:RDF>
  </metadata>
  <sodipodi:namedview
     pagecolor="#ffffff"
     bordercolor="#666666"
     borderopacity="1"
     objecttolerance="10"
     gridtolerance="10"
     guidetolerance="10"
     inkscape:pageopacity="0"
     inkscape:pageshadow="2"
     inkscape:window-width="1600"
     inkscape:window-height="838"
     id="namedview11"
     showgrid="false"
     inkscape:zoom="1.2291624"
     inkscape:cx="192"
     inkscape:cy="154.68012"
     inkscape:window-x="-8"
     inkscape:window-y="-8"
     inkscape:window-maximized="1"
     inkscape:current-layer="svg9" />
  <title
     id="title2">Logo of the Malaysian Indian Congress</title>
  <defs
     id="defs4" />
  <g
     id="g91">
    <ellipse
       ry="138.72646"
       rx="131.08533"
       cy="142.40285"
       cx="143.21738"
       id="path4635"
       style="fill:#ffffff;fill-opacity:1;stroke:none;stroke-width:2.31827164;stroke-opacity:1" />
    <g
       id="Layer 1">
      <path
         transform="translate(0, 0)"
         id="path6"
         d="M288 144 C288 223.53 223.529 288.001 144.001 288.001 C64.4717 288.001 0 223.53 0 144 C0 64.4707 64.4717 0 144.001 0 C223.529 0 288 64.4707 288 144 Z M144.001 14.186 C72.3062 14.186 14.1861 72.3056 14.1861 144 C14.1861 215.695 72.3062 273.815 144.001 273.815 C215.694 273.815 273.817 215.695 273.817 144 C273.817 72.3056 215.694 14.186 144.001 14.186 Z M157.568 106.791 L157.568 55.5576 C157.568 44.6655 147.156 31.499 132.219 31.499 C119.623 31.499 96.0596 43.1255 96.0596 83.227 C96.0596 93.355 98.5958 104.521 103.191 114.103 C100.34 116.532 98.3121 119.243 97.0958 121.801 C94.4908 127.281 94.9908 133.077 98.4327 137.306 C101.741 141.371 106.673 143.642 112.103 143.642 C112.499 143.642 112.898 143.629 113.298 143.605 C117.701 143.338 122.043 141.699 126.033 138.886 C131.578 141.892 137.611 143.743 143.034 143.124 C147.705 142.593 151.362 140.289 153.616 136.462 C156.721 131.183 156.656 124.927 153.437 119.3 C151.337 115.624 148.154 112.616 144.192 110.418 C145.179 106.063 145.139 102.286 145.093 97.9253 C145.082 96.9941 145.072 96.0244 145.072 95.0019 C145.072 74.3955 138.165 63.9477 124.543 63.9477 C119.409 63.9477 115.044 66.3838 112.253 70.8066 C110.173 74.1006 109.028 78.4834 109.028 83.1465 C109.028 93.6401 114.277 101.257 121.508 101.257 C124.221 101.257 129.276 100.178 132.65 92.9511 C133.232 91.7075 133.728 90.3359 134.13 88.8852 C134.281 90.6914 134.361 92.7207 134.361 95.0019 C134.361 96.0649 134.372 97.0718 134.382 98.039 C134.417 101.407 134.446 104.092 133.969 106.882 C131.652 106.47 129.214 106.255 126.685 106.255 C121.216 106.255 116.481 107.188 112.473 108.698 C108.788 100.732 106.771 91.4717 106.771 83.227 C106.771 51.5976 123.328 44.4536 132.219 44.4536 C141.019 44.4536 146.857 50.6543 146.857 55.5576 L146.857 106.791 L157.568 106.791 Z M122.619 89.1181 C120.302 89.1181 118.424 86.9204 118.424 84.209 C118.424 81.498 120.302 79.2998 122.619 79.2998 C124.936 79.2998 126.814 81.498 126.814 84.209 C126.814 86.9204 124.936 89.1181 122.619 89.1181 Z M136.215 127.852 C137.881 125.206 139.238 122.827 140.342 120.648 C142.104 121.866 143.363 123.259 144.141 124.618 C144.879 125.91 145.895 128.462 144.383 131.031 C144.003 131.677 143.43 132.3 141.823 132.483 C139.739 132.724 137.027 132.115 134.125 130.893 C134.849 129.929 135.547 128.914 136.215 127.852 Z M126.685 116.966 C127.886 116.966 129.026 117.027 130.105 117.142 C129.285 118.653 128.31 120.306 127.151 122.146 C126.439 123.276 125.686 124.332 124.899 125.308 C123.492 124.181 122.152 122.959 120.933 121.673 C119.924 120.608 118.949 119.437 118.014 118.175 C120.556 117.418 123.461 116.966 126.685 116.966 Z M108.724 123.597 C110.121 125.572 111.604 127.399 113.158 129.039 C114.121 130.056 115.177 131.074 116.31 132.071 C115.083 132.553 113.855 132.841 112.65 132.914 C110.922 133.023 108.488 132.694 106.739 130.544 C105.727 129.3 106.196 127.603 106.77 126.399 C107.214 125.465 107.869 124.515 108.724 123.597 Z M220.048 142.579 L220.048 78.6709 C221.393 80.27 224.717 84.4238 226.143 86.5117 L226.143 142.579 L237.096 142.579 L237.096 100.288 C237.096 100.288 240.887 108.51 242.513 114.451 L251.834 109.814 C244.39 86.312 229.468 66.1528 209.873 52.084 L209.873 142.579 L220.048 142.579 Z M160.246 99.8291 C160.246 105.363 160.246 123.749 160.246 130.509 C160.246 138.693 168.24 143.237 175.776 143.237 C183.313 143.237 187.715 140.568 187.715 140.568 C200.769 147.06 207.017 132.778 207.017 118.497 C207.017 108.143 207.017 106.612 207.017 106.612 C207.017 96.4497 200.584 90.0058 192.021 86.6386 L192.021 55.9756 C195.502 57.789 200.055 60.7124 204.434 64.0029 L204.434 48.4131 C192.908 41.1108 179.983 35.8232 166.137 33.0747 L166.137 87.709 C162.296 91.2778 160.246 96.4692 160.246 99.8291 Z M192.021 103.042 C192.021 101.079 197.733 101.614 197.733 109.29 L197.733 123.329 C197.733 130.975 192.021 131.629 192.021 128.595 L192.021 103.042 Z M174.349 48.4306 C176.803 49.1758 179.743 50.268 181.489 50.9917 L181.489 84.0879 C179.593 83.8696 177.676 83.7627 175.776 83.7627 C175.286 83.7627 174.817 83.8076 174.349 83.8564 L174.349 48.4306 Z M170.064 104.113 C170.064 100.186 173.813 96.7944 176.848 96.7944 C179.883 96.7944 181.489 98.0439 181.489 100.9 C181.489 100.9 181.489 124.231 181.489 127.801 C181.489 131.372 178.99 133.032 175.776 133.032 C172.563 133.032 170.064 129.105 170.064 125.892 C170.064 122.679 170.064 108.04 170.064 104.113 Z M93.441 54.2627 C93.441 48.7685 87.6202 46.1953 84.1875 48.0156 C83.5665 48.4033 82.9522 48.8008 82.3399 49.1997 C78.1734 52.102 70.1216 58.4741 66.5225 61.6391 C66.0806 62.0552 65.6397 62.4721 65.2042 62.8965 C62.1587 66.3159 61.4488 72.501 61.4488 75.9883 C61.4488 79.6885 61.4488 131.023 61.4488 131.023 L44.5811 131.023 C46.0845 119.411 49.732 107.822 54.8829 98.0346 L54.8829 74.3955 C40.1412 93.2427 31.2491 116.872 30.9307 142.579 L93.441 142.579 C93.441 142.579 93.441 59.8735 93.441 54.2627 Z M82.8174 131.023 L74.8194 131.022 C74.8194 131.022 74.8194 79.2832 74.8194 75.3442 C74.8194 73.4697 75.6182 71.2397 76.7681 69.9057 C77.7925 68.7173 78.9981 67.5957 79.75 67.0522 C81.856 65.5322 82.8174 68.6782 82.8174 70.7099 C82.8174 72.7412 82.8174 131.023 82.8174 131.023 Z M133.187 156.657 L133.187 256.579 C136.747 256.918 140.352 257.105 144.001 257.105 C147.095 257.105 150.15 256.947 153.181 256.703 L153.181 156.657 L133.187 156.657 Z M160.246 156.657 L160.246 255.928 C192.627 251.268 220.575 232.905 238.014 206.888 C238.017 206.766 238.03 206.645 238.03 206.522 L207.845 206.522 C200.769 215.03 192.794 220.86 180.655 225.621 L180.655 176.828 L226.536 176.858 C224.985 182.48 221.074 189.562 217.719 194.475 L244.998 194.475 C245.07 194.484 245.135 194.485 245.204 194.495 C251.012 182.878 254.883 170.128 256.384 156.657 L160.246 156.657 Z M113.43 156.657 C104.659 156.657 95.7061 158.627 85.4483 172.157 C75.191 158.627 66.2383 156.657 57.4673 156.657 L52.2173 156.657 C52.2125 156.623 31.7139 156.657 31.7139 156.657 C31.7139 156.657 31.6797 156.7 31.6309 156.764 C36.3199 198.492 63.7022 233.339 101.158 248.684 L101.158 226.28 C81.6612 216.19 66.1578 199.303 57.8628 178.22 C63.0718 179.114 70.2754 182.643 74.8702 196.385 C74.8687 196.391 74.8672 196.394 74.8663 196.4 L74.8765 196.403 L96.0206 196.403 L96.0308 196.4 C96.0293 196.394 96.0284 196.391 96.0269 196.385 C98.9122 187.754 103.501 183.82 107.306 181.184 L107.306 250.984 C113.732 253.188 120.409 254.85 127.299 255.869 L127.299 156.657 L113.43 156.657 Z"
         style="fill:#01a45e;fill-rule:nonzero;stroke:none" />
    </g>
  </g>
</svg>
