<svg xmlns="http://www.w3.org/2000/svg" xmlns:xlink="http://www.w3.org/1999/xlink" zoomAndPan="magnify" preserveAspectRatio="xMidYMid meet" version="1.0" viewBox="327.19 548.93 2620.31 645"><defs><g/><clipPath id="372f9d3b77"><path d="M 327.191406 548.929688 L 1009 548.929688 L 1009 1180 L 327.191406 1180 Z M 327.191406 548.929688 " clip-rule="nonzero"/></clipPath><clipPath id="3a1f4341eb"><path d="M 1109 548.929688 L 1649 548.929688 L 1649 1193.929688 L 1109 1193.929688 Z M 1109 548.929688 " clip-rule="nonzero"/></clipPath><clipPath id="1c9262607e"><path d="M 1750 548.929688 L 2314.691406 548.929688 L 2314.691406 1180 L 1750 1180 Z M 1750 548.929688 " clip-rule="nonzero"/></clipPath></defs><g clip-path="url(#372f9d3b77)"><path fill="#000000" d="M 327.949219 864.136719 L 327.949219 1179.339844 L 392.683594 1179.1875 L 457.34375 1178.957031 L 457.726562 957.429688 C 458.109375 750.492188 458.1875 736.058594 459.414062 737.824219 C 460.105469 738.898438 462.027344 743.734375 463.714844 748.574219 C 465.40625 753.410156 472.546875 773.835938 479.613281 793.878906 C 486.675781 813.917969 493.742188 834.113281 495.355469 838.796875 C 499.191406 849.929688 514.78125 894.621094 517.777344 902.914062 C 519.003906 906.523438 523.84375 920.34375 528.527344 933.628906 C 533.132812 946.910156 537.972656 960.734375 539.277344 964.339844 C 540.507812 967.949219 545.34375 981.773438 550.027344 995.054688 C 554.636719 1008.339844 559.472656 1022.160156 560.777344 1025.769531 C 562.007812 1029.378906 566.84375 1043.199219 571.453125 1056.484375 C 576.058594 1069.769531 580.054688 1081.210938 580.285156 1081.824219 C 580.976562 1083.667969 589.730469 1108.699219 599.328125 1136.339844 C 604.320312 1150.46875 609.695312 1165.980469 611.460938 1170.742188 L 614.609375 1179.339844 L 721.039062 1179.339844 L 722.191406 1177.191406 C 722.808594 1175.960938 726.875 1164.828125 731.101562 1152.390625 C 738.242188 1131.886719 743.925781 1115.378906 774.332031 1027.691406 C 791.535156 978.085938 842.597656 830.734375 853.582031 798.867188 C 857.652344 787.042969 863.640625 769.921875 866.789062 760.859375 C 869.9375 751.796875 873.316406 741.894531 874.3125 738.976562 C 875.3125 735.980469 876.617188 733.601562 877.15625 733.601562 C 878 733.601562 878.152344 773.835938 878.382812 956.507812 L 878.539062 1179.417969 L 943.273438 1179.1875 L 1007.929688 1178.957031 L 1008.160156 863.90625 L 1008.3125 548.929688 L 910.636719 549.085938 L 812.882812 549.316406 L 806.890625 567.742188 C 798.675781 592.851562 774.027344 669.175781 768.035156 688.144531 C 766.347656 693.289062 759.4375 714.789062 752.601562 735.902344 C 745.765625 757.019531 737.242188 783.433594 733.710938 794.644531 C 730.101562 805.855469 725.109375 821.210938 722.652344 828.816406 C 720.195312 836.417969 715.128906 851.925781 711.519531 863.367188 C 687.40625 938.542969 673.429688 981.542969 672.816406 982.234375 C 671.816406 983.230469 670.664062 981.15625 668.59375 975.089844 C 667.59375 971.941406 661.988281 955.511719 656.230469 938.617188 C 646.324219 909.746094 642.5625 898.691406 627.511719 854.382812 C 624.132812 844.554688 616.527344 822.132812 610.539062 804.628906 C 604.550781 787.121094 596.792969 764.316406 593.261719 753.949219 C 586.65625 734.367188 571.070312 688.835938 551.792969 632.242188 C 545.574219 614.046875 536.667969 587.9375 532.058594 574.039062 L 523.613281 548.929688 L 327.949219 548.929688 Z M 327.949219 864.136719 " fill-opacity="1" fill-rule="nonzero"/></g><g clip-path="url(#3a1f4341eb)"><path fill="#000000" d="M 1110.214844 551.773438 C 1109.984375 553.382812 1109.90625 645.375 1109.984375 756.253906 C 1110.214844 961.960938 1110.214844 962.882812 1113.132812 988.144531 C 1119.964844 1046.425781 1139.703125 1091.191406 1173.257812 1124.363281 C 1206.816406 1157.535156 1252.199219 1178.878906 1307.871094 1187.710938 C 1342.964844 1193.238281 1344.578125 1193.394531 1374.601562 1193.777344 C 1403.324219 1194.085938 1408.082031 1193.855469 1430.660156 1190.78125 C 1481.417969 1183.871094 1517.28125 1171.96875 1550.453125 1151.160156 C 1564.660156 1142.175781 1575.179688 1133.882812 1586.542969 1122.519531 C 1623.328125 1085.894531 1643.90625 1034.0625 1647.976562 967.796875 C 1648.976562 951.519531 1649.128906 911.898438 1648.898438 714.558594 L 1648.746094 548.929688 L 1510.523438 548.929688 L 1510.523438 736.824219 C 1510.523438 916.582031 1510.136719 957.355469 1508.21875 973.554688 C 1503.148438 1015.632812 1487.714844 1045.65625 1463.679688 1059.863281 C 1451.929688 1066.773438 1442.484375 1070 1420.371094 1074.527344 C 1412.152344 1076.140625 1389.117188 1077.984375 1375.371094 1077.984375 C 1351.796875 1077.984375 1326.226562 1073.148438 1311.558594 1065.773438 C 1300.578125 1060.324219 1287.523438 1051.417969 1280.917969 1044.964844 C 1268.171875 1032.449219 1258.804688 1014.097656 1254.117188 992.292969 C 1249.664062 971.558594 1249.894531 984.304688 1249.664062 757.171875 L 1249.433594 548.929688 L 1110.597656 548.929688 Z M 1110.214844 551.773438 " fill-opacity="1" fill-rule="nonzero"/></g><g clip-path="url(#1c9262607e)"><path fill="#000000" d="M 1751.03125 863.90625 L 1751.261719 1178.957031 L 1770.6875 1179.1875 L 1790.039062 1179.339844 L 1790.039062 588.015625 L 1919.660156 588.320312 C 2047.285156 588.550781 2049.4375 588.628906 2062.261719 590.242188 C 2108.335938 596.152344 2143.582031 608.976562 2176.371094 631.78125 C 2209.621094 654.972656 2234.117188 686.378906 2251.78125 728.609375 C 2268.441406 768.382812 2276.660156 819.214844 2275.046875 872.964844 C 2271.820312 979.238281 2236.039062 1056.332031 2169.382812 1100.636719 C 2133.90625 1124.210938 2095.28125 1136.570312 2048.132812 1139.414062 C 2041.144531 1139.875 2013.269531 1140.257812 1986.238281 1140.410156 L 1937.09375 1140.566406 L 1936.863281 1159.992188 L 1936.707031 1179.496094 L 1993.304688 1179.109375 C 2051.742188 1178.726562 2057.117188 1178.496094 2080.691406 1175.117188 C 2112.710938 1170.511719 2141.355469 1161.296875 2168.617188 1146.785156 C 2192.804688 1133.882812 2210.3125 1120.832031 2230.046875 1101.019531 C 2271.359375 1059.632812 2296.777344 1006.113281 2308.679688 935.546875 C 2312.90625 910.207031 2314.054688 894.464844 2314.054688 861.066406 C 2314.054688 830.121094 2313.75 825.4375 2310.601562 800.019531 C 2301.386719 726.230469 2270.054688 661.652344 2222.753906 618.882812 C 2180.75 580.949219 2133.367188 560.523438 2065.714844 551.082031 L 2053.046875 549.316406 L 1901.921875 549.085938 L 1750.875 548.929688 Z M 1751.03125 863.90625 " fill-opacity="1" fill-rule="nonzero"/></g><path fill="#000000" d="M 1813.691406 610.128906 C 1812.386719 610.4375 1812.308594 624.640625 1812.308594 894.925781 L 1812.308594 1179.339844 L 1831.734375 1179.1875 L 1851.085938 1178.957031 L 1851.472656 914.046875 L 1851.855469 649.136719 L 1932.484375 648.90625 C 2013.652344 648.675781 2042.21875 649.289062 2058.804688 651.363281 C 2096.585938 656.199219 2129.453125 670.097656 2153.640625 691.523438 C 2184.894531 719.085938 2205.859375 764.316406 2211.542969 816.144531 C 2214.382812 842.097656 2214.613281 878.726562 2212.078125 901.378906 C 2205.859375 956.816406 2189.195312 998.511719 2161.703125 1027.691406 C 2137.746094 1053.105469 2107.105469 1069.230469 2070.324219 1075.605469 C 2052.890625 1078.675781 2047.132812 1078.90625 1991.460938 1079.289062 L 1936.707031 1079.671875 L 1936.707031 1118.835938 L 1991.074219 1118.449219 C 2046.902344 1118.066406 2053.890625 1117.757812 2075.007812 1114.457031 C 2142.351562 1103.859375 2195.953125 1064.085938 2225.054688 1003.117188 C 2238.496094 975.015625 2246.632812 944.453125 2251.320312 904.066406 C 2252.394531 894.851562 2252.699219 886.171875 2252.699219 860.296875 C 2252.699219 831.273438 2252.546875 826.664062 2250.933594 813.839844 C 2239.492188 722.234375 2197.566406 659.347656 2127.917969 629.554688 C 2101.730469 618.34375 2074.085938 612.585938 2036.304688 610.359375 C 2023.019531 609.589844 1816.53125 609.359375 1813.691406 610.128906 Z M 1813.691406 610.128906 " fill-opacity="1" fill-rule="nonzero"/><path fill="#000000" d="M 1873.355469 671.941406 C 1873.125 672.480469 1873.050781 786.8125 1873.125 925.949219 L 1873.355469 1178.957031 L 1912.136719 1178.957031 L 1912.441406 1162.832031 C 1912.597656 1153.925781 1912.75 1048.5 1912.828125 928.40625 L 1912.902344 710.105469 L 1977.253906 710.410156 C 2018.414062 710.640625 2044.136719 711.101562 2048.824219 711.640625 C 2056.117188 712.484375 2066.714844 714.863281 2078.386719 718.242188 C 2091.980469 722.082031 2108.71875 732.21875 2118.011719 742.125 C 2129.453125 754.332031 2141.046875 776.753906 2145.886719 795.949219 C 2150.644531 814.609375 2152.644531 832.039062 2152.644531 856.074219 C 2152.71875 886.558594 2150.417969 906.984375 2143.660156 934.011719 C 2138.511719 954.589844 2127.070312 976.011719 2114.863281 987.835938 C 2105.878906 996.515625 2104.957031 997.207031 2094.898438 1003.042969 C 2072.011719 1016.171875 2058.882812 1018.015625 1983.550781 1018.320312 L 1937.09375 1018.476562 L 1936.863281 1037.824219 L 1936.707031 1057.097656 L 1941.46875 1057.40625 C 1944.15625 1057.484375 1969.269531 1057.40625 1997.371094 1057.175781 C 2052.429688 1056.714844 2056.269531 1056.40625 2075.699219 1052.109375 C 2102.574219 1046.117188 2125.765625 1033.449219 2143.734375 1014.941406 C 2154.714844 1003.578125 2161.550781 993.75 2169.230469 978.46875 C 2185.816406 945.296875 2194.570312 892.929688 2191.804688 842.867188 C 2189.578125 802.246094 2183.128906 775.066406 2169.304688 747.730469 C 2145.960938 701.734375 2106.339844 677.46875 2046.132812 672.171875 C 2028.472656 670.636719 1873.894531 670.484375 1873.355469 671.941406 Z M 1873.355469 671.941406 " fill-opacity="1" fill-rule="nonzero"/><g fill="#000000" fill-opacity="1"><g transform="translate(2314.795412, 1180.700596)"><g><path d="M 632.703125 0 L 493.671875 0 L 439.109375 -142.5625 L 187.4375 -142.5625 L 135.515625 0 L 0 0 L 245.515625 -630.0625 L 380.15625 -630.0625 Z M 226.15625 -249.03125 L 398.640625 -249.03125 L 311.515625 -483.109375 Z M 226.15625 -249.03125 "/></g></g></g></svg>