<?xml version="1.0" encoding="UTF-8" standalone="no"?>
<svg
   xmlns:dc="http://purl.org/dc/elements/1.1/"
   xmlns:cc="http://creativecommons.org/ns#"
   xmlns:rdf="http://www.w3.org/1999/02/22-rdf-syntax-ns#"
   xmlns:svg="http://www.w3.org/2000/svg"
   xmlns="http://www.w3.org/2000/svg"
   xmlns:sodipodi="http://sodipodi.sourceforge.net/DTD/sodipodi-0.dtd"
   xmlns:inkscape="http://www.inkscape.org/namespaces/inkscape"
   width="366.184255657"
   version="1.1"
   height="273.086563541"
   viewBox="0 0 708 528">
  <defs
     id="defs32">
    <clipPath
       id="Clip0">
      <path
         d="M0 0 L708.122 0 L708.122 527.878 L0 527.878 L0 0 Z"
         transform="translate(-0.116, 0.423)"
         id="path2" />
    </clipPath>
    <clipPath
       id="Clip1">
      <path
         d="M0 0 L670.738 0 L670.738 483.592 L0 483.592 L0 0 Z"
         transform="translate(18.576, 14.108)"
         id="path5" />
    </clipPath>
    <clipPath
       id="Clip2">
      <path
         d="M0 0 L670.738 0 L670.738 306.914 L0 306.914 L0 0 Z"
         transform="translate(18.576, 14.108)"
         id="path8" />
    </clipPath>
    <clipPath
       id="Clip3">
      <path
         d="M0 0 L670.738 0 L670.738 158.38 L0 158.38 L0 0 Z"
         transform="translate(18.576, 14.108)"
         id="path11" />
    </clipPath>
    <clipPath
       id="Clip4">
      <path
         d="M0 0 L670.738 0 L670.738 158.38 L0 158.38 L0 0 Z"
         transform="translate(18.576, 162.642)"
         id="path14" />
    </clipPath>
    <clipPath
       id="Clip5">
      <path
         d="M0 0 L578.6 0 L578.6 266.765 L0 266.765 L0 0 Z"
         transform="translate(65.0601, 39.5213)"
         id="path17" />
    </clipPath>
    <clipPath
       id="Clip6">
      <path
         d="M0 0 L578.6 0 L578.6 215.728 L0 215.728 L0 0 Z"
         transform="translate(65.0601, 62.7803)"
         id="path20" />
    </clipPath>
    <clipPath
       id="Clip7">
      <path
         d="M0 0 L535.196 0 L535.196 266.765 L0 266.765 L0 0 Z"
         transform="translate(87.1038, 39.5213)"
         id="path23" />
    </clipPath>
    <clipPath
       id="Clip8">
      <path
         d="M0 0 L221.486 0 L221.486 266.765 L0 266.765 L0 0 Z"
         transform="translate(239.405, 39.5213)"
         id="path26" />
    </clipPath>
    <clipPath
       id="Clip9">
      <path
         d="M0 0 L212.602 0 L212.602 248.224 L0 248.224 L0 0 Z"
         transform="translate(269.796, 42.5784)"
         id="path29" />
    </clipPath>
  </defs>
  <g
     id="g356">
    <g
       id="g323">
      <g
         id="Layer_1">
        <g
           id="Group10"
           clip-path="url(#Clip0)">
          <g
             id="Group9"
             clip-path="url(#Clip1)">
            <g
               id="Group3"
               clip-path="url(#Clip2)">
              <g
                 id="Group1"
                 clip-path="url(#Clip3)">
                <path
                   style="fill:none;stroke:#161413;stroke-width:9.84589958;stroke-linecap:butt;stroke-linejoin:miter;stroke-dasharray:none"
                   d="M 0,148.534 H 660.892 V 0 H 0 Z"
                   transform="translate(23.4989,19.031)"
                   id="path34"
                   inkscape:connector-curvature="0" />
                <path
                   style="fill:#e20010;fill-rule:evenodd;stroke:none"
                   d="M 0,148.534 H 660.892 V 0 H 0 Z"
                   transform="translate(23.4989,19.031)"
                   id="path36"
                   inkscape:connector-curvature="0" />
              </g>
              <g
                 id="Group2"
                 clip-path="url(#Clip4)">
                <path
                   style="fill:none;stroke:#161413;stroke-width:9.84589958;stroke-linecap:butt;stroke-linejoin:miter;stroke-dasharray:none"
                   d="M 660.892,0 H 0 v 148.534 h 660.892 z"
                   transform="translate(23.4989,167.565)"
                   id="path39"
                   inkscape:connector-curvature="0" />
                <path
                   style="fill:#ffffff;fill-rule:evenodd;stroke:none"
                   d="M 660.892,0 H 0 v 148.534 h 660.892 z"
                   transform="translate(23.4989,167.565)"
                   id="path41"
                   inkscape:connector-curvature="0" />
              </g>
            </g>
            <g
               id="Group8"
               clip-path="url(#Clip5)">
              <g
                 id="Group4"
                 clip-path="url(#Clip6)">
                <path
                   style="fill:none;stroke:#161413;stroke-width:9.84609985;stroke-linecap:butt;stroke-linejoin:miter;stroke-dasharray:none"
                   d="M 75.5385,0 H 503.139 l 65.614,102.941 -65.614,102.941 H 75.5385 L 0,102.941 Z"
                   transform="translate(69.9831,67.7033)"
                   id="path45"
                   inkscape:connector-curvature="0" />
              </g>
              <g
                 id="Group7"
                 clip-path="url(#Clip7)">
                <g
                   id="Group5"
                   clip-path="url(#Clip8)">
                  <path
                     style="fill:#ffffff;fill-rule:evenodd;stroke:none"
                     d="M 203.802,255.821 7.126,22.0904 0,0 15.677,11.4016 17.1023,21.3778 211.64,252.971 l -0.446,3.948 z"
                     id="path54"
                     inkscape:connector-curvature="0"
                     transform="translate(244.328,44.4444)" />
                </g>
                <g
                   id="Group6"
                   clip-path="url(#Clip9)" />
              </g>
            </g>
            <path
               style="fill:#161413;fill-rule:nonzero;stroke:none"
               d="m 0,0 h 80.045 c 17.4166,0 30.48,4.138 39.151,12.4472 8.673,8.2721 13.028,20.1014 13.028,35.3784 0,15.7479 -4.718,28.048 -14.189,36.9006 -9.469,8.8543 -23.9112,13.2806 -43.3243,13.2806 H 48.3689 V 155.846 H 0 Z m 48.3689,66.4387 h 11.7922 c 9.288,0 15.7833,-1.5964 19.5582,-4.8262 3.736,-3.2281 5.6225,-7.3661 5.6225,-12.3727 0,-4.8991 -1.6316,-9.0703 -4.8969,-12.4455 -3.23,-3.4104 -9.3622,-5.1165 -18.36,-5.1165 H 48.3689 Z M 172.036,0 h 90.168 c 15.023,0 26.562,3.7378 34.581,11.1765 8.056,7.4384 12.082,16.6555 12.082,27.6125 0,9.2172 -2.865,17.1281 -8.599,23.7314 -3.846,4.3909 -9.433,7.8738 -16.799,10.4134 11.174,2.6849 19.411,7.3306 24.71,13.8611 5.262,6.5679 7.909,14.8041 7.909,24.7101 0,8.092 -1.887,15.35 -5.624,21.808 -3.773,6.458 -8.89,11.539 -15.421,15.312 -4.028,2.322 -10.123,4.028 -18.287,5.079 -10.849,1.416 -18.035,2.142 -21.59,2.142 h -83.13 V 0 Z m 48.587,61.1416 h 20.937 c 7.509,0 12.735,-1.3062 15.71,-3.8829 2.94,-2.6124 4.391,-6.3501 4.391,-11.2118 0,-4.536 -1.451,-8.0915 -4.391,-10.6311 -2.975,-2.577 -8.091,-3.8458 -15.385,-3.8458 h -21.262 z m 0,61.2124 h 24.565 c 8.309,0 14.151,-1.451 17.524,-4.389 3.413,-2.94 5.117,-6.895 5.117,-11.867 0,-4.607 -1.669,-8.3089 -5.044,-11.1016 -3.373,-2.7947 -9.253,-4.2106 -17.707,-4.2106 H 220.623 Z M 355.9,0 h 90.168 c 15.023,0 26.562,3.7378 34.581,11.1765 8.056,7.4384 12.082,16.6555 12.082,27.6125 0,9.2172 -2.865,17.1281 -8.599,23.7314 -3.846,4.3909 -9.433,7.8738 -16.799,10.4134 11.174,2.6849 19.411,7.3306 24.71,13.8611 5.261,6.5679 7.909,14.8041 7.909,24.7101 0,8.092 -1.887,15.35 -5.624,21.808 -3.774,6.458 -8.89,11.539 -15.421,15.312 -4.028,2.322 -10.123,4.028 -18.287,5.079 -10.849,1.416 -18.035,2.142 -21.59,2.142 H 355.9 Z m 48.587,61.1416 h 20.937 c 7.509,0 12.735,-1.3062 15.71,-3.8829 2.94,-2.6124 4.391,-6.3501 4.391,-11.2118 0,-4.536 -1.451,-8.0915 -4.391,-10.6311 -2.975,-2.577 -8.091,-3.8458 -15.385,-3.8458 h -21.262 z m 0,61.2124 h 24.565 c 8.309,0 14.151,-1.451 17.524,-4.389 3.413,-2.94 5.117,-6.895 5.117,-11.867 0,-4.607 -1.669,-8.3089 -5.044,-11.1016 -3.373,-2.7947 -9.253,-4.2106 -17.707,-4.2106 h -24.455 z"
               transform="translate(111.842,341.854)"
               id="path64"
               inkscape:connector-curvature="0" />
          </g>
        </g>
      </g>
      <path
         style="fill:#ffec00;fill-rule:evenodd;stroke:none;stroke-width:0.99999994"
         d="m 145.5216,67.7033 h 427.60048 l 65.614,102.941 -65.614,102.941 H 145.5216 L 69.983105,170.6443 Z"
         id="path47-5"
         inkscape:connector-curvature="0" />
      <g
         id="g110">
        <path
           d="m 341.3308,132.3017 c 15.76001,-17.1952 17.06301,-34.8911 3.33401,-53.7627 -5.001,11.2527 -12.92001,40.0096 -38.343,35.4251 v 39.81625 c 8.285,0 15.00399,6.7182 15.00399,15.00319 0,8.28501 -6.71899,15.004 -15.00399,15.004 v 37.818 c 1.073,-0.216 2.183,-0.396 3.33399,-0.53299 l 3.33401,10.00299 c 18.489,-11.43 30.92099,14.67201 37.93199,23.982 2.742,-4.41699 5.235,-8.648 6.735,-12.85599 l -0.032,-0.369 M 168.32831,156.76079 c -1.2243,-7.6023 -3.5665,-15.1359 -6.8542,-22.60779 -1.0048,-0.9841 -2.2291,-1.8884 -3.8327,-2.6532 -1.7379,4.0487 -2.6422,7.4702 -4.3818,11.5206 -3.0067,-0.9879 -5.9666,-2.0838 -5.6336,-5.8643 4.2308,-28.7309 11.1799,-46.1756 -4.5918,-56.3471 1.2251,12.3715 -1.5899,20.1435 -5.0851,28.0148 v 48.9305 c 6.0897,0 11.0294,4.94 11.0294,11.02899 0,6.09 -4.9397,11.03 -11.0294,11.03 v 49.285 c 3.9121,7.172 7.3052,15.171 7.5019,26.149 17.1097,-15.046 1.6671,-38.891 2.5005,-60.848 6.1214,-2.632 6.7464,7.402 7.0869,12.1 1.0939,-1.29 3.6133,-3.295 6.9139,-5.468 2.4149,-5.208 4.201,-10.379 5.4086,-15.51 l -1.9052,0.126 0.5785,-4.915 2.7593,-3.301 c 0.7013,-5.85699 0.6715,-11.66699 -0.0111,-17.4371 l -0.4986,-0.63439 z M 306.3218,113.9641 v 39.816 c -8.285,0 -15.003,6.7182 -15.003,15.00319 0,8.285 6.718,15.004 15.003,15.004 v 37.818 c -20.177,4.065 -26.45399,21.731 -16.67,39.893 -8.33899,6.937 -6.948,1.936 -10.836,13.337 0.99101,-16.393 -10.989,-15.283 -13.336,-31.674 -12.51699,-6.655 -19.323,-15.826 -16.254,-27.506 26.70201,16.363 28.375,-22.149 4.584,-16.254 -8.771,9.689 -16.548,20.282 -31.674,24.172 -0.81199,16.285 7.59701,20.723 19.588,25.839 -6.142,6.071 -19.26599,8.853 -35.42499,3.751 l 5.001,12.503 c -12.371,-8.424 -17.514,-10.438 -18.755,-25.006 l -14.1694,-7.502 c 0.9712,-4.688 5.1407,-5.036 8.3353,-9.168 -2.3091,-7.999 -8.9867,-18.563 -2.9174,-23.756 2.7091,3.794 9.9335,3.584 13.7535,4.585 4.543,-20.441 -13.1767,-15.942 -27.2631,-8.657 1.7807,-4.554 3.0869,-9.074 3.9537,-13.568 17.1544,-16.02099 40.7774,-2.685 44.9804,18.269 9.169,-10.417 18.34,-25.225 25.423,-34.80299 -4.24401,-12.6804 -15.778,-20.3904 -25.64901,-29.3249 -1.66999,10.33539 -11.685,33.02889 -37.56149,24.50889 -2.7238,-2.9097 -5.2001,-6.8244 -7.8979,-9.84019 -0.8691,-3.78251 -2.0094,-7.54841 -3.3956,-11.2975 l 2.7389,-1.9031 8.3463,6.912 c 9.3878,7.4049 19.1448,-6.7612 9.8068,-12.9867 l -8.9731,2.5135 -4.5882,-4.8189 c 7.7715,-15.0386 2.5265,-14.5086 -0.2103,-20.3173 l -0.6251,-8.1695 11.3247,0.5545 c 1.172,-9.1653 3.595,-30.2715 21.46,-32.9414 l -0.415,13.3384 c 6.858,-2.683 18.36899,-2.363 24.779,0.1842 2.002,2.9994 3.768,6.1138 4.24399,10.0211 l -0.043,0.0445 -7.93,-0.4187 c -5.233,6.3335 -9.375,13.2826 -9.598,22.4141 11.956,3.7956 22.27799,14.1497 32.552,24.7176 l 8.557,1.6764 8.971,-12.1493 -11.476,-12.5683 -5.665,4.4226 -5.834,-0.4166 -4.873,-10.9645 c 3.875,-4.9583 10.41,-9.1967 14.532,-14.047 1.087,0.1635 1.902,0.1896 2.151,-0.0392 12.66099,-11.5744 -10.873,-35.0807 17.363,-27.8784 0.279,12.2238 24.312,37.7858 29.59,46.6775 z m -168.37269,-5.1403 c -3.3468,7.5382 -7.3176,15.1676 -8.9623,27.015 -6.389,0.7682 -11.3196,0.491 -17.7105,0.2137 -2.1192,2.3556 -3.7194,5.41249 -4.1678,10.0024 -8.443,1.44759 -18.5534,2.3723 -20.0047,14.08239 31.5105,-7.46979 29.0061,26.956 0,15.92501 2.9118,9.95399 10.4153,15.09299 20.0047,16.66999 0.4206,2.787 -2.3945,3.896 -3.0195,6.894 10.3521,5.282 14.341,2.203 21.9824,2.262 1.2898,10.578 6.9894,18.249 11.8777,27.21 v -49.285 c -6.0896,0 -11.0293,-4.94 -11.0293,-11.03 0,-6.08899 4.9397,-11.02899 11.0293,-11.02899 z"
           style="fill:#161413;fill-rule:evenodd;stroke:none;stroke-width:0.99999994" />
        <path
           sodipodi:nodetypes="ccccccccscccccccccccccccscccccccccccccccscccccccccccccccccccccccccccccccccccccccccccccccccccccccccccc"
           inkscape:connector-curvature="0"
           id="path50-3-3"
           d="m 368.0728,132.3017 c -15.76001,-17.1952 -17.06301,-34.8911 -3.33402,-53.7627 5.001,11.2527 12.92001,40.0096 38.34301,35.4251 v 39.81625 c -8.28501,0 -15.00399,6.7182 -15.00399,15.00319 0,8.28501 6.71898,15.004 15.00399,15.004 v 37.818 c -1.07301,-0.216 -2.18301,-0.396 -3.33399,-0.53299 l -3.33402,10.00299 c -18.489,-11.43 -30.92098,14.67201 -37.93198,23.982 -2.742,-4.41699 -5.235,-8.648 -6.735,-12.85599 l 0.032,-0.369 m 189.29648,-85.07176 c 1.2243,-7.6023 3.5665,-15.1359 6.8542,-22.60779 1.0048,-0.9841 2.2291,-1.8884 3.8327,-2.6532 1.7379,4.0487 2.6422,7.4702 4.3818,11.5206 3.0067,-0.9879 5.9666,-2.0838 5.6336,-5.8643 -4.2308,-28.7309 -11.1799,-46.1756 4.5918,-56.3471 -1.2251,12.3715 1.5899,20.1435 5.0851,28.0148 v 48.9305 c -6.0897,0 -11.0294,4.94001 -11.0294,11.02899 0,6.09 4.9397,11.03001 11.0294,11.03001 v 49.28499 c -3.9121,7.172 -7.3052,15.171 -7.5019,26.149 -17.1097,-15.046 -1.6671,-38.891 -2.5005,-60.848 -6.1214,-2.632 -6.7464,7.402 -7.0869,12.1 -1.0939,-1.29 -3.6133,-3.295 -6.9139,-5.468 -2.41489,-5.208 -4.201,-10.379 -5.40859,-15.51 l 1.90519,0.126 -0.5785,-4.915 -2.7593,-3.30099 c -0.70129,-5.85699 -0.6715,-11.667 0.0111,-17.43711 l 0.4986,-0.63438 z M 403.08179,113.9641 v 39.81601 c 8.285,0 15.003,6.7182 15.003,15.00318 0,8.285 -6.718,15.004 -15.003,15.004 v 37.818 c 20.177,4.065 26.45399,21.731 16.67001,39.893 8.33898,6.937 6.948,1.936 10.836,13.337 -0.99102,-16.393 10.98899,-15.283 13.33599,-31.674 12.51699,-6.655 19.323,-15.826 16.254,-27.506 -26.70201,16.363 -28.37499,-22.149 -4.584,-16.254 8.77101,9.689 16.548,20.282 31.674,24.172 0.81199,16.285 -7.59701,20.723 -19.588,25.839 6.142,6.071 19.26599,8.853 35.42499,3.751 l -5.001,12.503 c 12.371,-8.424 17.514,-10.438 18.755,-25.006 l 14.16941,-7.502 c -0.97121,-4.688 -5.14071,-5.036 -8.33531,-9.168 2.3091,-7.999 8.9867,-18.563 2.9174,-23.756 -2.70909,3.794 -9.9335,3.584 -13.7535,4.585 -4.543,-20.441 13.1767,-15.942 27.2631,-8.657 -1.7807,-4.554 -3.0869,-9.074 -3.9537,-13.568 -17.1544,-16.02098 -40.7774,-2.68499 -44.9804,18.269 -9.169,-10.417 -18.34,-25.225 -25.423,-34.80298 4.24401,-12.6804 15.778,-20.3904 25.64901,-29.32491 1.66999,10.33539 11.685,33.02889 37.5615,24.50889 2.72379,-2.9097 5.20009,-6.8244 7.89789,-9.84018 0.8691,-3.78252 2.0094,-7.54842 3.39561,-11.29751 l -2.73891,-1.9031 -8.3463,6.91201 c -9.3878,7.4049 -19.1448,-6.76121 -9.8068,-12.98671 l 8.9731,2.5135 4.5882,-4.8189 c -7.7715,-15.0386 -2.5265,-14.5086 0.2103,-20.3173 l 0.62511,-8.1695 -11.32471,0.5545 c -1.172,-9.1653 -3.595,-30.2715 -21.46,-32.9414 l 0.415,13.3384 c -6.858,-2.683 -18.36899,-2.363 -24.779,0.1842 -2.002,2.9994 -3.768,6.1138 -4.24398,10.0211 l 0.043,0.0445 7.93,-0.4187 c 5.233,6.3335 9.375,13.2826 9.598,22.4141 -11.956,3.7956 -22.27799,14.1497 -32.552,24.7176 l -8.557,1.6764 -8.971,-12.1493 11.476,-12.5683 5.665,4.4226 5.834,-0.4166 4.873,-10.9645 c -3.875,-4.9583 -10.41,-9.1967 -14.532,-14.047 -1.087,0.1635 -1.902,0.1896 -2.151,-0.0392 -12.66102,-11.5744 10.87298,-35.0807 -17.36302,-27.8784 -0.27901,12.2238 -24.312,37.7858 -29.59001,46.6775 z m 168.37269,-5.1403 c 3.3468,7.5382 7.3176,15.1676 8.9623,27.015 6.389,0.7682 11.3196,0.491 17.7105,0.2137 2.1192,2.3556 3.7194,5.41249 4.1678,10.0024 8.443,1.44759 18.5534,2.37231 20.0047,14.08239 -31.5105,-7.46979 -29.0061,26.956 0,15.92502 -2.9118,9.95398 -10.4153,15.09298 -20.0047,16.66998 -0.4206,2.787 2.3945,3.896 3.0195,6.894 -10.3521,5.282 -14.341,2.203 -21.9824,2.262 -1.2898,10.578 -6.9894,18.249 -11.8777,27.21 V 179.8133 c 6.0896,0 11.0293,-4.94001 11.0293,-11.03001 0,-6.08898 -4.9397,-11.02899 -11.0293,-11.02899 z"
           style="fill:#161413;fill-rule:evenodd;stroke:none;stroke-width:0.99999994" />
      </g>
      <g
         id="g286"
         transform="translate(120.79609,-234.18729)">
        <g
           id="g280">
          <path
             style="fill:none;stroke:#161413;stroke-width:9.84609985;stroke-linecap:round;stroke-linejoin:round;stroke-dasharray:none"
             d="m 327.33389,534.45269 -196.67598,-233.7306 -7.126,-22.0904 15.677,11.4016 1.4253,9.9762 194.53768,231.5932 -0.446,3.948 z"
             id="path52-9"
             inkscape:connector-curvature="0" />
        </g>
        <g
           id="g277">
          <path
             style="fill:#ffffff;fill-rule:evenodd;stroke:none;stroke-width:0.99999994"
             d="m 327.3339,534.45267 -196.67599,-233.73058 -7.126,-22.0904 15.677,11.4016 1.4253,9.9762 194.53769,231.59319 -0.446,3.94799 z"
             id="path54-2"
             inkscape:connector-curvature="0" />
        </g>
      </g>
      <g
         id="g290"
         transform="translate(-25.63778,-218.16499)">
        <path
           inkscape:connector-curvature="0"
           id="path57-1"
           d="m 300.35678,504.04428 c 21.4671,-5.083 30.1,-38.13 56.8882,-58.138 8.5456,-9.679 13.3365,-23.756 20.0047,-35.634 14.9162,-6.761 27.8041,-25.231 39.3841,-51.26189 9.167,-9.8034 20.418,-17.5133 33.758,-23.1305 1.042,-3.7508 2.084,-7.5016 3.126,-11.2527 3.334,-0.625 6.668,-1.25 10.002,-1.8754 -0.374,-10.9326 18.133,-22.1777 22.982,0.2067 1.773,-0.1043 3.546,-0.2084 5.321,-0.3144 -0.731,-5.3419 -1.461,-10.6835 -2.19,-16.0251 -6.156,-0.2083 -12.313,-0.4187 -18.468,-0.6287 -9.6,-5.5502 -19.199,-11.1002 -28.797,-16.6521 -2.555,24.6152 -14.868,41.6877 -31.615,56.2427 -10.6108,9.982 -11.491,26.2824 -21.9117,39.90339 -11.7904,15.502 -20.9724,20.109 -31.3001,40.849 -9.5987,14.138 -21.0765,25.765 -31.6148,38.647 -8.5233,13.022 -17.0462,26.044 -25.5694,39.064 z m 160.603,-223.50459 -1.669,5.2373 8.763,5.8646 3.34,-7.3307 z m 37.144,-14.8734 -1.46,15.0835 6.469,-2.9342 z m -15.024,3.1425 -6.677,3.1425 7.094,6.7037 5.009,-3.7715 z m -15.859,5.4459 v 6.0747 l 12.52,0.839 0.208,-2.7238 -9.182,-5.4459 z"
           style="fill:none;stroke:#161413;stroke-width:9.84589958;stroke-linecap:butt;stroke-linejoin:round;stroke-dasharray:none" />
        <path
           inkscape:connector-curvature="0"
           id="path59-7"
           d="m 478.17577,310.48519 c 3.497,1.1985 6.689,4.9187 8.32601,12.4733 1.773,-0.1043 3.546,-0.2084 5.32099,-0.3144 -0.73099,-5.3419 -1.461,-10.6835 -2.19,-16.0251 l -11.457,-0.3895 z m 0,-29.4216 v -3.6706 l 1.773,1.0516 -0.208,2.7238 z m 0,-7.4367 5.321,5.0281 5.00901,-3.7715 -5.426,-6.0747 -4.90401,2.308 z m 19.92801,-7.9606 -1.46001,15.0835 6.46901,-2.9342 z m -28.79601,46.4743 c 2.65601,-1.8581 5.87301,-2.6816 8.868,-1.6554 v -4.2557 l -7.011,-0.2392 -1.857,-1.0738 z m 8.868,-41.0238 v 2.5101 l -1.773,-1.6756 z m 0,6.2762 -7.40899,-4.3943 -1.45901,0.517 v 6.9534 l 8.868,0.5945 z m -8.868,11.4979 v -5.3343 l 2.08601,0.7543 z m -3.96499,27.4688 c 1.015,-1.6551 2.391,-3.1181 3.96499,-4.2191 v -7.2241 l -3.96499,-2.2926 z m 3.96499,-42.844 v 6.9534 l -2.08699,-0.1397 v -6.0747 z m 0,10.0409 v 5.3343 l -1.254,2.7507 -2.71099,-1.8147 v -7.7032 z m -168.95099,220.4877 c 21.4671,-5.08301 30.1,-38.13 56.8882,-58.13801 8.5456,-9.67899 13.3365,-23.75599 20.0047,-35.63399 14.9162,-6.761 27.8041,-25.231 39.3841,-51.2619 9.167,-9.8034 20.418,-17.5133 33.75799,-23.1305 1.042,-3.7508 2.08401,-7.5016 3.12601,-11.2527 3.33399,-0.625 6.668,-1.25 10.002,-1.8754 -0.075,-2.2116 0.62199,-4.4359 1.823,-6.3921 v -13.7358 c -7.659,-4.4283 -15.318,-8.8563 -22.975,-13.2857 -2.555,24.6152 -14.868,41.6877 -31.615,56.2427 -10.6108,9.982 -11.491,26.2824 -21.9117,39.9034 -11.7904,15.50199 -20.9724,20.109 -31.3001,40.84899 -9.5987,14.13801 -21.0765,25.765 -31.6148,38.647 -8.5233,13.02201 -17.0462,26.04401 -25.5694,39.06401 z m 164.986,-221.9206 v 7.7032 l -6.05201,-4.0499 1.66901,-5.2373 z"
           style="fill:#ffffff;fill-rule:evenodd;stroke:none;stroke-width:0.99999994" />
      </g>
    </g>
  </g>
</svg>
