<!--Logo of Parti Melayu Semangat 46 (Spirit of 46 Malay Party)-->
<!--Illustration by Ahmad Ali Karim (ahmadalikarim.wordpress.com)-->
<!--(c) 2020, Ahmad Ali Karim. All Rights Reserved.-->

<!--Logo Parti Melayu Semangat 46-->
<!--Ilustrasi oleh Ahmad Ali Karim (ahmadalikarim.wordpress.com)-->
<!--(c) 2020, Ahmad Ali Karim. Hak Cipta Terpelihara.-->

<!--Generated by BRoman Vector Illustration Systems v.1.6-->

<svg
   xmlns:dc="http://purl.org/dc/elements/1.1/"
   xmlns:cc="http://creativecommons.org/ns#"
   xmlns:rdf="http://www.w3.org/1999/02/22-rdf-syntax-ns#"
   xmlns:svg="http://www.w3.org/2000/svg"
   xmlns="http://www.w3.org/2000/svg"
   viewBox="0 0 1511.84 1133.76"
   height="1133.76"
   width="1511.84"
   xml:space="preserve"
   id="svg2"
   version="1.1"><metadata
     id="metadata8"><rdf:RDF><cc:Work
         rdf:about=""><dc:format>image/svg+xml</dc:format><dc:type
           rdf:resource="http://purl.org/dc/dcmitype/StillImage" /></cc:Work></rdf:RDF></metadata><defs
     id="defs6"><clipPath
       id="clipPath18"
       clipPathUnits="userSpaceOnUse"><path
         style="clip-rule:evenodd"
         id="path16"
         d="M 0,1.8311e-4 H 1133.88 V 850.32018 H 0 Z" /></clipPath></defs><g
     transform="matrix(1.3333333,0,0,-1.3333333,0,1133.76)"
     id="g10"><g
       id="g12"><g
         clip-path="url(#clipPath18)"
         id="g14"><path
           id="path20"
           style="fill:#ffd200;fill-opacity:1;fill-rule:evenodd;stroke:none"
           d="M 0,6.1035e-5 H 1133.88 V 850.32006 H 0 Z" /></g></g><path
       id="path22"
       style="fill:#ffffff;fill-opacity:1;fill-rule:evenodd;stroke:none"
       d="m 262.68,425.16 c 0,168.07 136.22,304.32 304.26,304.32 168.04,0 304.26,-136.25 304.26,-304.32 0,-168.07 -136.22,-304.32 -304.26,-304.32 -168.04,0 -304.26,136.25 -304.26,304.32 z" /><path
       id="path24"
       style="fill:#0a4b00;fill-opacity:1;fill-rule:nonzero;stroke:none"
       d="m 465.95,271.29 v 59.5 H 344.94 v 49.61 l 128.27,187.77 h 47.6 V 380.6 h 36.7 v -49.81 h -36.7 v -59.5 z m 0,109.31 V 481.64 L 397.98,380.6 Z M 776.5,494.55 721.65,488.5 c -1.35,11.3 -4.84,19.63 -10.49,25.01 -5.65,5.38 -12.98,8.07 -21.98,8.07 -11.97,0 -22.09,-5.38 -30.36,-16.14 -8.27,-10.75 -13.48,-33.14 -15.63,-67.16 14.12,16.68 31.67,25.01 52.64,25.01 23.66,0 43.93,-9.01 60.81,-27.02 16.87,-18.02 25.31,-41.28 25.31,-69.78 0,-30.26 -8.88,-54.53 -26.62,-72.81 -17.75,-18.29 -40.54,-27.43 -68.37,-27.43 -29.85,0 -54.39,11.6 -73.62,34.79 -19.22,23.19 -28.84,61.21 -28.84,114.05 0,54.18 10.02,93.24 30.05,117.18 20.04,23.93 46.05,35.9 78.05,35.9 22.46,0 41.05,-6.29 55.77,-18.86 14.72,-12.57 24.1,-30.83 28.13,-54.76 z M 648.03,370.92 c 0,-18.42 4.24,-32.64 12.71,-42.65 8.47,-10.02 18.15,-15.03 29.04,-15.03 10.49,0 19.23,4.1 26.22,12.3 6.99,8.21 10.49,21.65 10.49,40.34 0,19.23 -3.77,33.31 -11.3,42.25 -7.53,8.94 -16.94,13.41 -28.23,13.41 -10.89,0 -20.1,-4.26 -27.63,-12.8 -7.53,-8.54 -11.3,-21.15 -11.3,-37.82 z" /></g></svg>