<!--Flag of United Malays National Organisation (UMNO / PEKEMBAR)-->
<!--Illustration by Ahmad Ali Karim (ahmadalikarim.com)-->
<!--(c) 2020, Ahmad Ali Karim. All Rights Reserved.-->
<!--Bendera Pertubuhan Kebangsaan Melayu Bersatu (UMNO / PEKEMBAR)-->
<!--Ilustrasi oleh Ahmad Ali Karim (ahmadalikarim.com)-->
<!--(c) 2020, Ahmad Ali Karim. Hak Cipta Terpelihara.-->
<!--Generated by BRoman Vector Illustration Systems v.1.6-->
<svg
   xmlns:dc="http://purl.org/dc/elements/1.1/"
   xmlns:cc="http://creativecommons.org/ns#"
   xmlns:rdf="http://www.w3.org/1999/02/22-rdf-syntax-ns#"
   xmlns:svg="http://www.w3.org/2000/svg"
   xmlns="http://www.w3.org/2000/svg"
   viewBox="0 0 1511.84 755.84003"
   height="755.84003"
   width="1511.84"
   xml:space="preserve"
   id="svg2"
   version="1.1"><metadata
     id="metadata8"><rdf:RDF><cc:Work
         rdf:about=""><dc:format>image/svg+xml</dc:format><dc:type
           rdf:resource="http://purl.org/dc/dcmitype/StillImage" /></cc:Work></rdf:RDF></metadata><defs
     id="defs6"><clipPath
       id="clipPath18"
       clipPathUnits="userSpaceOnUse"><path
         style="clip-rule:evenodd"
         id="path16"
         d="M 0,1.8311e-4 H 1133.88 V 566.88018 H 0 Z" /></clipPath><clipPath
       id="clipPath28"
       clipPathUnits="userSpaceOnUse"><path
         style="clip-rule:evenodd"
         id="path26"
         d="M 0,1.8311e-4 H 1133.88 V 566.88018 H 0 Z" /></clipPath></defs><g
     transform="matrix(1.3333333,0,0,-1.3333333,0,755.84)"
     id="g10"><g
       id="g12"><g
         clip-path="url(#clipPath18)"
         id="g14"><path
           id="path20"
           style="fill:#ffffff;fill-opacity:1;fill-rule:evenodd;stroke:none"
           d="M 0,6.1035e-5 H 1133.88 V 566.88006 H 0 Z" /></g></g><g
       id="g22"><g
         clip-path="url(#clipPath28)"
         id="g24"><path
           id="path30"
           style="fill:#c00000;fill-opacity:1;fill-rule:evenodd;stroke:none"
           d="M 0,283.44 H 1133.88 V 566.88 H 0 Z" /></g></g><path
       id="path32"
       style="fill:#ffff00;fill-opacity:1;fill-rule:evenodd;stroke:none"
       d="m 348.72,282.24 c 0,120.49 97.7,218.16 218.22,218.16 120.52,0 218.22,-97.67 218.22,-218.16 0,-120.49 -97.7,-218.16 -218.22,-218.16 -120.52,0 -218.22,97.67 -218.22,218.16 z" /><path
       id="path34"
       style="fill:#007800;fill-opacity:1;fill-rule:evenodd;stroke:none"
       d="m 389.16,387.48 h 118.07 c 20.36,-8.78 34.82,-20.14 36.64,-35.35 8.47,-8.57 29.04,-4.18 41.79,-0.64 v -32.35 c 8.07,-8.04 20.03,-21.91 27.1,-32.35 7.08,-10.44 5.41,-17.14 15.33,-30.32 9.91,-13.17 24.51,-19.67 44.14,-48.73 19.62,-29.07 25.6,-43.49 29.89,-60.74 -11.79,25.74 -35.64,59.58 -44.68,67.7 -9.03,8.12 -20.8,14.07 -37.18,31.81 -16.37,17.75 -22.64,35.57 -32.78,45.74 -14.54,14.59 -29.39,15.64 -36.97,16.39 -15.57,17.25 -43.57,16.5 -67.92,18 9.14,1.89 21.82,6.57 24.21,10.49 4.57,12.79 -19,36.51 -27.43,31.28 -30.22,-18.76 -62.28,-4 -90.21,19.07 z" /></g></svg>